<mxfile modified="2023-12-17T07:19:42.554Z" host="Electron" agent="Mozilla/5.0 (Windows NT 10.0; Win64; x64) AppleWebKit/537.36 (KHTML, like Gecko) draw.io/22.1.2 Chrome/114.0.5735.289 Electron/25.9.4 Safari/537.36" etag="lP7MMgsVLYnmK0Lb7rY2" version="22.1.2" type="device">
  <diagram id="WI9T0HZ2pTsCkuznbFz-" name="Page-1">
    <mxGraphModel dx="1306" dy="786" grid="1" gridSize="10" guides="1" tooltips="1" connect="1" arrows="1" fold="1" page="1" pageScale="1" pageWidth="1169" pageHeight="827" math="0" shadow="0">
      <root>
        <mxCell id="0" />
        <mxCell id="1" parent="0" />
        <mxCell id="Dhj0pCLLYURKOVo62HSA-29" style="edgeStyle=orthogonalEdgeStyle;rounded=0;orthogonalLoop=1;jettySize=auto;html=1;exitX=1;exitY=0.5;exitDx=0;exitDy=0;entryX=0;entryY=0.5;entryDx=0;entryDy=0;" parent="1" source="Dhj0pCLLYURKOVo62HSA-1" target="AcxdMaKK0mU5kZiv2lnr-4" edge="1">
          <mxGeometry relative="1" as="geometry" />
        </mxCell>
        <mxCell id="Dhj0pCLLYURKOVo62HSA-30" style="edgeStyle=orthogonalEdgeStyle;rounded=0;orthogonalLoop=1;jettySize=auto;html=1;exitX=0.75;exitY=1;exitDx=0;exitDy=0;entryX=0;entryY=0.25;entryDx=0;entryDy=0;" parent="1" source="Dhj0pCLLYURKOVo62HSA-1" target="Dhj0pCLLYURKOVo62HSA-22" edge="1">
          <mxGeometry relative="1" as="geometry">
            <mxPoint x="137.57142857142867" y="400" as="targetPoint" />
          </mxGeometry>
        </mxCell>
        <mxCell id="Dhj0pCLLYURKOVo62HSA-1" value="ローカル" style="shape=image;verticalLabelPosition=bottom;labelBackgroundColor=default;verticalAlign=top;aspect=fixed;imageAspect=0;image=data:image/svg+xml,PHN2ZyB4bWxuczp4bGluaz0iaHR0cDovL3d3dy53My5vcmcvMTk5OS94bGluayIgeG1sbnM9Imh0dHA6Ly93d3cudzMub3JnLzIwMDAvc3ZnIiB4bWw6c3BhY2U9InByZXNlcnZlIiBzdHlsZT0id2lkdGg6IDI1NnB4OyBoZWlnaHQ6IDI1NnB4OyBvcGFjaXR5OiAxOyIgdmlld0JveD0iMCAwIDUxMiA1MTIiIGhlaWdodD0iNTEycHgiIHdpZHRoPSI1MTJweCIgeT0iMHB4IiB4PSIwcHgiIGlkPSJfeDMyXyIgdmVyc2lvbj0iMS4xIj4mI3hhOzxzdHlsZSB0eXBlPSJ0ZXh0L2NzcyI+JiN4YTsmI3hhOwkuc3Qwe2ZpbGw6IzRCNEI0Qjt9JiN4YTsmI3hhOzwvc3R5bGU+JiN4YTs8Zz4mI3hhOwk8cGF0aCBzdHlsZT0iZmlsbDogcmdiKDc1LCA3NSwgNzUpOyIgZD0iTTkyLjc1OCwzMjIuNDA2aDMyNi40ODRjMjUuNjQxLDAsNDYuNDM4LTIwLjc5Nyw0Ni40MzgtNDYuNDIyVjkzLjY0MWMwLTI1LjY0MS0yMC43OTctNDYuNDIyLTQ2LjQzOC00Ni40MjImIzEwOyYjOTsmIzk7SDkyLjc1OGMtMjUuNjQxLDAtNDYuNDIyLDIwLjc4MS00Ni40MjIsNDYuNDIydjE4Mi4zNDRDNDYuMzM2LDMwMS42MDksNjcuMTE3LDMyMi40MDYsOTIuNzU4LDMyMi40MDZ6IE03OS4wODYsOTMuNjQxJiMxMDsmIzk7JiM5O2MwLTcuNTMxLDYuMTI1LTEzLjY3MiwxMy42NzItMTMuNjcyaDMyNi40ODRjNy41MzEsMCwxMy42NTYsNi4xNDEsMTMuNjU2LDEzLjY3MnYxNzcuMjAzYzAsNy41NDctNi4xMjUsMTMuNjcyLTEzLjY1NiwxMy42NzImIzEwOyYjOTsmIzk7SDkyLjc1OGMtNy41NDcsMC0xMy42NzItNi4xMjUtMTMuNjcyLTEzLjY3MlY5My42NDF6IiBjbGFzcz0ic3QwIi8+JiN4YTsJPHBhdGggc3R5bGU9ImZpbGw6IHJnYig3NSwgNzUsIDc1KTsiIGQ9Ik01MDcuMTAyLDQxNS44OTFsLTQyLjQ2OS01OS42MDljLTMuMzI4LTUuMDc4LTkuNDY5LTguMjM0LTE2LjE0MS04LjIzNGgtMzg1JiMxMDsmIzk7JiM5O2MtNi42NTYsMC0xMi44MTMsMy4xNTYtMTYuMTA5LDguMjM0TDQuODk4LDQxNS44OTFDLTEuNjgsNDI2LTEuNjMzLDQzOC40MjIsNS4wMjMsNDQ4LjVjNi42NDEsMTAuMDc4LDE4Ljg5MSwxNi4yODEsMzIuMTI1LDE2LjI4MSYjMTA7JiM5OyYjOTtoNDM3LjcwM2MxMy4yNSwwLDI1LjQ4NC02LjIwMywzMi4xMjUtMTYuMjgxQzUxMy42MzMsNDM4LjQyMiw1MTMuNjgsNDI2LDUwNy4xMDIsNDE1Ljg5MXogTTI2Ni41MjMsNDMzLjA3OGgtMjEuMDQ3aC00Ni4wNzgmIzEwOyYjOTsmIzk7bDE1LjkzOC0yNC41MTZoMzAuMTQxaDIxLjA0N2gzMC4xNTZsMTUuOTA2LDI0LjUxNkgyNjYuNTIzeiIgY2xhc3M9InN0MCIvPiYjeGE7PC9nPiYjeGE7PC9zdmc+;" parent="1" vertex="1">
          <mxGeometry x="80" y="181.75" width="116.5" height="116.5" as="geometry" />
        </mxCell>
        <mxCell id="Dhj0pCLLYURKOVo62HSA-32" style="edgeStyle=orthogonalEdgeStyle;rounded=0;orthogonalLoop=1;jettySize=auto;html=1;exitX=1;exitY=0.25;exitDx=0;exitDy=0;entryX=0.25;entryY=1;entryDx=0;entryDy=0;" parent="1" source="Dhj0pCLLYURKOVo62HSA-22" target="AcxdMaKK0mU5kZiv2lnr-4" edge="1">
          <mxGeometry relative="1" as="geometry">
            <mxPoint x="469.9999999999998" y="353" as="targetPoint" />
          </mxGeometry>
        </mxCell>
        <mxCell id="Dhj0pCLLYURKOVo62HSA-34" style="edgeStyle=orthogonalEdgeStyle;rounded=0;orthogonalLoop=1;jettySize=auto;html=1;exitX=0;exitY=0.75;exitDx=0;exitDy=0;entryX=0.25;entryY=1;entryDx=0;entryDy=0;" parent="1" source="Dhj0pCLLYURKOVo62HSA-22" target="Dhj0pCLLYURKOVo62HSA-1" edge="1">
          <mxGeometry relative="1" as="geometry">
            <mxPoint x="110" y="310" as="targetPoint" />
          </mxGeometry>
        </mxCell>
        <mxCell id="Dhj0pCLLYURKOVo62HSA-22" value="Go言語による&#xa;JSON API サーバ" style="shape=image;verticalLabelPosition=bottom;labelBackgroundColor=default;verticalAlign=top;aspect=fixed;imageAspect=0;image=data:image/png,iVBORw0KGgoAAAANSUhEUgAAAfQAAAIVCAYAAAAnJg0wAAAACXBIWXMAAAsSAAALEgHS3X78AAAAG3RFWHRTb2Z0d2FyZQBDZWxzeXMgU3R1ZGlvIFRvb2zBp+F8AAAgAElEQVR42uyddXgdVfqA3zNzNXaTpkndXSilULxpKVpKt7izxV12sR9bYJFAWGBxp9giYSlS3CG0FKsbdfc2aTzXZ87vj5mypUCNSnLzvc9zn9w8ydzczMw57/2OfJ/SWiMIgiAIQsNGidAFQRAEQYQuCIIgCIIIXRAEQRAEEbogCIIgCCJ0QRAEQRChC4IgCIIgQhcEQRAEQYQuCIIgCIIIXRAEQRBE6IIgCIIgiNAFQRAEQRChC4IgCIIgQhcEQRAEEbogCIIgCCJ0QRAEQRBE6IIgCIIgiNAFQRAEQYQuCIIgCIIIXRAEQRAEEbogCIIgCCJ0QRAEQRChC4IgCIIgQhcEQRAEQYQuCIIgCIIIXRAEQRBE6IIgCIIgiNAFQRAEQRChC4IgCIIgQhcEQRAEEbqQ8px56zgFqI33AZAGNAWaADlACMgCvEA2YO6Gt1UNvF1cWLBWrpAgCIIIXfitvHOAlu6jFdAa6AC03eT7zHrwVlcAxxcXFkyRqyYIgiBCb8zi3hhNZwNdgf2BPkB7N+LeGHV76um/IEIXBEEQoTdaiZtAD+BAoJ/76O7Ku6EhQhfqaztrDwzeTR+GNc70kwXUARGgFqgBKoHK4sKCmFwVQYSeGgJvA3QDhgCHAe2AIOBr4P+eCF2or+1uGPAqENhNf9J2xa7d55s+LFfua9zHSmA1sAQodaW/ASgvLiwIy9UToQv1T+IZQH/gNPdrF5yFbKmECF2or21wOPDf3Sj0HY3sa4FyV+ylwFJgBjAT+BmIAYniwoKkXFURurB7O5Egzjz4UOAUNxJXKfwvi9AFEfquow6YA0wCpgJzgenFhQVVcoVF6MKu6TgMnFXnA4CLgJ4428lUI/j3ReiCCH33kMAZml/nRvCfu6JfizNUL2IQoQt/stNoDYwATgV6sXv2fovQBaHxCf332ABMA8YBnwKTiwsLLLn6InRh2zsKD84Ws4uAM91o3Gikp0OELojQ9zw2EMdZZDca+BqYWlxYUCN3gghd+P0OYuNq9YuBk3EWuTV2ROiCCL1+oXEW100D3nQj93XFhQUJuStE6ILTOeQDfwWuwZkvF0Toggi9IbDGPQ9jgO9lSF6E3pg7hSzgKOBWnOQvPjkrInRBhN7AsHG2xn0PPAVMKC4sKJfTIkJvTB1CR+A24CQgXc6ICF0QoacAtcB3wL+BsTIUL0JP9Y4gGzgbKMTJsS6I0AUReipG7V8DDwNfSmpaEXqqdQAGTnrWu4BjSL2sbiJ0QYQubE458D7wCDBLMtKJ0FOh8XtwVq7fBXSSMyJCF0TojYz1wKPAM8WFBWVyOkToDbXhNwVuB87BKVUq7EKhV41UmUBnnLSWq0JFuk5OoyBCrxckgOlAEfCxDMOL0BtSg1euWIpwFr4pOSu7VuiuzC9BqXPROg58ADwZKtLr5FQKIvR6QxXwNPBQcWGBtE0Rer1v7CYwCHgGGWLfLUKvGqkMYCiG+by3bdc8bdtYqxcndDIxGigKFenZ9aInG6k8ODW046EibcslFqE3YmYCfwPGydy6CL2+NvQ04HSc+fLmEpnvNqF7gL+pQNptaQXDM8y8VsQXTCc2dVxUJ2KjgQeAWXtKou4HjnY4ozX5wELg5VCRjsplFqE3UjTO3Pp9wPNS5U2EXt8auQ/4F04e9gw5I7tV6AoYDDxt5rfunH7UGWB6iM+dQmxySUQn45OA64BpoSK92/fGVo1UfYE7McxhyutDxyIWMAQoCRVpiU5E6I2ZGPAucLkkpBGh15cG3hG4FziBxlcVbY8L3ZWmCVwO3OVt1z0reMixKF+Q+PxpxH7+Ebtqw0LgFuDt3SXRqpEqHaeG/X0qmNEvsE+BYea1IjLuXW1VlL4IXB8q0hVyqUXoEq3zE3BDcWHBeDkdIvQ91bAVTnW0x90I0ZCzsmeE7go0E7gOw7zF32t/M7DvYECTLF1NZNx72DUVC4Grgc9DRXqX5p2uGqnygLNAXWZkhroE+h2mvO17kFy3jMh3H2u7puJ54IZQka6USy1CFwCY737o/qC4sECmo0Tou71h7wf8B+gpZ2PPC90VaXPgHRVIOyh48LF423UDZWCVrSE8dgx21YbVwJXAJ7tqDrtqpOoC3IhpnuVp1jYY2G8wZm4LkqWriX7/EVb5ugU4te5/ksVxInThVySAx4D7ZBW8CH13NurBOKkN95KzUa+EroD9QT1i5uQdEDx0GGZeC0Bhla0mXPIOdm3lUrR+Hnh8Z0bIVSOVD2eHw1XKFzjS17O/39dtH4y0LKyK9UTGf4C1Ye0stL4TeGdXjxIIIvQGLPUfgcuAOcWFBfKhV4S+Sxt0X+ANnOF2oR4J3RWrFzgaeNTTunOH4CFDMdKdvD5WxXqiE78iuXJhBfAQ8AKw9s/I1f0Q0QQYDtyoPN5OgQOP8Xg79ER5fdjhWqI/fU5iyc8AFwKvyQp3EbqwVWYDVxcXFnwlp0KEvqsa8yDgeaCjnI36KfRNouWzgDs8rTq1SRt8MsrrVKjVsQjRqWOJz5lko/VY4DXgrVCRrtrOv6EAvyvyEUCBt223dH/fAZi5zUEp0DaR7z4mvnBGDNu6H/iXZLAToQvbTAVwM/CcVG8Toe/MRuwO5fIMsLeckfotdFe4GcANwNX+fQqyA3sfCobpSj1K7OefSC6fi1VZVo5tPwS8CiwLFW29Ibh73zsDx6PUdUZ6VlNvpz74e/VHBZyKuNpKEpv+HbEZ4xPY9n+Ba4EN2/L6gghd+F9zwyk3/WxxYUFETocIfWc04g446UR7ydloGEJ3xdsMeNRIzzo1bfApmHkt//dD28auqSA6dSyJJXNA2yXAncBkoO73FqxVjVQBnOH1g3BW1B/kbdUR/76HYebkO1G5+9qxWT8QnfS17Y4A/F+oSK+RyypCF3aIME6Bl1uKCwtk7YkI/U814PbAUzilT4WGJXQF9AfeNLLz2qQfdYYyMkK/+h2diBH7eQKJ+dO0XVu5DvgCZ1HOdKAGiAI+IA84EuiL6TnEzMnL9HXfT3k79EB5/Zu8oCaxbB6RHz5J6EjtR8BloSK9Vi6pCF34U0SBfwP3FhcW1MrpEKHvSOP1Ac8CZyNJYxqc0DcR+5UoVejfZ6Az9K42y8qrNVbZamI/TyC5Zgk6GqlD26twVtxqQKGUH9PT2czJx9OqE75OvTFCTdg8w6+1bgXhse9qu7ZyPM5e85/kcorQhZ1CBPgn8KCsfhehb2/D9QMjgX8AXjkjDVro+cCLKi3z2Ixj/4qR1eT3f1FrdDyGVbaa5KrF2NE6SCZR/gAqPQtv607O0Lrp+d3DrYpSIt++j1W2ehpwXahIfy2XUoQu7FTqcObUHxKpi9C3tdEqYBhO4phsOSMNXugmcDJKveDrvl9aoP/hKM9WPqPZNtq2QGswTJRSYGwhGaBlER47hsTy+WXY1jU4aWal7rMIXdj5VOLsYvlM5tRF6NvSaHsAbyKL4FJC6K7UQ0ChSsu4NG3g8V5Piw479Q0nls0l/M0YsJKPALeEirTM84nQhV3HQuD04sKCyXIqROhbarB+YAzOIjgpgZo6QjeAvqD+62nVsUv6kaf9so3tz6IjdYS/fovkuuU/AheGivTPcglF6MIuRQMTgL8UFxasl9MhQv+9xmoA5wKjkGIrKSV0V+rpwCMqkH5BxnHnYWTl7IRuRROd+BWxn3+00Ppq4LlQkY7LJRShC7ucJP/bziZ71EXov2msfYF3gA5yS6Sk0BVwNko9EjjwmBx/931/u+J9O7Eq1hP+4r+2XVv1PnCODLWL0IXdShwYUVxY8F85FSL0TRuqH3gROB0Zak9JobtS7wUUezv07BM85DiUz//nepNFs4h+/3GVTsRuAF6QoisidGG3MwM4rbiwYK6cChH6xoY6DCerV6bcDikt9DzgSbNZm5PTB5+MCmbs+IvZNuFx75FYPGsKcD4wQ1K7itCF3Y6Nk+/9EjkVInTOvHVcLvAxTr52IbWFHgJuNZs0uy7tiNPYPHPc9qCTSeo+eRmrdNV/gatCRbpMLp0IXdgjJIEjigsLxsqpaMRCd/ecn4cshGssQs8B7jebtrwg7fBTfimtukNCT8SpfW8UdnX5czhZ4Srl0onQhT3Gh8C5xYUFG0TojVforYH3gH7SHhqF0FsBr3rbdx8UHDD8l7KqOxahJxyhV20YBVwfKtLVculE6MIeI+YKvdEvkGvMQr8aJ+m/pHdNcaG7q9yPAPWMf6+DOgT2G/znVrlbSWo/eAGrfN07wKWhIl0ql06ELuxRJgKDG3sBl0Yp9DNvHecFpiIZ4RqL0NOAe5TXf3X6kHMwm7b4cy+obSI/fUl8zoTVaH18qEhPlEsnQhf2KHXAecWFBW+K0Btf4zwTJ1+7R9pBagvdjc73BT73tuuWk3b4qTvldeNzJxP58dNqbPvvwEu/V0ddEKELu5UvgJOKCwtqROiNp2Fm4ew7P1Hu/0Yh9CbAgyqYcXbwkKGmt23XnfK6dnU5dZ+/jl1d/jVwkiyMa5hUjVQBIBen7nZVqEgnRegNligwqLiwoNGWLm6MQu8HfAnkyP3/p9E4Q10bH7U4GZzqcGqKR9xGxmbPN5J0j9l4E1YBLxcXFqzaSZ21Fydh0EP+Xgfk+vcdhPL4dl7vMWUssWnjosCIUJEeLbdDg5T5CJwKXmGcfBQf/N6HMxF6g+EJ4KriwoJGuTisMQr9bpx658LvBJ6uVCvcRzWwAVgFlAKr3e/LgHL35wn3uI0P7X5lk+83f77pBwJ7s+/1zmqMVSPVEOBxs1mbjmmDTvxTW9X+MEr/9FXs2qoJwCWhIj1NbqEGI3MDOBRlvGXmtcwjEceqKotg2x8BV4SK9PrdIfQgteToUizloZx8Evjl4vw5fgaGFxcWLBKhp77MM4BxwD5y3/8i0DiwCPgUmASs3UTalcWFBeEG2mG3AF5TwYwBaYNO8Hiat/vjle1WEm0lsWurUIaJ1jYqmIHyeLdaPz2xfB6Rb8bEdDLxMHBnqEiH5bZqEPeHBzhD+QJPBw44Ks3MbUF0yjckVy4A274BeC1UpNfsSqFnU8YQ+2W6Mg0Lkx/VMZSok7Ew5QLtOBHgr8WFBW+J0FNf6EcDryPD7RpnvvoTnKI0XxcXFiRTqLPOAW7GMK8LHjIUX+c+vytzu7aKxPJ5JJfNxa6uwI7UgjLAtlEeL0ZWDt4uffG26YKRkeX8bPMTaSWdEqorFswATg8V6TnSpzaYCH1v4CUju2mftMNOQnl9RCeVkFg6B2zrY+AKYFmoSOszbx23D3ApsHHOxr/JcwATSMOpB+Hf5OcBIOh+TQMyTZKqhV7KcP0cvdUEvK06YlWUMq+uHS8Yt1JJnlygP0dxcWHBWSL01Ja5CdyOM9zeWDPDJYA5wFvAG8Cy4sKCWIp11AHgbyh1q69r37TAfkeg/JsEVVpj11WTXLuc2Izx2NXl1dh2FbDOHaVQgOV2yMdhGB2NrNygp1VH/L0OcIbtN/twEF8wjeiPnyV0Ij4KuGPz4VqhXkfpF6PUvZ4WHTKCBw8Br5/YjO9ILJxu61j0feAGYNFl5ljFr3fFmO7jl76U/+W0MDd7eDY+2ur5OYfrN8/qrKdfluOvxd+1D/4e/YnN+J41c1fWPW/ctmaJ6mm48k8D0jf7O8LWWQN0LC4siIrQU1foacBnwKGN9CZfDDwDvLazFp3Vww7aBI4B/mPmNs9NP/osVCDtfy5PJkgsmkV8zkSs8nVJYDzwKjABZ83AWnf0QrudaFvgBGAIhtHfzGmWGdj/CDzN2oJh/Op1Y9O+JTbjuyrgOuAVqY3eYO6ZdOBWTM//+Xv2x9+3ALRN7OefiE0bD9p+ESgKFemFO+Fv+YErUOpmIy2ria/X/vi67E1i+QJiU0qw66o/nqIGXj3KuNMCmgHNgRZAZ6AT0BunxLMIfuuBy8DiwoIfROipK/Q2wEJ+PUzWGFgFPAU8B5QWFxak5H7pqpHKBxwN3GfmNu8WPPhYZea1+iUqt8pWO5HXigV12PY44AXgB2DNlvaQu0OzTYEjgItUMH2Ar0tf09d9319F6zoaJvzNOyTXLF2E1ucD30oFtgZz73QHPlSBtE6BfQbi69bPkfqsH4nN/MHS8ehk4FHgnVCRjuzgB82+zmiAca6nVUeff+8BmE3ySa5YQOTHz9DRuonAxcD0ze8bd3Rx4yPbFXsB0MeVfUdk9f2m2MCtxYUFRSL01BX6SThDzY2FOPA5cC/wfaqK3O0wldvB3WNm5x0UOGgInuZtQSl0Ik5y9RKik0tsu7J0mSvyN4Alf7Tn+A/+RgBnzvValDrczMlvEjxkqDLzWgIKtCaxciGR8R/GdaT2M+AqYLlIvUHcPwYwEHhGpWV2SSsYjqd5O7RtkVgwndiM77DrqjcAj+OswZm/LdfVvS8zgSHAdXi8/b2tOuHf9zDMUC7J0lVEf/wMq2x1DLgaeD5UpK3t6NOCQGugKzAIGAa0whmmV438sr4BnN9QF/WK0Ld+8z8GXNlIrmsp8C/gycYwj1Q1UvUAnjIyQgODhw7D06I9KIVdV010yliSS+egE7Gv3Sjr01CRjv2Jv9XU7fwfUsGMNsEDj8LbvscvC+bi86YQnfAlOhF7DbgpVKRXijIbzIfCQcCLZm6zdoGDjsWT3xpsm+SqRUQmfoVdXQ62NQ34KzB7S/J15+d7AZeCutQI5eLvvi/ebv1QHg92dTmR8R+SXLfcRuubgMd3JPrfrI8L4Ewp/gUYDrRpxGKfDgwrLixYIUJPPZln4azmPrwRXNPJwD+AklRaub6FjnNv4C7lCxwV6H+4z9e1L2hnj3h4/IdYZas2YNvv4xTimb89UflWOuvDgX8pr7+vr8d++Pc+BOX1o60k8TkTiU4qiWNbz+OUV60TZTaIe8kHHI9S//F27BVIG/AXMExnyqZiPYkls4nPnohOxGYCLwNv4mzvjOIM85o40zNtgKHABcrrb+bt1Nvr69YPIzsPZZrY1RVExr9Pct2KOrR+ELjnz8p8s/7Ot8l7uMiN4BvbVGM1UFBcWDBdhJ56Qu8CvAv0TPF/dQpwZnFhwbxG0gF3Bh4AjgkeOszn69QblCKxdA6x6d9hVaxfD9yFs/CtcmcOf7vDtH2BW5XHO8zX+yAz0HeAs1jOsgiPHUNi6dwq0KcDn0uu9wZzT2UBozDN44P9j/T5uvdzpI6z+DE+byrx2ROwayo16Ak4tbgX4ExxpeHMg7fAMLqY2Xl4u/XD12XvX/IZ6HiM6LSxxGdPBNsuBO4LFeldUiHszFvHKVfs5+AM6ec3sst5XHFhwUci9NQTeoEr9FTef/4BcHlxYUGjGOJ1E8cUK19gUOCAo/B17oMdriH60+ckls8H25rndq4/hIp0Yhe+j6bAnRjmX/17HZTu730gyh/Eqiwl/OVobVeXLwDOChXpSaLLBnNvtQP+ZaRlnp52xGm/qc5nVW0gsXAG1roVWFVlWseioG1QCiMtUxm5zfG26ICnXTeM9Ew2jnrrZILY5BLi86bEdTLxBE4iot1SA+DMW8c1x5mGOwnIaCSX8v+KCwvuE6GnntBPwcnylIr7zzUwFri4uLBgQSPqdI8HxnjbdSc44C/YleuJThmnk6sXl+JMr/wHmLA7ImN3pOBvyuu7wNdj/4C/9/6oQDrJFQsJf/O2rRPxd4AbQ0V6ieiyQdxbHuBcDGOUf6+D8O894DcZA3UygY5FsWsr0HU16GQc5fVjZDXBSMt0ch8Ym+wusy0Sy+YSGf8hOhF/A7gJN2nNbuwHM12h3wW0JPXn158tLiy4RISeekK/CbgnRf+9eTi5i+c1phu3aqTqCLxjZIT29rTtSnLZPOy66rnAg8Dru2oYcwvvpy1wA6bnAk+rTsG0guEoj5fYvCnEJn5Zp5OJB4C7ZX96g7m/OgFvGhmhfYLuqvc/g1W+jsi497DK1y0Bzg8V6W/2UF+ogAOBp3G2vaUynxQXFhwrQk89oT+DM/yaaqwHzisuLPi4EXa4htsx3YNSbdF6JvAwzv7vxB54PwonGciVwBWeNl2ygwcPRfl8RL79gMTSOXOA40NFer7ossHcX0eijFe8bbvmBQediDJ3MJ+L1kQnfUXs55/Ats8G3tyTH+xcqe+FU5kslRNtzQT6pvKW3cYq9A9xVnymEhpn6OzuVEvfuh2dromTOSsXWAaUbs8+3l30nrJx9qDf6G3bLSNwyFASS+cS/eHjUlfo34suG8z9lQM8pXz+0zKGXYARyt2h10msXEhk3HtaR8PfAKeFinRpPekXu+HUc+iQopdwHrB/cWFBtQg9tYQ+GeiXYv/WVJz0hjXS9dY7ESjgdpT6u5mTl2lXlyd1MjkNGBYq0mvlDDWo63gC8Fxg/yNz/D33/1XK32361J1MEBn7Lollc2fgDLVPrmd94yFAMU6a41RjCc7WtUaTC6KxCH1Zit2wtcDlwKs7q3a4sNNlEAKOB47FKRbxqqx0b5DXsTdQ7O20117Bg4agfNtXr9yu2kDdZ69h11Y9BtwaKtJV9axvNIFLgIdIvb3qK4CjigsL5orQU0fmBk7mtCYp9G+Nx9ljWYVQn2Xgde+7aH3ryIVtvoadgTc9bbr2TRsw7FfFfraFxMqFRL5+C51M3IZT5KXeJXtyE2+9gpNhLpVYCRxdXFgwW4SeOkLPxhl6yU6Rf8kGzi0uLHhFultB2OVC7wK86W3bde/godsv9PiiWUTHv4+2rFtwMsLVywVaZ946bn+c+fRUCnzWAEOLCwumitBTR+g5OKVDU0XoC3CGkZZKdysodZjC2U/8ew9+5/lG9GbP//ChdUmjndZxUwsX+7ru0zNw4NG/2Y+eQkI3cArPnJpCl289cHxjKqMqQm9YaGAUcFVxYYHsZ2584g7iVNLKwEkzGgCygJAbWWVv8jO/+/t+9/d8/K+OtsYZ6Uni1I6OAXU4azNqgLD7vByoch8xnJzlde4jonVJIpXPuZtg5lqUujd4yHH4uvbd7tdIrlpE+Ou30In4HTh5COrtOTvz1nFHAG+795RE6CL0enmTtsepvJMKN2kcZ995sSguZaXtc0UcxElV3BZoDuTh7HPPd5+HXHkH3WP87lePK+6NkbmxWZTO70TpGwW/8WG5jygQcR91m0i+HKcoSZn7fI37KHd/NwrEtC5p0Pt/q0aq1sDjRqjp8IyhI7Z7uB3Arqum7sMXseuqRwHXhYp0vd2Vcuat4/JxSkwPSJEmJXPoKSj0TjhFS1JB6LU4iRIWif5SRuKGK+cWOLWtOwDd3Ocb5Z2llEp3pW0CJgpDKaUUSilDYRgGhuk8TI8H02Pi8Zoow8Qw/udyrTXa1ti2jbZtLMvGTlpYSQvLttGWja012rbRWoMGjdau+m2ttaWUsoGk1jrmCrwaqMBZfLoKJyfAQmA1sA5Yq3VJgyrjWzVSBYDrlOm52d93QNDf5xBQ258pVScTRMa9R2LpnKU4e9An1OO+UgF341RrTAVklbsIvV6zsLiwoItosEELPIAzPN4S6IGTsasT0M4VeAYQUEp5lVKmK2tlek18fh++gJ/0rHTSs9LJyM4klBtyvg9lkJ6V8cvPghlBAmkBvH4fyjBQgOYXQTtfbY3WjtTj0Th11XXUVFQTrq6jrqaO2qpawtV11FTWUFtZQ111mHBNHbFIjEQ0TiKRxLYsrW298TVtrfXGYfwwUOlG8UuApcAcYC7O3OYGnGH7etcBuVni/oJSb3tadzaCBx+Lkb7j3Udy7XLCX72pdSz8BnBxPY/SBwDjUqS5yT50EXq95sPiwoJhosUGJXATZw47Dyd3djf3a2ecIfQcpVQA8BimYRqmqbw+L4H0AGmZaWQ3zSEnP4emLfPIb51Pdl4O6aEM0jLSSMtMIy0zHY/Pg2EYbIzUlVJOVO7E79sWSW4WudvucythEQ1HqKuuI1zjCL2moobytRtYv2o9laWVVJVVUFtZS7g2TCwSJZmwsJJJrW29cSg/obWO4szFr3cjp1mu3Oe5sg8D8fog+KqRqgfwpJGWOSh46DA8rTr+fnSuNdjurIJh/GEEr22L6E9fEJ83uQrbvhQYEyrSsXraX2a7oyxpKdD8ROgi9HrN48WFBVeJJhuEyDPcqLs3cBDQ05V4DhBUSnmVoZRpmsof9JMeyqBpi6Y0a9eClh1bkdcqj7xW+TRt0RR/0I/X58Xj82J6zD3+v2lbk0wmScQSJBNJwjV1lK8rp2x1qSP6letZs2QV5evKqa2qJVIbJpmwsG3bGb13ovgYzlD9WlfqM4AJwCJgldYle2S/tlsO91VMz9HBA4/G16Xvr7PDaY1dW4ldWUaybDU6EgZtYwQzMHKbYzZrg/IHUOrXGeWsqjIi497HKl01ETg9VKQX19P+0g98T2pk1hShi9DrNf8oLiz4l+iyXgpcufdYa2Bf4GCglyv1bKVUAIXp8XqUL+BXoSYhmrbKo1Wn1rTp0pY2XduSnZdNRiiTYHoQw2NgKCfqbghoW2NrG9uyiUdi1FbVUVddS9mq9Sybt4x1y9eybvlaNqzdQF1VLbFoDCthaa21rbVO4MzFl7lCn+lKZaYr/PDuiNzdPPyPY3rO9HbspYIHH4syPb9E2XZ1Bcnl84kvmIYO16KT8WXuXINGqXTl8eYbOfl423TB274HRlaTX6J2nUwQm/k9sanfrgd9P/BEqEhH6mF/6cXZvnaSCF2ELkLftVxWXFjwtOizXoncwFmFvhcwCOgPdFRK5QEBZSjTcKPwnPwcWnVqTee9utC2e3uatW1GbrNcvH4fHp9nm4fHGxK2ZZGIJ4lH45Sv3cC6lWtZs2Q1C2csYPXi1VSsL3cj+CTa1rbW2nLlvg5nYd13m8h9w64Se9VI5cPJlPaUp3m7poGDh2Bm5/0i4/jcKSQWTsOuKre1lfzWfT9v4Wzzs4E2wCnAmcrjNY2cfAIHHIUnr1LqEY8AACAASURBVCW40bodqSVc8jbW2uUrgUeAR+rbNjY3FeyjOKmlRegidBH6LuTi4sKCUaLReiHyHKC7K/FBQFcgTykVUEoZHp9XpWelk98mn469O9Oxdye67N2VnPwmBNIDeLyeRnvuLMsiFo5RW1nDigXLWTxrMUvnLGbF/OVUllUSC0exkpZ25R7DWT0/D/gCJ+3xHKBmZ8nd3W9+Fko9YGbn5wYOPc4RsW2TLF1FbPp4kisX1YBeALwDPAesDxX9uvN0X6c/TrW9w1UwI9/XdR983fphZDjdj1W6ivC372NXls0HTgZmbf46e7i/NIDbgVtF6CJ0EboIPZUl7sVZyNYPONLtvNsrpbJReD1ej5GemU5uyzw67dWJrvt0p1339jRtmUcwI4jHm5pR+A6jwbItkvEk1eVVrFuxjsUzF7Jg2gKWz19GZWkF0boIVtLauHq+AmcB3Y+u3CcDZX9mvt2V8GBQr5q5zfMC/Q/H06I9OhEjsXAm8QXTsMrXVaH17cDHwIqtDZW7Q/cHAJdgegZ5mrfLCex/BGZ2Htq2iM+dQmzqN+h47AvgilCRXlCP+ksF3ALcKUIXoYvQReipKHITJ8HLAGAo0Fcp1Qp3SN0f9JPdNIdOfTrT68C96Ni7Ey07tMQf9GN6PHICt0PwyUSCcG2EFfOXsfjnRcz6fgbL5i2jekMV8VhCa9u2cRLXrAGmAe8C3wIrdiRirxqp+gPPqkBa38BBQ/C1644dCxObNp74/KlgJcuAG4Hi7VmZ7pZebYFTfvVxM7c5/n6H4W3TGZ2IE53yDfE5k8C2vgdOCBXp9SJ0EboIXYQu7BqJKyAXJ9HLYOAwnBXruUopn9fvNTJzsmjdpQ17HdSH7v170qpDK9JC6ZimKZH4n3W71lhJi5qKalYtWsmcibOZ+f0MVi9eRW1lDclEcmPUXoazBe4z4ANgmdYlW02LXDVSmcBRwA0qmF4Q2P9I09umC9aGdcRmfk9yzdIkVvJV4Hngpx2d664aqdKA64HzVFpm+7RDh2G2aA+2ReS7j0gsmW2h7bOBt+pDJTYRughdhC5CTzWRp7kSPxVnWD1XKZWpDOXz+rwqOy+bLn270begH1327kp+m2a/7AUXdoHcbZtEPMmapatZNGMBk76eyKKZC6kuqyIRT2h3lXyF284/At4D1mhdYm1BtHnAayqQfmSg3yC8HXsRXzST+M8/YddURNG6GLgJKPuzc9yu1A8H7jWz83r49z0Mb5suJMtWE/n2fW1XbfgcuCFUpGeK0EXoInQRurBzZG4ARwDnuV9zAMMwDRVMD9KsbXP6FuzDXgfvTee+XQkEAximSHx3Yts20boIC6bNZ9q4KUz9Zgqlq0uJRWIaZwtcFc5Q/Juu3Ff+3lC8m6f9TTO/9YGB/QaTWDqHxPxpUZ1M/AjcD4wPFenqnfW+3bn6/YAXjfRQd/9+g/G2705y9RIi34xBJ2LvAZeEivQ6EboIXYQuQhd2XOQenPSr5wBnAK1Q+EzTo9Iy02jXvR29D96bfQr60aJDS2efuIh8j4s9UhthxYLlTPl6EtPHT2X14tXEwlFtWVYCJyPdROBVnFSmv9ryVjVSZQD/UqbnEhVM99jh2lps60XgMWBxqEhbO/s9u1I/DFSR8gf28+8zEF+nvYjN+oHYzz9VkkxcCfx3V/xtEboIXYQuQm8MMg8AJwKX4CSESVNKqWBGkLbd2rPvYfvS/8gDyW/TDF/AJ3Pj9QytNfFonJULlvPDx98x5ZvJrFm6mkQsobXWcWA5zor4l4Bpm5Z8dbPC3Q50BD4FXg8V6dJd+X5dqffDWYi3d6BvAWaL9oS/Gh2zq8sfBW4JFek9VhpZhC5CF6GL0BuiyL1ux3opMAwnm5uZlplG+54dOPCYg9ln0H40bdkUr88rJ6wBEI/GWbN0Nd99MI7JX09izdI1xKMx280jvxAYjTMUv2BjtF41UnlxSswmd1dk7K6A7wr8R3m8BxiZOViVpWvQ+jbgBYnQRegidBG6sG0iV0A2cDxONqxeQMDr96pmbZpTcMIg+h22H606tsbr90pE3gAj9khtmIXTF/Ddh+OZNm4ylWVVJOOJjSvifwKeAH7QuqR2T71PV+r74kzztMGZ738rVKSr9nB/KUIXoYvQRegNRuY9cTJ5nQLkKEOprJwsDhk2gEEnHk77Hu0xvbJ3PBXEHg1HmfrNZMa9+w2zJ/xMpCasbdtOAotx0raOApbvqQpvrtTTgSBQIdvWROgidBG6sG0yT8PJ7nbLxqjcF/Cpznt3ZfhFJ9DzwN4E04MSkacYVtKiYn053380nm/fHcuqxSuJR+OWuxr+B5xFcGO1LonK2RKhi9BF6CL0+i/zLJzh9YuBdiiMQFqQwaccwZARx9GiXYsGU9VM2DES8QTzp8zli9c/Y8o3kwjXhLW2dRwnL/xzwAtal0Qa+3kSoYvQRegi9Pos8x44K5mHAmker0e16dqOYRcO58BjDsYf9MtJakTEwjHGvVtCyVtfsWT2EuKxmI2mEqfoyhPAzC0lpPmDe8yHk+M/Dyd3QVOgCc5wugLiQB1QBWwAwji14DcAlVqXxOrL+RGhi9BF6CL0HRGtAfhx5g/9bifYwu0Is4AA4AU0kHQ7xAqcspqrccpWhoHI782Buq9/CPAPYJBSKuAP+lXvg/tw7Ijj6HlAb1m93lij9ViChTMW8EXxp0wbN4WayhptW3YNTiW3x4CSLUnWvbcycXIXHAj0AbrglNENufeuB2f1PO49bLv3cQynPGyVey+vxJnTnw387Eq+7s8UnBGhi9BF6CL03SXxXJw57M5AD5wSpM1dkacBvs06w007xAROYY4qYC0ww722M93IKrlJxDQQeADooZTyZDXJot/g/px42ck0b9dCEsM0drSmakMVX43+grFjSlizZDW2Zce01vOB+4AxWpfUbXb/KqAlThrXY4H93Q+iARSmQjkYylmLof5392qtf3mg3XfgdL72JhH8epy89D/gVJSbsbunAUToInQRugh9SxL3Ae1w9nwfgbPKvK17PfyARylloEApQxmGQhkGSvFLp+h0e05naNs22tYbSbpReilOVrC33ShrOPB/QAfT6zGatmjKEacdxWGnHE5OXpP/dbRCoycWiTF30mzee3YM86fOI1oXsbTWy4DX3Gi9TOsSrdRhnYG/4NQw7+7k9jdMr8+jAulBsnKyyM7LpknzXDKzs35V895KJIlF40Rqw9RU1lBbWUNNeQ111bVEw1Fi0RhW0tp4XyfdD63rgek4JVs/B1Zv71SACF2ELkIXoe8skfvd6PtEnEplXXH2f3uVoZRhGMrj9eIP+knLTCMjO5OsnEzSQxlkZmcSSA/i8Tkdom3ZxCIxwtV1VFdUUVlWRU1FNbWVtcSjMZKJpNa2TgDrtdZT3Q8PLTxej9GsXQuG/PVYCoYPIj2UIQYTfoNt26xYsJwPnnuPiV/8RF1Vra21LsNJG/s4TsW9kcA+ylAhr9drpofSadWpDZ37dKHbvt3Ja51PRiiDjFAmvoAP02P++m9YNslEklgkSqQuSqQmTG1VDauXOAVnVi9ZRenKUmoqqonH4tiWvbHoTKUbrb8BvKt1SViELkIXoYvQd5fIPUBf4AKc8pStUHgNw1A+v09lhDJp3r45bbu1o23XduS3aUZeq3yaNGuCPy2wTdvGYpEYFevLWbVoJasXr2LhjAUsnLGAstWlJONJrZRSHp+HLn27MfziE9l38H6yHU3YKnVVdXz538/4+D8fUr5uA7ZlJ1DMMk0zCKpbMCOgWnVqwz4D+9HrgN506dsNr3/nrMNIxOKsWryKRTMWMmfSbOZNmkP5ug3EojG0rS2gHKc87ENal8wSoYvQRegi9F0t867ACOAvKDoqVMDr9xmhpiHadm1Hj/496b5fT5q3a04wIw1/0P+nRWslLTasKeO1+19mwuc/kYjFCaQF6NqvO2dcdzYde3f6TbQkCFv6sPjte2P57NWPWTZ3KZZlaY/XQ+c+XdVhJx9O34J+hJqGdtmCSm1rwrVh1i1fy4TPf2Tq2MmsXLCCWCSmtdZh4DucanBfa11ii9BF6CJ0EfqukPkg4GmgEwrD6/MaOflN2Hdwf/Y7fH869u5EVk7WTp+/ri6v4qMX3+ezVz+hrrpOB9ICat/B/Tn+khNp16ODRObCdpNMJJn1w0zeeLiYRTMXYCUtOvTsyAW3X0L3/XrstnvKSlqsWryST176kElfTaSitBx37/w84Grg2509ry5CF6GL0Bux0N0h9rOAe4F8j9ejcps35YBjDmLA8IG0695+l0TIWmtKV67nwxfft8e/N5baqlqVmZOlDjnuUI47fzh5rfNF5sIOY9s2S2cv5c3HXmdqyWSSiSQtOrTg4sLL6XXgXrt1l0QsEmPy1xN5+4nRrFy4gmQ8aeEsmLtZ65JPRegidBG6CH1nyNwETgP+DbQIpAfo3Kcrx53/F3of3IdgenCX/F2tNRvWlPH+qHftb9/7JllXXefNzstRBw89lKHnDaNpyzyRubBT7rPlc5cx+tHXmfjFT9i2Tbtu7bngjkvovm+P3Sp127KZNm4qox8pZsnPi0kmknGcHR1XAXN2Vj56EboIXYTeCIXu7sk9FngZaJKelc7gU4/k2BHHkd+m2S7sZWHdirV89NIH9ldvfJ5MxBLe7PwcNeScoRx2yhFkN80WEwk7VeqVpZU8e8uTTC6ZiJ20adu9HefefAF7HbL3bv/gOPP76RTf/woLpy/Atu0wTjnYa7Qu2SlV2kToInQReuMU+gCcVJl7NWmey5C/HseQEUN3WVT+v861gjFPv22NG1NihWvC3rxW+eqwUw7n2BHDSMtMEwMJu4S1y9bwyj0vMeGLHwFo27UdV/77b7Tv0WG31gGwLZvp307l2Vueomx1qbZtuxS4EXh1Z8yni9BF6CL0RiZ0pQ5rCbwCDEzLTDNH3HwBBccPwhfw7dK/G66p47NXP+G9Z8fE66prPTn5TYyjzjyGY88VmQu7nlWLVvLYdQ+xcMYC0NC3YB8uvvty8ls3263vQ2vN6Idf5+P/fEBtZa0GvgQu1rpkqQhdhC5CF6Fvj8wzgULg8mBGmveiuy6l4C+DdnmUEovE+Hr0F7zz5Jt21YYqlZOfo4ZdeDxHnHY0gfSA2EbYLSyfv4xH//YgS+csQSnFvofvzyV3X0ZOfpPfitfWsDHj4U6msqySF+8Yxfcfj8e27GrgTq1LHhChi9BF6CL0bZW5gZP68kGvz9tqwPCBXHTXZfj8uzYy17ZmyjeTeOOhYr107lKa5OeogScMZtiFw8nIzhTLCLuVCZ//yIuFz7F+xTr8QT/HnnscJ1x6MlprFkybz7K5S6ksqyQRi2OYBv5ggGBGkMzsTPJa5dO8XQuymmThT/tfetgdYerYyTxx/SNUlFbYOAvkjtO6pEaELkIXoYvQt0XoHYHnlFIDO/buZFz2r6vo0KvjrpW51qxduoZnb3kyPmfSbCMtI91z5JlHc/TZQ2jSLFfsIux2EvEEX4/+glfueYlIXYRAepAjzzia5XOXsmT2EmKRKJZlu0UI3LZjGJimgdfvJSOUSfN2zel14F70OnAvuvTtukNRfDQc5ZmRT/Dt+2PRtq4ETtS6pESELkIXoYvQtyZzE7hFKXWtP+jPOvOGv3LMOcdu9x7zRDxBdXk14eo6qjZUUVFaTiwcQxnKyekeyiAzO4uMnExCuSHC1WE+eP5d+6OXPkikZ6X7Dx1WwLALhtOkea5sTRP2nNRjCV66+3nGvv01kboIwfQghsesS0TjVSiUtrVpJS2Pre1MIKGUMgATjYlThwif36ey83I4eOihDD7lCFp0aLnd7+OnT3/gseseIlIXsXCmwu7RuiQuQhehi9BF6FsSejvgfcM0erft1s4Y+cJt5DbfxghZQzQSZeZ305k3ZS5Lfl5E6apSKssqiYWj2LaNQqEMhcfrISM7kybNc+nYqyP5bZvbX77+WaKmotq//1EHcsKlJ9O8fQuRubDHWbd8Lc/d9gzTx03F1jZen3ddPBpXQAYQZMt5EbVSykJhBNODRp9D9ubMG/5Kq06tt+s9hGvC/OOE61m5cAXAp8A5WpeUidBF6CJ0EfqWovOrgLuDGWlpJ115CsMvOnGbEmtYSYvZE2bx7jPvsHDafCJ1EW1bNlprlFIapy40gIHCUiiltTY2doaGYVjBjKAaMHygMfT84bTcgShGEHYV86fO45mbn2DZ3KXOIrjtx1JK2R6vx9N9v57q8nuv2u48Dk/f9Dhfjv4cbeuVwBFal8wToYvQRegi9D8SemvgaaXUkNad2xhXPfB3OvXpvNXjbMvm+4++ZcxTb7Ny4QqspGW7stZsPau7VkrVpGWkpe97eH/zjOvPJq9l/m7d8ysI2/KB9dv3x/Lavf+hYn0FO9ifWkqppC/g8x119hB16tVnbNc2zG/e+opR/3yaaDgaAY7SumS8CF2ELkIXof+R0I8Anjc9ZtuDhx7K5fdehS/g33r0MmUuj173EOuWr9W2ZW+vieNev7f00OMGtDz56tNV83YtxB5CvSQWifHKPS/yjTufvqOfDZRSVm6LXN+Fd1xK/yMP2OYDF81cyP2X3UPpyvUW8H9/ZvuaCF2ELkJPfaEXAdcEM9LSzrrhHIaMOG6rx6xfuZ7n/vk0U8dO0bZlwXbWWTNMQ+93+P76wjsuMXKbN93pVdoEYWeyfsU6XrrrOSZ9NRErucMJ27TpMdl7wD7qxqdHbnOt9dJV63ns2of4+adZGhgNnKt1SVSELkIXoYvQN5e5F3gbGNK0ZZ7nusdvpGu/7ls97vPXPuH1B16lurzaAoztEboyjMrWnVtnXPPQdZ72PaUEqlD/0Vrz80+zePLGRylduR7b3uFS5TrUNFvd8NRN9Ojfa5sOCNfU8cIdo/jmna/Rtp4EnKl1yQIRughdhC5C31zoHYExSqm9uvTtqq578iaatmi6xWMitREevPJepn07dUeG2gnlZleMuOX87ILjBymRudBQsC2bj158n3eefIvq8h2ulaJNj8kJl52sTrn69G1KPKNtzdtPvsnoh4uxktYq4DytS74QoYvQRegi9M2FXgC8ZhhG6wOOOYhL7r6CzJwtZ2ebM3E2j/z9AcpWlSa11tuTCivuC/jso84cEjj92rMIZgQRhIZE1YYqXrrreX78+DvisfgOtjmlu/Ttqm585mZy8nO26ZivR3/JqH8+TTwaqwJuAJ7XumS7hwlE6CJ0EXpqC/0EYJTpMXOPOmsIZ//fCAJpgS1GC1+N/pyX7nqBSF04jmab88KaHnNds7bNm/zzlTu9ea3yxQ5Cg2T+1Hk8/Y/HWT5/2Q5tZVNKWYH0gHn3W/fRrnv7bTpm0pcTeOTvDxCuCUeAh4DbtS5JiNBF6CJ0EfpGmSvgr8BjHq8n85SrT+eEy07eYna4eDTGS3c9z1ejv9BWwrK11tuSSk4rpaqz83LSRtx8vnfA8IFiBaHBYiUtxo0p4eV7XqSmomZHtrJFTI8ZOPmq09Sp15yxTQfMnjCL+y4uoqayJg68AVykdUlMhC5CF6GL0DcK3QQuAe7z+n3p5/zfCI49dxiG8ccJZSJ1YR6/4REmfP6jbSUtDWyL0JNev7d60ImH54y4+XyVliGlUIWGTbg2zJP/9yiTvppAPLrdQ+9h02MG9j/yQOPvj96wTfPo86bO5Z4LC6kur0qi+RBnYdx276EToYvQReipLfQrgHt8AV/a+bdexFFnDdlyaFEb5tFrH2LS1xO0K/StppMzTLO6Q88OmVc/cK1q07Wt2EBICeZNnsOo255myezF2zv0HjdMw+zZv5d57WM3kp2Xsw1/ay73XPyL0D8DThGhi9BF6CL0TYVuAJcC93l93vSLCi/jiNOO2uIxsUiM525/hrHvfG0nk0ntFqPYIulZ6fbl915tHHD0QVuM/gWhIWFZFl++/hmv/ftl6qrqtmfoXSul7M57dzWvfewGmrVpvtUDZnw3nX9f8S9qK2uSwCfAaSJ0EboIXYS+qdAVcC7wqOkxMy64/RKOOfvYrXZiH7/0Aa8/8KqORqJxNFtKKRdRhvIdOqzAvPL+v+H1eRGEVKKyrJInbniY6eOnkUwkt6PtKd2pTxf190duoEX7rWdJ/PHTH3js+oeI1IYTwBhgxI4klxGhi9BF6CkqdFfqxwMvG4aRecZ1Z3PSFadu9Zi5k5xta+tXrbe0rRW/P+xuK6Vq23Rpm3nj0yNVy46tpPcXUpKff5rFU/94jDVLVm9zlG4Yhu65fy/1t4evp8k2VDX84vVPef6OZ4lH4zHgReCaHSmjKkIXoYvQU1voBcB7Sqns4y89ibNvHLHVzG2xSJQnbnyUHz/9nmQymUDz29BbkTRN0zrz+nP8x198khRdEVKWRDzBfx98jU9f/YhIbWRbChNhmAaHDB3AFfddgy+w5Z2flmXx9uNv8OZjo7GSyTBwH3C31iXJ7X2vInQRugg9tYXeHvgOaDnwhMFcWnQF/uDWC7NMLpnIs7c8RdnqUkvr30bpSqlos3YtAne9cQ9NmuUiCKnMygUreOofjzFvylxt21vNnqh9AZ868bJT2JZtazWVNTx/+zN8+/44tG2XA38DXtW6ZLs7dxG6CF2EntpCN4CpQJ9u/bpz49MjyclvstXjwjV1vP7ga3z26sckk8kkmk333iT8aQHjxMtONk+6/NRtqqsuCA0Z27b5/qPxjLr1KWqqapwCwn/Y5pRu0jxXXfPAtfQ+uM9WX3v14lU89Ld/s3jmQq21XoYzfz5uB/tLEboIXYSeqkJ3pf4mcFLTFk3VLf+5k7bbuLVs0cyF3HdpERvWlNlusQoD0MpQ0TZd2gb+9tB1qn3PjtLbC42CSF2EB6+6j+nfTt3SAjltmAb7DNxXXXnfNYSaZm/1dSd9NYGn/vE4FevLbWACcJbWJYtF6CJ0EboI/feEfhHwuMfn9V10x6UcecbR23Sc1prXH3yVT17+SNdV1ybRmEqpmNfvDQw7f7g684a/SiU1oVExddwUnvvnU6xZtuZ3o3SllM4IZajzb7uYAcMHbtM2zudue5ov3/iceDQeB/4DXLEjaV9F6CJ0EXrjEPp+wNtKqbYDhg/kmoeu22YRl60u5d1n3mbC5z/qitIK27ZtWnZoZV776A106NVJenihURENR3nt/pf5vPgTkvHkb4oXeX1e9j60L1c9cO1WiyABrF+5jgeuvJdFMxZi2/YG4AatS178E/2lCF2ELkJPcaG3BJ4HjmnVqTW3vnQH+W2abfPxddV1TP1mEi/cOSpRW1XrOXbEMHXGdWdv0+I6QUg1Fs1ayINX3sfaZWt+s42tVac2nP/PC9ln4L5bfR3bthn37je8WDiKmooajbPW5SytS+aK0EXoInQR+h8J3QCuAe7x+X3+ETefzzHnDN3mKD2ZSPLxfz60X3/gFR3KzTavf/ImOvfpIj270ChJxBO88+SbvDfqHWLhWEJr7XXameLkq07n1KtP32IBpI1UlVXy2PUPM338VKykFQUexNmuFhahi9BF6CL0LUl9H2CMUqptrwN6q5uevYW0rPRtOnbd8rX8+4p7kysWLDMPGnKouuL+q/F4PAhCY2XlwhU8dM39LJ+3zLYsSwEqu2kOd75eROvObbZ6vNaa7z4Yxwt3PkfVhkqttV7pRuff/sn+UoQuQhehNwKhe4FngTP8Qb//vH9exBGnHrXVLWe2bTPmybf06Edft5o0a+K57J6r6HNoX+nRhUbP+6PGMPqR14nURXRWbkidfMWpHHPO0G2KzktXreeZW55k+ripWJYVwUn3eu6OLoYToYvQReiNSOiu1I8AnlZKdey6Tzd10Z2X0rF35y0es3zeMh67/qHk0jlLzILhg9R5/7yQjFAmgtDYWb9iHU/e9ChzJs62h573F3XGtWcrr3/r9Qxsy+KNh1/nk1c+orayRgPzgKu0LvlyJ/SXInQRugi9kQg9A3gEOMsfDPgLhg/kgtsv+cPUlFpr3nnyTd556i3b4zGNy/51FQcec7D05IKAM3r19Ztf8uKdo+xDjhsQu/zeq4Pbcty8yXN4+O8PULpyPbZtR4CngNu0LqkVoYvQRegi9O2Ren/gORS9M0KZxilXncYx5wz93UppG9aUccfZt7J2+Rr6HNKX65/4PwLpQQRBcIjH4tx17m1Ul1dH//HcPwPNtrJ7ZNHMhbx09/PMmfgztmUngO+BC7UuWbiT+ksRughdhN6IhB4ArgBuVobKbtGupTrjurM58JiDfzX3Z1kWn7/2CS/f86L2BfxqxD/OY9DJh0u9c0HYFA3jPxxH8b9f0efdeiH9jzhA/dHvrV+1jtfue5mJX/5ENBy1XWHdBIzRusQSoYvQRegi9B2Rei7wDHCsYRrBtl3bcdLlp3DwcQN+2cq2fuV6Hr/+YWZPmKW79euu/v7IDTRtlScduCBsRm1VLU/d9JjdvH0L+8zrzvH83qK4stWlvHT380wdO5lIXUSjKQMeA+7TuiS2E/tLEboIXYTemITuSn1v4H5goGGavqycTAaeOJgjzzialh1a8cnLH/H6A69oy7LUSZefygmXnSxpXhshtmVTsb6citIK1i1fS+nqUmJ1UUyfSSwcIxFPoG0bpQyi4QiWZeMP+EkPZZD7/+yddXSU19aHn3csmXhCQoAEd3eH0OCF4tKixd3doQSCeynFC5RgRVuKE9zdgxMCJBCXyeh7vj8SaPvd3nuLJExyZ6/FYi0S5n2P7WfOOXv/dvYs5CqYG/es7rh6umHvYJ9p++niofP8tnaPGLtygvTnaymjwcitszfZtXw7dy7eRrZYBIKE1C/Uc4QIfvOJ/aUN6Dag24D+Pwh0JVCLFDGL4oBKoVSQs1BumnZvxsk9J8SN09fwLZBTGrJgOLYiLP9bZjaZeXr3CTdPX+Py/BGQuAAAIABJREFUscuEP31JQkwCFosFBChVSiSFBEIgWwRCyMhCvNM3lxQKVGolji5OeGb3JF/JApSuWYbC5Yri6uGa6Sr0RYdHMbf/TDHyx3GSu5c7QggiX0aybckmzuw9TXKiDpHirBOA/cAgIYIj0sBf2oBuA7oN6GkyOMgAiD9KiVsN0FOhrgBqAEtToS4BqNQqJEmyCCGUTbo3o+3g9jaZ1/8RS07UEXLlHke3HebuxdvEvIlBtshIEqhUKhwc7NBq7XB0tMfR0R4HBzvs7NQoFAosskyyzkBMTAKRkXEkJRkwmy0p8qgS2GvtyZYnOxXqVKZy/SrkKpSbf5LmlRHMkGxg1eQfKVK+KP6t63J8VzAb56wnOjzqz78WC2wCpgoRHJ5G/tIGdBvQbUD/1OZAApXFQexFEk+k4jyRimHEvtfGgForrWoCpUC9KjAtFe6qlB2WhGsWV4Z/P4bilUvYSJfJzag38vj2Iw5tPsCdc7eIjohClmUctBpy5/amUCFfihXLTZEiOcmZ04ts2dzRaNSoVAoUCsW76xhZljEYTOh0Bh48eMGRI9e4dOk+T568IjY2CbPFgsbOjmy5s1Gqemlqt6lL9rw+f5tlkZFMyIKdy7fz4FoI2fPk4NCm/STFJ739sQy8AH4CfhQi+GUa+ksb0G1AtwH9U5qWJBrIG2nAJpAkYmUPLkp1uCDV6zt7Wrcf0+KZceMkFVAOcACuugaKuPcEuwcpeu8dgNxKlUpVokpJxq2ZlOGd7VvQxLyOITo8iqT4RAzJBjR2GrLk8MTdywN7R/sUOVuJ/7lYgdjIWI5uPcSxncFEPHuFbLHg5uZIjRolaNWqJv7+ZciRw+ODMxxevIjk+vXHbN16nNOnbxMWFonRZEalUZMzf05qtfTHr7k/Lh4Z+1bt9N6TrJ6ygoTo+JSriT9gvgf4HjgjRHByGvtLG9BtQLcB/VOatwill5hMzqwm7EpWw/TwOsbnjzFYVGfs0c0B9roGCtOnel7cOMkB6AnMIOXY/Degp2ugiH1PqGtTP6Ovi4er5ttx3fBvXSdj7ZSEIDEukcgXbwgPfcXTu094cC2E6PBokpN0mAwmLGbLO4erUCpQKlXYO9hTsEwh8hbLR5bsnuQqnBvP7J44ODtmuvvet2Yymgi5fJdflm7l4fX76HV6nJ20lCtXkL59v6Jhwwo4OWk/2Rcco9HM/fth7Nhxil27zvDw4Qt0OgP2jloKlilE896tKFKhGBo7TYbsz+cPQpnUbhxxke+WXSgwD1iZ1iC3Ad0GdBvQ08jceUNneQbFHB5gV9YPZVZfDFdPYH7+AGE2hQO9U6H+UbmnceMkBeAE9ESSJiocnF1RqZHjYwRCbgLsf59nSJJ/UWCNpJAqFy5bRBowZwg58vlkiD43G81EhUdyOfgSt8/f4vGth8S+icFkNKGQJOzs1Nhr7dBqNahUSiRAlgUmsxmj0YzRaMJoTAG9JCnw9PHCzcudvMXyUbFeZXIVyo2zuzNKpTJTrCujwcjRbYc5vOkAofefISHImtWdjh1r06lTPYoVy01aHVQYDCZu3nzCli3H2b79JC9fRmERAt98Oandti712jXMkDEbJoOJEV8N5vmDUEgJD1wKDBUi2JyO/tIGdBvQbUD/pIOCIDtP6SOPx9sxCfsqDVC6Z8V4/yrGu5cQRv0zoIlroLj5ETCXgErAGCSpqdLDW2FXthZyQgyGqyeEMOp7ABve5yRAkvz7AQEaO41H894taTO4ndUDTMiCp/eecvrXE1w+eoFXoeGY9EZUKgVeXm6UK1eAWrVKky9fdrJn90Cr1aBWp7TJZLKg1xuJi0siJiaRsLA33Lv3nHv3nhMa+pq4uCR0OgOyEHhm96RWi9qUqVWOQmUK/6MCHNZqMW9i+G3Nbo5uO0xCdDx2dirKly/IwIEtaNWqBsp0OpEQQnDs2HWWLNnN4cNX0OmMODg74Nfcn2a9WuCZI+PpHiwcMo+Tu4+9jWhfIURwn3T2lzag24BuA/qnNgUWGoggvhQ/o83qhX31xijsHTHcPo/x7iWzMOoPACOAx66BwvieMHcGygNLJJWmhMq3AJoi5UChRH85GMvrMIGQm6WeAsj/EOb2wB5Jkvw9c3iphi4eSZHyRa26j8NDwzn7+ylO7j5ORGg4JoMRR0d7Chf2pW7dcjRpUoWiRXPh6vrPysSazSmA1+kM7+59b916SkhIGHfuPiM8PBYXTzfK1CxL/Y5f4ps/Jyp1xioj+/LJS3av2M7ZfafRJehwcdbStGlVhg9vTbFiuVGl8xcVIQTh4TGsXXuAH374lfDwGOwc7ChfuyKtB3xNzoK5MlT//rp6NxtmrMVsNgPsBVp8bAU1G9BtQLcB3QrMniQayz9Rl1/QFCyNXQV/JIUSw82zGG+dQ1jMF0mJfN3hGij+URpL3DgpCzAeaCOp1L7qgqWxK1kNYTajP7MXc8RzEPIBoL1roIh+j915dWCbUqXMVs6/ojR4/lAcnB2tsl8tZgv3Lt1l5/JfuH/lHroEHXZ2avLk8aZz53o0aVKZokVzfTKZWoPBxL17z/nxx9/YvecsUdEJ5CyUm9pt6lK3bT3UGeTONyo8inXTV3Pl2CWSk5LJ4uFM69Z+TJ7ciWzZ3D/ru8myzM6dZ5gwYS0hIWHYae0oXbMs3Sb1xMsna4ZZ87fO3mRO30ASYhMAgoGGQgQb0+v5NqDbgG4DehqalkQay+vwV+7GvlAZ7Mv5gVKF6VkIhktHkJMSBEI+D3QH7v27HXXcOMkeaA70R6GornD1lDSFyqApXA6h12G4chzjoxsgxDBgvWugiHoPmGuBScAwJ1cnTdeJPfmipT+SFeq2x0bGsn/DXo7+cpiY8GiUSgX582fj66/96dSpDnnzZkuzKHWLRebQoSvMnbeNc2fvIiQFZb8oT/PerchXIr9VR8e/eBTG5gUbuXDoHLLZQrZsHowY0Zru3Rvi7OxgNe8ZEhJG165zuXDhHpJCQTn/CnQe0zXDxHKEP33F7H4zeHrnMal+q7kQwc9tQLcB3QZ0MoNSnCCHeMoAeRQeWh32leujyVMEIQTmZyGYHt/G/PIxwmw6CfwI7AMSATMpEev2QEGgCTBIsnfwUuXIi6ZIeZRePmAyor9yHNPjm7IwGn4FBrgGivdaAJLknw/YIElS1dxF8kjDvx+NT35fq+pFWZaJCA1n2+LNXDl2iaS4pNTUquIMGtSCKlWK4uCQ9oFUFovM48evmDVrC7/+dp64eB35ShSgWa8WlK1V3ipT/KIjotk0bwNn951Gr9Pj6+PJoEHN6dmzES4uDta1WoQgJCSM3r0Xcfr0LZRqNdUaVaf7lN44ujha/WpPik/ih9GLOLf/LEKIKKCzEMG/24BuA7oN6GQO6VcJQUlxhnZiAVm87NBWa4TSwxuEjJyUgPH2eYyPbyGSkyBFFnJn6mRWA/5ACxTK/ErXLGiKVUKVqzAKey3CbMIYchn9leNgNp0A2gMvXQPfb1JIkn9HYKFao87yRava9Jk+IEXW04rs7sXbbF+6lVtnbyJbLPj6etGvXxO+/bYeWbO6pfv7xMfrWL/+EHPmbuPVq2hcPd1p3b8tfi38rUqz3KDTs2lhEEc2H0SXmESO7B4MG9aavn2/QmvFkeR374bSu/ciTp26hUqton77hnQc/S12WuvXg9+2ZDNbFgQhy7IFCASmCBEsp8ezbUC3Ad0G9HQwFUa+lH/e3oj1/ur8JT201RohqVJ2c8JkwBweiunRTSyRLxG6JJ0wm8woJCS1nVbp7qVW5siHOldhlK5ZQKkEWcb48AaGq8eRk+JjgIFA0AfAXAOsANq5Z/XQ9AnsT8W6la1nZ26RuXnmOpvm/cyTu49RK5VUrlyEESNaU7t2GeztP9/9tcFgYt++C8yYsZnr1x/j5O5CrZa1admnNQ5WsJs0GUwcDNrHL0u3khAdj5ubI2PGfEOvXo3+caDg59yp37v3nE6dZnHt2iNUajWtBn5Ns54trF7o6NKRC8zpOwOT0QRwA6j0KSuq2YBuA7oN6FZgXuLFyKly+3oKJ9f62hpNUOXI+2cXhjAYkBOiscRFIRLikDR2SE6uKD28UWidUkCe+rvmiDCST+4Rcnz0FVLyXYNcA8V7Ow1J8i8BbESiZPFKJaWB84aS1dc6gpCEENw5f4v1M3/i6Z3HaNRKGjSowPjx7ShXrqB1fOGQBSdO3GTMmFVcufoQrbMjDTp8SfNerdA6aT/ru10/dZV109cQGvIMR0d7WrWqwcKFfa0e5n+2Q4cuM2jQD4SEhOGe1YMeU3pT5ctqVv3OEaHhjG4+jPjoeIAkoIgQwekCJRvQbUC3AT3ddummPkssdUGS5qhy5HN2+KIFkt37O31Zl0jy8Z2Yw5+9QoguwKH33ZmnwlwBdAPmqNQqtzaDvqFFn9ZWk4p19fgVguau5+ndJ7i7OdG2rR/ffdcZT09XqxvbO3ee0bfvEi5cuIdSo6buNw1o1b8tTq5On+V94iJjmTtgFiGX76KQJJo1q8r8+X3w9fXMcOtm374L9Oy5kJcvo8iS3ZPJ66fiUyCn1b6vUW9gcvvxhFy9BwIZ6ClE8Bob0G1AtwE9k5VPXWaptQWYJ6ntemhrNEGdpwjvJcklWzA+vIn+/EGEyXAJaOkaKD4oilaS/B2AtZIktXDxcFEPXzqGElVKWsXO/PmDUJaNWcKTO49xddbSu3dj+vdv9tnTq/6TnT17l4kTf+LkyVs4uDpR9+v6tB7QFo19+t5VG/UGfluzh+0/bMWYbKR48dwsWzaIqlWLkdFk6mVZEBERzZgxq9m0KRiLRVC9SU2+HdcND+8sVvnOZrOZlROXcWTLIWRZBlgCDEmPe3Qb0G1AtwE9fYG+ChgI0iJN4bLYV6yDpPnngT6WqHCST/2GJeoVpEjIrvyQ3Xkq0AsCexVKRYECpQpKUzZOt4qArqhXkawJWMXFQ+dwdXGgX78mjBrVFqfPfIT9T+zChXv07r2I27efoXV2pMOoznzRsna63vuGXL7LD2OXEPbwOZ5ZXPjuu8706PEl6gwmgqPTGThw4BLbtp3g6NFrREbGIcsCrZMDbQZ9Q7OeLazyvYUQHAraz5qpKzEajACHgPZCBEfagG4Dug3omQjoQQF+K+PGSQWBrUrP7GW0NZqkRLz/M0+B4e4lDJeDLcJkWA6MdQ0U8R88eST/HsACewd7p6+6NaPdsI6fPbo9OVHHT9NXc3L3cezUSgYPbsGYMV9bdUT2/99RHjt2naFDl3HnTihevt60H9GJ6o1rkB7bY4NOz8rJP3Ji1zHUKgWtWtVk6dKBVpee9h+mOG/exHLixE02bjzKmTO3iY1NRKu1o2zZArx5E8udu6H4FshJ/1mDKVS2sFW24/b5m8zrP4vYlEItT0jJR79hA7oN6DagZz6g+wI7FC4eFbXVG6PKnuefOTuzCf25/Rgf3tAjy215D2nXv4G5MzAX6JYlu6eq36xBlPUr91k7x2K2cGjTfoLmbiAxLpHatcuwatUw8uTJlqGOis1mC2vXHmDq1I2Eh8eQv1QBek/vT54ieVOUBdLQbp29wZIRC4l8+YaiRXPx44+DqFmzpNX3mRCC+Hgdp0/f5uefj3Dq1C0iImIBQY4cnrRv70/nznU5cuQqo0evxmi2UKdNPTqP62aVhVxeP48gsMdUQkOeASQA7YQI3msDug3oNqBnPqD7ADsVzu4pQP9LtPt/cHpGA7rjuzCHPUhGiFaugWLfR+zOiwIbJIVUrkSVUtLAeUPxzP55A6ZCrtxlVq9AYqNikJDw8HCmbt2yDB7cgkqViqRb0ZBPYUlJehYt2snMmZvRGy2U969Ar4B+uHmlXc68yWDix3Hfc2L3MTRqFePGtWP48NZotdYtTRsZGceJEzdZv/4Q58/fIzIy5dDJxcWBevXK06NHQ+rUKYskScTH62jefAqnT9/C2cOVQfOHUbJaaatrk8VsZl7/WZw7cBbAREoueqAN6Dag24Ce+YCeC9iu9PCuoK3ZFGWWbO8B9J2Ywx4mI0RL10Cx/yOA3hpYqtaoszbu2pSOo7/9ZNrnH2KxkbEsHbWIK8GX8PZ2o1ix3Fy8eB+z2UyBAj707NmItm398PZ2zzCDHRubRNeuczhw4BIKtZqW/dryVbemaXaf/vz+M6Z2nkzM62iKFcvF7t3fkS9fdqvsG4tF5s2bWA4evMKuXae5eDGE169jsVhknJy0lCmTn7Zta9G2bS08PJxR/OkqaNOmYEaOXEnE61j8W9eh89huVqkiFzRnPTuW/YIsywIIEiK4ow3oNqDbgJ75guIaAOvVeYp42VdthEL7z5yRMJvQn/kd46NbyYh3R+4fGhC3COjl4uFi32/mICrVr/JZO2bf+r2sC1yNbLYwZEgL+vdvxowZm9m+/SSxsUlkyeJMvXrlGTPma4oVy/0XB2/NduLETQYN+oFbt57gUyAnPaf2pXjlEmnyrD2rdrF+xhrs7dSMGtWWiRM7WmU/RUTEsHfvBXbvPsPZs3eJjU3EbLZgb68hVy4v2rWrzddf16JwYd+/1cePjIyjb9/F7Np1hqw5vek3axDFKpWwunae2XuKJSMWYEg2AJwCGggRrLMB3QZ0G9AzD9C3AksllaaD1q8Z6tyF3ytYynDzHIarx0zCbBoLfP+BYjLOwAFJkioVKFVQOWbFBNy9PT5bpyTExDOq2TDehEVQoUIhtmwZT5482UhISGbTpmAWLtzBw4cvkSQoWNCHbt0a0qlTXby8XK1+wIUQrFq1n7FjVxOfkEzpmmUZumjkv4jOSEgIxEf14YLBc7l24gqlSuVj8+bxFC1qPbnaRqOJ27efsX//JXbtOk1ISBiJickIIdBq7cibNxstW9agTRs/ihX775Xyduw4RZ8+i4hP0OPfui69pvX9r/2Z3v/26ukrpnaeSERoOMAjoIkQwXdtQLcB3Qb0TAB0Dfp+iywNPJAU41U58mgdarVAsn+/6GPz6zD0p3/DEvPmHNDBNVA8/gCgVwZ+UalVvrXb1KPL+O5oHT9PSpgsyxzbfoRl47/HXqNm2rQu9OvXFLU6RRXPYDBx6NAVZs/eytWrD9DrTXh6ulC/fnkGD25ByZL53v2utVpERAx9+y5m794L2Dlq6fldH6p/VfOTXnE8uH6fWX2mExMRzdChLZkxo/tn7xchBElJeq5ff8zvv19g376LPH0aTnx8Csjt7NTkzZuNunXL8vXXX1CmTP5/XGAnPDyaDh1mcuLkLXzy+TJx3XdkyWZdojlxUXHMGziLm2euA7wBOgkRfMAGdBvQbUDPBEAvJi7OGCiP+ELh4l7Vvmoj1DnyvncqkzCbMNw6i+HaSZDlFcAo10AR9x4wf6sOt8jB2dGh19Q++DX3/2ylP+OiYlkyYiFXj1+mTJn8/PLLRPLm/deYgjt3Qvnxx98ICjpKbGwiKpWS4sVz0737l3ToUNuq5UyFEBw5cpWePRfy/PkbilUuwcA5Qz5pne9jO46ydPQinBztOXhwBhUrft50rhcvIjl//h6//HKSs2fvEBERg15vQpIktFoN+fJlp0GD8rRr50/JknnfO0febLawfPlexo5dgwXoM20ANZr6WVUJW4vZzM+z17F75U6EEEnAEGC1EMEiDf2lDeg2oNuAntaWQzzmWzEzIbfqqZ19xToadcEySMo/dlDCoEdOTkCOjwGTAVQaFE6uKJzdkNR2fwG/nBiH7vguLBHPw0C0cQ0U594D6C7AAiS6ZMuVXTH6x/HkKZr3s/XLjdPXWTx8HvqEJAYObE5gYNd/65QTEpJZt+4ga9Yc4O7dUMxmCx4eztSvX57+/ZtStmwB7Oyss3CHyWRm0KClrFt3GKVGzdeD29O4a9NPBqCFQ+dyYvcx6tcrT1DQWDw8nNO9jfHxSTx5Es7+/ZfYv/8S9+6FEh2diNlsRqFQ4ObmRKFCvjRoUJ6WLauTP3+Oj9IXuHXrKW3bTuPBw5f4t6pDlwk9cHCyrnz7o9sO88PYJVjMZiMwn5Rod0Ma+ksb0G1AtwE9Lc2FaHrJk8gv3UFTsDT25Wsj2WtBCITZhCXyFca7l7BEv0JOSpARMiCh0DoqlNnzoMlXHGXWnEiaVOcnyxhunsVw7WSysJgWANNcA0XyPwR6DmCXQqGoWKJqKSasmYza7vOlNW2a/zO7Vmwnu7c769aNpFatUv8VjGfP3mX27K2cOHGDpCQDGo2KEiVy07lzPbp2bWC1inInTtykR4/5PH4cTomqpRg0b+gnkS/V6/SMaTmcsAfPCQjozJgx36TbTvVt/viZM7f57bfznD59m6dPI0hMTEaWBUplCsgLF/alXTt//P3LUKiQDyrVx18HmM0WOnaaxY4dp/DJn5OxKydZTWGht/b8QSijWwwjOTHZAmwHegkRHJeG/tIGdBvQbUBPK9NgoJbYSTOxGrtsOdBW/wqFsxvCYsEc/hRTyFXML58gTIZE4BKwEtADKqATUF3S2LurfAtgV6oaSjcvUCiQk5PQnz+I6ckdEPIwYLlroPivEbSS5F8L2Kmx17g37d6cDiO//Wx9kxiXyILBc7h+8iqNG1di+fLBZMv2z4LzoqMTWLHidzZsOMzDhy+wWGQcHe2pXbss/fo1wc+vpNXt1pOS9EyatI4lS3Zj7+RA1wk9+KJF7Y9W5wu5eo/A7t8hWSzs3DkFf/+0z8uOj0/i1q1nHDp0hd9/P8+jR6+Ii0vCYpFRKCQcHOzx8cmCn19JvvqqCrVqlUoTtbp16w4xbNiPGMwyA+YMoUoD66vE1rtGN16HRcip67upEMERNqDbgG4DegYzFSYqiCO0EUtx9nTGvkxNVD75kZMTMT25g/HeZeSE2DiEfB5YBxwGogELoAA8gFrAYhRKL6WXj0pTuCzqnAWR7LRY3rwk+czvWKLC40EMBdb+tzQ2SfIfAsxxyeKqGjR3KOX9K36+1XrnMfMHzeF16EvGj2/PuHHt3mvnlpxs4MSJW3z//S7OnLlDXFwSarWKvHmz0bZtLbp0qU/OnF5WJUgTHHyddu0CiY5JpEKdSgyeNwy7j9DPF0JwdNthVk5eRk6fLBw5MptcuT79LlUISE7WEx4ey8mTNzl48BJXrjzkxYsodDr9uyA3Dw8XChb0oU6dMtSrV57ChX1xdXVMsxODmzef0K5dIHfvPadlnzZ0GNnZ6vzAd50mcO3UVYHgMfClEMEPbEC3Ad0G9Iw0MAgKiat0ErPxcjGirfolKu9cmCNfYrxzAfOLxwij/lnq4tsPRP0djOPGSQqgGDAI6ClpHdEULINdyaqgVGN6egf9+UMIg+4M8DXw4t9BPTUgbiPwde4ieaSRP4zFJ5/vZ+ujS0cu8P2ohQiTiXXrRtG8+Yftrl6+jOKnnw6yYcNhHj9+hdlswdFRS6VKhenSpT6tWtWwGi14vd5I06aTOHbsBm5ZPRi7YiJ5i+f74M8z6o1snLue39f9SvVqxTh0aOYnL8ISE5PAuXP3OHDgEseOXSc09DXx8TpkWUYIUCoV5M+fnXr1ytOgQQXKli2Aj49nusj1RkXF06fPIrZvP0X5OhUZ9cO4dC2E809s/Yy17F65Q8iy/IaUIi1HbEC3Ad0G9Ay0My8rTtBenoe9oxqHCv6ofPOnpJxdPIIcF2VAyPeAXsAV10Bh/m+fGTdOcgPqAxNRqkqocxfBvkJtJK0jhhtnMN4+LwujfgvQ3zVQxPwboGcDfgfKVmtUgwGzB6P9TEFEsiyz96df2TRvA16eLhw/Noc8ebJ98OcZjWauX3/E4sW7CA6+TkREDJIE7u7ONGxYgW7dGlKpUuHPDnYhBMuX72XcuLXoko20H9GJJt2af/Cxe3x0HIuGzefm6Wu0aePHxo1jPsl7xsYmcf9+GIcOXWbfvovcvx9GbGwSZrMFIQQKhYRSqcBslpEkKFkyHxMmtKdhwwrpGsMgy4LJk9czfXoQvgVzMumnqXjm8LIqf3B4y0FWTv4Ro96QAAwXInilDeg2oNuAnkGsrDhOO3k+rk4Cu1LVUfnmx/jwBqZHt5Djos0gZgOrgKfvo/QWN06SgEpAbxTKTpoCJVV2pWuAUoX+wiFMj29HAX2BXa6BwvQ3QK8JbJUkKVubgd/QbmgHPlfVE4vZzLrANRwI2keZUnk5dmzeJ9Ecf/06ll9/PceqVfu4ffspOp0BjUZNvnwpwiVdutQnd27vz3oMf+XKAzp3ns3de8+p1qgGvab2xdn9w6Z35Ms3TO/xHeGPXzBwYDNmz+754WNisRAZmUBw8DV27z7LhQv3ePUqCr3exFs/8/bo3NPTJXX3nqLyplQqyZXLi65dG9C3b5N3P08PW7bsVwYM+B5XTzdGLRtHkfLFrMof3Dh9jXkDZxMfHacHZgkRPMUGdBvQbUDPCAOCoK28mC/YhaZoBdS5CmO8exFz2APMFumREvMy4Id/GpX+H3brK1GqWqtzFsSuvD9YzCSf3IMlOiIcIfoDO///lwVJ8u8K/KBUKe0nrJlCmc9YXc1kMDF/8GyuBl+iWfNq/Lxh9CcVQgkNfc3PPx9h27YT3Lv3HKPRhJ2dmmLFctOhQx2+/roW2bN7fJa8ZZ3OQO/eC9m8+Rg58udk2KKR5C6S58M83p3HBPaYij4hkWkBXRg8+P1rhCcl6Tl37i77919ix45ThIW9wWg0p86ZFIhrNGpMJjNCCJydHd6pvKXIlKccu7/9Wbt2/syc2T3dtAG2bDlGhw4zUdtpGDB7CNW/qmlVPuHRrYfM6TeDiNBwM7AaGCBEsDmN/KUN6Dag24D+Ka26+I02YilaFy2SUoUlNpI7ojw3pGqjv5EXLvoQuda/2amXAVahVJVT++RHU6oaQq9Df24/cmLcLuDbP9dKlyR/JSl5sAMcnBwUPxxfhWuWzyedatQbmNplMo9v3GfQwOZMn971k++ak5M+MegkAAAgAElEQVSN3Lv3nNWr93HkyFWePYvAZLLg4uJApUqF+eYbf778siJeXq7pDvaFC3cwceJPKO3t6Rs4gMr1q37Q51w9fpmFQ+eiFIKlSwfQrp3/P/5S8fz5G4KDr7FpUzD37j0nOjoBi0V+B2iVSoksC9zcHNFoVCQm6pFlmWLFcvP8+WuiouIxGs3IsnjXf2q1EicnLYGB3ejWrWG6qNVt3nyMjh1nIikU9J7Wn7pf17cqf/DicRgLBs3h0a2HMvAr0F2I4Cgb0G1AtwE9A5gdydQUe2gl/4ABLdelGuxW9CAG714bA2p9kvuzVKiXBUYhKdqosuVS2FdugOH2OUwPrl8FWroGiqd/ArodKQUiKuTI68O8vYux/4jo6o81Q7KB8V+P5vXTF8yZ3ZNevRqlGVR1OgOXLt1n3bpDHDx4idev45BlGQ8PZ6pUKUrPno3w9y+No2P69cfZs3dp3Xoq0bFJtOjTmraD2n3Q5xzfeZQVk5bhqNWwft0oGjas8J/h8iKK4OBrBAdf48iRq7x8GY3FYkGIlN24Wq3Czc2JXLmy8uJFJJGRcSgUCkwmM56eLgwZ0oq2bf14+TKKmTM3c/jwVQyGP253HBzsMJtlypcvyLp1IylY0CfN+3Lt2oP06rUAWUDXCd1p3KWpVSnGRYVH8v3IhVw/dU0IIc4CnYUIfmQDug3oNqBnEFNipqC4jh4HXkj5MaGB1PKpn+oZqVB3APogSZMUzm4uQpekF2bjLqDfn4PjUguyPJMkyb1645oMnj8clUb12fpHr9MzusUwkqJiWbN6GE2bVk3zZ5pMFi5eDGHnztP89ts5QkNfYzSa8fBwpkKFQvTq1ZgaNYqTJUvaT7Xw8GhatpzKpcsPqNa4JkMWDP+gz9m3/jfWz1yLu6sDQUHj+OKLP4R5DAYTr1/H8vJlFJcu3Sc4+DoXL4YQHR2PwWDGYrEAoNGocXd3okABH2rXLkPVqkXZsuU4W7YcIznZgEKhQAioWrUoO3dOwcvLFSEEe/deoGfPBYSHR797pr29BicnLSaTmcmTOzJ0aKs078ulS/cwdOgyLBbBN8M60rpf24/O7f+kXygTdayY8AMn9xxHluUQoKMQwZdsQLcB3Qb0jG2fFOh/ArszKSlrdVIXwUbXQHH7LxNF8q8OBCtVSnWHkd/SvFfLz7qL0SXoGN1iGOakJDasH0Xduul3n5+UpOfmzSds3nyMoKCjREbGo1Ip8fJy5YsvStO2rR916pTF0dE+zfooPl7HgAFL2LTpGMWrlmLy+oAPetaeVTsJmrcBDzdHfvppJKVL5+P+/RfcvRvKrVtPuH8/jMePw3nzJg6dTv8uKl2lUuLi4oCvrycVKxamXr3ylCuXkm526dJ9vvkmkDdvYjEaTSiVSmRZplSpfPz++3SyZ/dACMGBA5fo3XsRoaGvkSQJIQRqtRIvLzeiouJp2bIGGzeOTfO4yzlztjFu3BpkWfDNkPa0HvA1ksJ6tAcsFgvrAtfw+7pfsZgtYcC3QgQftQHdBnQb0G1A/3dQVwLOgPHvFOMkyX84MEfrqJUGzh1K1S+rf9aOSEpIYnSzYQiDns2bxlGzZvrWsxZCsG3bCcaMWc3TpxF/ieJ2dLTniy9K0aJFDZo2rYKn56ePNTCbLcyfv50JE34iT7F8TNsyE439+6fU7Vq+nU3zf0ajVlCuXEHi43VERMSSkKDDYDC9O05XKKR3x+m5c2elUqUi+PuXolSp/OTPn/1P8JGZPXsr3323AYtFxmKRsbNTYzAYUSqVjBjRml69GhMfr2POnK3s23eJ6Oj4d0CXJIkcObIQGRlHpUpF2LdveppeZRiNJiZPXs+cOdsQSLQf3pGWfdpY1Q4d4JelW9i6aBMmoykaGCRE8EYb0G1AtwHdBvT3nySSvwb4HujpmcOL0T+Op0Cpgp+1I5ITdYxqPgz0yWzfPplKldK3OlhCgo5vvglk376L/N0aSqkKZkfevN7UqVOWZs2qUaRITjw9XdF8oquKrVtP0KXLbLLk8GbW7vnvXVjEbDSz+rvlHNy0HyFSdNPfRp0rFBIajQoHB3u8vd0oWNCXkiXzUL16cUqUyIObmxMODnb/ciqg1xvp3Hk2O3acQq1WYTCYcHLSkpiYnBrtrsLb2x0hBFFR8ajVKuLiEgHpXT/6+HgSFRVPmTL52bdvOm5uTmk2jvHxOoYN+5G1aw+iVCnpMr47X3b+yqru0AEObtrP2oCV6HX6JGCGEMHTbUC3Ad0GdBvQPwTo2YAgwD9f8XyMXzPlkxQF+RhLuUMfjik+nl9+mUS1aumbO3z27B2++SaQ0NDX//KzbNk86Ny5LiEhYezZcxZJknBxcaB06XzUqFGCGjWKU7lyEdzdP66i2enTt2nUaDx2zk4sOvAD2vcUZEmMS+SHsYs5t+9M6nG3Cicne9zdncmZ04ty5QpSoUJBihTJSc6cWfH0dPmvoDMYTHTsOJNdu86gVivR6024uDgQH697twt/awpFymlGQkLyu1MPADc3J5KTDdSoUYK9e6elqab+q1fR9O69kN9+O4/WUUu/WYOo3rim1S38cwfO8v3IhSTFJ+qBn4B+aVFG1QZ0G9CtHegFgcukHCdndGsTFOD3y2cAeilgpyRJ+ao1qsGwxaNQfGZ9c0OygXFtRhIdFsHPP4+mcePK6fZsi0Vm4sR1LFq0A53urxmEOXJkYdOmsfj5lSIxMZlevRayfftJFAoFFouMLMvY22vIlSsrZcrk58svK1KsWG7y5PHGw8Plve6LX76MonSZPsgKFctPrnnvIEWL2cKuFdvZsigIhKDJV1Xo1asRRYvmwsfH84PSAE0mC/PmbWPSpPVIUooCn5OTlqSk5FSgk6oUpwAEjo7adznpfwa9RqOia9eG/PDDwDQdy/v3w+jQYSaXLz/APas7QxaMoGS10la38EOu3GVWn+nEvI4xAQdIKdJiA7oN6P9zQC8HHAecMkFzWgUF+O34DEBvCaxRKBSuLfq0puOobz97Rxj1BqZ0nMDT249YvnwwnTrVTb9nG820bj2V33+/+C7S+60VLZqLffumkzu3NxaLzJQp65kxYzNKpQIvL1eUSiVv3sRhMqXU+HZysidbNncKFvSlQoWClCqVj9Kl8+Pq6oBWa4dGo/63kNfp9BQo0AWDDMtPrUX1ARrs109dY8GQORgSdR+tFAcpUqrBwdf46qsJmM0yZrMFOzs1RqPpL0B/KzTj5GRPYqL+X5TkvLxcWbKkP23b1krTsTx//h7t28/g8ZNX+BbIydAFI8hXooDVLfzwZ6+Y0mkCr59HWIQQF4AaQgTLNqDbgP6/BvQvgL2kpGdlZLMALYMC/PZ8BqBPA0Zq7DWa3gH9qd2m7mfvDJPBxKy+gdw4eYWhQ1sSGNgt3eRY9XojX3wxgosXQ97dOb81V1dHpk79lu7dGxIdHU+PHgs4ePAyABqNity5vYmOTsBkMqPTGVCplO/0zdVqFY6ObwHvQ9GiuShRIg/e3u5kz+5Bliwu2NtrUCoVSJKE2SxTokQPkowy3x9ZjoPz+0/xF4/DmN5tCpEv3tCyVQ02bxr3UX0jhCA8PIbGjSdw48ZjLBb5L3fzb+0tyNVqJSaT5V+AXrduOdatG0n27B5pOpbr1h1k+PAVRMckULRCcYYuHGF1Wu4ACTHxTGo/jmchT2UhixCgalrURU8F+nggwAZ0G9CtEejfkHLnZJfBm6JLBfqBdIa5EtgKNHfP6qEYt3IiBUoX+vzfbswWVk5exuHNB/CrVYr9+wI/WbDZPwF6zZrDuHLlwb+AClLEUYoUyYVOp+fhw5eYzX/s4hUKBZJE6s5bokWLami1dly//ohnz16TmJiM0WhGkkCpVGJvr0Gr1eDs7ICzswMKhURSkh4HBzvq1y/PqlX7sChVzNmzEHcv9/duS8zraGb3DeTBtRCqVC3G/n2BODl9XFS50Whi6tSNzJmz9Z0E7B/zSUKSwMXFgdjYpL/cyavVKV9u1GoVq1cPp317/zQPThsyZBkrVuzFaLJQo0kt+s8aZHXV1iAlTTOwx3fcvXhHyLL8AqidVmVU2088MRBYnEmA/kVQgF+oDeiZB+iDgbmAKoM3JRZoERTgdyydgZ6NFLnJ8rmL5JHGr56Ml0/Wz94ZQhZsX7aVzfM3kiuXFydPzsfHxzNdnm0wmGjYcCwnTtxCluUP6NMUqGm1dixfPoRmzaoSFhbJrVtPOXv2DleuPCQ09DWxsYkkJxswm+V3pUb//Dxvb3cSk5Jx8nBj+pZZZMn+/u1Pik9i5eRlnPr1BHnzZGP37ikUK5b7I3fpcP36I5o0mUhYWOTftv1tBPxbc3S0R61WkZiYTIkSeThyZDYeHmkb9qLT6WnZcipHjlxFqVHRsncb2g5uZ5WLX5+UzIIhc7l89KKwWCxRpNyhn00jn9mflKyWjG7PgfpBAX73bEDPHDBXAHOAoYCUwZsTngr0c+kM9BrAJkmSfCvWrcyA2YM/uLLXp7YjWw+xfMJStPZqNmwYnS5qcZCSAz548DJWr973Fyi9D9CFEGTN6sZvvwVQsWLh/7fDNfPkySseP37Fo0cpf4eFRRITk0BCQjIxMYkIIciRw4PLVx7i5u1JwKYZuH3ADl22yOxd9ysb56zDTq1k9erhtG798VHesiwzffqmd/nob83NzQmLxUJCQvJf9Nvt7TXo9UY8PJz57rvO9OjRCEUa54JfuBCScn/++BXuWT0YMHswZWuVt8rFb9QbWTnlR45tP4LZZE4AOgkRvDuN/GZ34MdMsAl6DTRLb59pA3raAd2JlOP2VpmgOY9TgX4jHWEuAe2B7xVKhVuL3q1oO7g9GjuNVXTIleBLLBgyB2OynokTOzB2bLt0uUcXQrBr1xkGDlzKixeR//j/KRQSCoUCs9mCJEnUqlWK33+f/h/LvsqyQK83kpxswGQyYzbL76qWHTp0heEjVpA1V3ambZmJg/OHVSe7cfo6C4bMITEmnsGDWzBtWhfs7T9+jF++jGLQoKXs3Hn63dWEg4Mdsiyj15v+cpwuSRIeHs58+21dxo/vgLt72sawWiwyq1btY8yYVcTF6yhUtjDDFo0iq6+3VS5+s8nM5gUb+XXNLox6YzIpaWs/pZHf7EBKeWZ7MrbFAu2DAvz22YCeOYCeDfgNKJ8JmnMLaB4U4Pco3SZHSkGWScAwtUZt3yugH3Xa1rMa0Y03L98wpcN4wp+94quvKvPjj4PTPIjq3bPfxDFw4FJ27TqNwWD6lxzrvzM7OzWyLDCZzLi4OLB4cX++/bbeBwNpwYLtTJi4jvwlCzJ10wyUqg+rTKZLSGJKpwk8uvmQYkVzsX9/4Ce7vnj9Opbhw5eze/dZEhJ0//b3HB3tmTixAz16fJkuWvhxcUn07r2IHTtOIYAGHRrRYWRntI5aq1z8skVm7097CJq3Ab1ObwRGA4vSKHWtKbCBjK/dYQD6BAX4/cT/iGV2oBcDzpI5RGXOpR4fvU5HoLsD64BGTq5OyhFLx1C6Rlmr6RAhBNO6TuHq8cvkyZONDRtGUb168XR7/qVL9xk1aiWnTt3GbLagUPyRlvX/15UkSSiVCiyWlN15r16NmTOnJ05OHwaQ+HgdgwYtJWjTMSrUqcSoZR8Xnb7zx1/YsigIi8nMvHm9GDSoxSfrp8TEZC5eDGHdukOcP3+PV6+iU4/cwcPDmWrVitOlSz2++qoKKpUyXcbu4sUQ2rUL5PHjcJzdXRgwezAV61a22sUvhODk7mOsmLSMpPgkMylXid8JEWz41M9KzQzaCniR8W0yMC0owE/mf8AyO9DbpE7MzGCHgaZBAX7J6Qh0n9QTjlLZcmVXTFo/lex5clhVp+xZtZP1M9fioNUwduw3jB2bfkFNZrOFM2duM3bsGi5deoDJZEKSFKlH6yk7dln+QwFNlmUUCgUVKxZi06Zx5M2b7YOf/eJFJC1afsf1G09o1LkJ347r9lFtCb3/jIWD5/L03hMqVy7CL79Mwsfn06kByrJAp9MTFhZJREQMERExGI1m8ufPTtmyBT7JEf/7vMvMmZsJDNyEXm8ib4n8jF816YNiENLTLh4+z/ejFhEfHWcBVgMjhQiOTwO/WRbYA/hmAr/5M9A9KMDPaAN6xgf6aqBbJmnOxqAAv47pOjkk/5rAZkmSshcuV0SaGjQDtZ11pfSEhjxjWrcpxERE4edXkh07JuPq6piu7xASEsbixTvZuPEo8fG6v+zO/3wUr1IpqVKlKIsX96NMmQIfVUXsyJGrdOgwE53RQq+pfanRxO+j2mCxWNizcidBczegViuZOLE9o0d/k+aBaZ/DHjx4QY8e8zl16hZ2DlqadGtGu2Edrf69b5y+zuLh84gKj5KBHaTco79JA7+ZO3UDUSATDPctoGpQgF+iDegZG+ZZgUNAqUzSpOlBAX4T0hnovYHZSqXSpUrDaoxYOsbqOkWXkMTqqSs5vvMo3lndWLVqKA0bVkz3e/74eB3BwddYv/4wV6484PXr2HfBb05OWvLly07z5tVo186fPHm8P+r9LBaZSZPWMX/+drxz52DIwhHkKZr3o9sQFR7J9G7f8fTeE3Ln8ua336ZSvHieTOcbli7dw5QpG4iKiidP0bz0mznosxcb+id2/+o9FgyZS3joK4HgKNBFiOBPLprSfuIJR+A0UDoTDLcRKPi/kouemYHekJSCIu6ZpEndgwL81qQjzCUgEBiqsdfYNe3Rgg4jOltdpwghOLnnOCsm/oDFaKJHjy+ZObN7mpbc/E+WlKTn7t1Q7t17TmxsIo6OWnx9PSlXrsAnC/Z6+jSCb7vM5vTpO9RsWoseU3rj6PLxUeFCFhzeepA1ASsx6Q107lyPuXN7pXk+eHpaXFwSTZpM4ty5uyBJfNn5K9oP74Sd1vp1p57ff8bcAbN4/iBUpMq/thci+HEa+c9DQN1MMuwdggL8gmxAz7gwV5KSR9kjEzWranrmU0qSvxuwEmjh7O6i7D2tn1VWoYIUWcxpXafw6NZD8ubxZsuWCZQr9/lPC4WAT31QIIRg5crfGTt2DUYZ+s0Y+Elr0xv1RhaPmM+ZvadwcrJn0KAWTJ7cCbVameEXkNlsYe3agwwfvpykJD058vkwdOFI8pXInyHeP/LlG+b0m8GD6/cRQtwGWgsRnCaiKe0nnlgK9MskvnMT8G1QgJ+JTG6ZFehewB3AM5M0SQ/kDQrwC09HoBciJcK9sneubNLQhSMpXK6I1XbQlkVB7Fm1EywWhg1rzaRJHVCrVZlubsfGJtKkySQuXLxP0YrFGL5k9CcX+nl69wkLh84l7EEoWbK4MHduL9q180+3CPS0socPX9K37yKOHr2OnYMdDTs05pthHaxGV+G/fnGNTWBOvxncOncDIYvHQCshgq+lkQ8dAizIJMvmDikpvw/I5JbpgJ5aXGAYKXKvmcVuAdWDAvzi021iSP7VgA2SJOUrULoQg+cNwye/9Qa9ht4PZcmIBTy+/ZCSJfKwatVwKlQomKnm9lsxlOHDl6NxdKD3tH5Uqlflk8cLCCG4cfo6s3pPw6A34O7mxMKFfenQobbVaBC8r8myICDgZxYs2EFCQjIFShdk4Jyh+BbImWHaYNQbmTtgJpeDLyJb5BdARyGCj6WRH/UHjmaSpWMCev0v5KNnRqAXICUCtGQmatYmoGtQgJ8h3SaG5N8eWKRQKDwr1a9C38ABuHi4Wi/szBZ2r9zBtiVbUEqCTp3q8v33A9KtAlu6fKu79ZTu3edx6fJDmnRtSsfRXT6oZOo/grosOLzlAFsWBRHzJgY3V0dGjGjDgAFNcXbOWIULhRAcO3aDfv0Wc/9+GK5Z3PhmaEfqfdMAKQNF8QshWDhkLqf3nsRitrwB+ggRnCbllNtPPFEIOEXmyEUHOAHUzezH7pkR6GNJKf2nzCRNEqSotU0PCvBLt8GSJP8AYKhSpXT8stNXfDuuW5rB41PZq6evmNt/Bs9CnuLrk4Vt2yb+i056hp0EAiZMWMuCBdvxypmdUcvGpfmJiclg4ugvh9m8cCMJ0XGo1So6dqzD5Mmd8PXNOLdZMTGJ9Ogxn19/PYdFlvFvVZfOY7ri4pHx9KZ+GLuE4F8OYzaZY4HhQgSnSaBsqsrmbqBSJvGjSUCjoAC/EzagZxyYlyIlf9IrE41RAtA5KMBvVzrCXAK2A43t7O00HUZ2pmn3FlbfURaLhcObD7Bx3gZ0CYl83bYWCxb0wcvLLcNPgvPn7/H119N5HRlPz+/64N+qbrocf1vMFk7/fpKtizbx6tlLEIKiRXOxdOlAqlcvbvUnIG/exDF69CrWrz+EEJC3eH5Gfj+GbLmzZ8h5sHbaSvZt2IvRYEwEJgsRPD+NfKkdsAzomol86e5UXxpPJrVMA/T2E0+4A8tJKcSiyERjFAbUTs+ADkny15ByRFXB0cVJ2W/GQKuNcP//FhsZy7JxS7hy7BIe7k5MmdKJXr0aoVBk3CmRkKBjzJjVbAwKJk+JgoxeNh6H/3LsLVssmIxmLGbLu5KrCoWEQqlEpVahVCn/8RcCs8nM5eBL7Fq5nYc3HiAJmSJFctGvXxOaN6+Gt7f1ZYbKsszz55GMGbOKPXvOotMZyJ4nB13G96ByvSoZdi5sXriRnct/wZBs0AFzhQienIY+dQgpsUiZ5bQzmZRiLbvIpJYpgJ4aCDcUmJ2JJt9bOwfUCArws6Qj0HMCxyRJyuvhnUUau3IiBUpmnACzayevsmLSMiJCX1K2bAHWrBlOyZJ5M+Tgy7LMtm0nGTVqJRaVmu6TelPuiwp/+7tJCUk8fxDK69BwosKjiAyPJDEuEaPeAALUdmq0Tlqc3VxwdHFC66TFzdMN1yxueGb3xMPbA6Xq769VhBCEPXzO+llruXP+FnpdMh4eztSsWZJhw1pRsWJhNBrruJIRQhAcfJ1Zs7Zw9Og1zGYLLu4ufDuuO7Wa+1v91dF/sl/X7CJo3gaSk5L1wDIhgoeloV+tDAQDWjKPnQdaBgX4vbQB3XqB3g5YCGTNhGP0ORTivgC2SZKUJWehXNJ3G6bjntUjw3SY0WBk/8972bxgI8JioVmzqixe3B8vL9cMNfBms4V16w4xY+Zm3kQl0m5YJxq0/xLFn465zSYzLx6FcWzHEe5evsObF29Iik/EnFpiNWU8UyRoJUlClgWyLCMhISkklCoVGjs1rp5uePlkpXjFEpSvXRHfAjlRa9R/ewISvP0IR7YeIOJ5BBICX19PGjeuTMeOdSldOh92n0keWAjBixdRrF69nw0bDvP0aTiyEHj7ZqPjqG+pUr8aKk3GTmU8uv0wq6euICku0Qj8JERw7zT0q2rgAZA7E/lTCyn6GoMyY4BchgZ66s78bSEBn0wIczPQOCjA72A6A709sEKhVDgWr1ySsSsm4uCUsSKbE2MTWDB0LjfPXsfJwY7JkzvRt+9XGSY3PSlJz86dpxg/YR2R0QnUbFKLTqO64OT2h2qbkGV2rdzB0V8OE/E8HIvZgkqZUm/dYpH/BHMFSqUiNY9cYDJZ3gEwpU55igKOQqFAY2eHT34f6rSpR/12X/5tSVaTwcjNszf47afd3L8aQnKiDnt7Dfnz56B165o0a1aNIkVyolarSI8sNyHAaDRx+PAVfvrpEEeOXCE+PhmVWkWxyiVo0bs1JauWyrApd3/ZXh48y9Ixi4mPjjMBW4QI7pTGPvZnoEMm86vJQGdgR2arwpbRge4HrAAKkzntJtAkKMDvWTrCXEnK9cV0lVqlqdmkFn2mD8gQ0pj/3x7fesTKKcu4fy2EPLm9CQzsStu2taz+vaOi4lm8eBcrVv5ObJyOSvWq0m1iD9w8/3pX/fDmAwK6TCIuKu4v//62oMrbUq7/ebyl1D+g0agRQmA0mnDzdGfowpGUrPbv5bzjo+M48/spDm7az8snLzDqjdjZqfHxyUL9+hVo0qQKZcvmT9M79uRkAxcvhrBhwxF+//0Cb97EIQtBVl9v6rSpR6POTf5rvEFGsv9j77zDo6jWOPzO9vSEJPTeq2LjCsJCAEGKgkgNCEgRBKQJYgHbWmihidjL1WvschUbiixNQHqHUEMIkEZ63XbuHzMoF8GahN3N+T3PPmAcsjPnmznvnO98Zd9Pe1g8bSFZaZlu1CCvgULYy2w7LnbOhsHAu4AR/9I51HLa30mgX3uQ64EewCKgEf6rt4EHyjn/PBh4AXjAZDHp+4zpx6ApsT657+hxe/j5hy28N/cdMs6l0aJFHV55ZQo339zIK4Pk3G4Pp06l8Nxz8axatZWCIge3dm/HwMlDqF7vtw6ozd9sYvmsJThLnLhdLm21/U9sr/ZsVxQFt9vDnaP7MnTG8N+tpHbR5b9x1Tp2rt1OSlIKjhIHJqOeqKgwmjSpxW23teC221rQpElNQkMDCQkJ/EfR8S6Xm/PnM9m37xSffrqBzZsPceZMGg6nm4DgAJrd1ILuQ3twXbvWmCwmv5oQju4+woJJc0k/m+YGvketFldmLZVj52xoBvwXaOyH8+sxYDTwk7+s1H0O6Nq+zr0adPxxz/wXHqFGZH5UrjeEElMFtQ5+n8DgQGXk46O5fdAdPlWA43LgfB//LR+/+AEFufl063YTcQvH0aSJ91W9+/rrn1m27L9s3HgA9Hpad7iBMU+OI7Lq/+d8Z6VlcvpIIns27uKHD1eD8OAoceJyuX+zIr/oZv4rz7nZbMThcFGveX3GPTuRRtc1/r99+6uNc9LR02z4Yh17N+0m5fR5SoodKAjMZiNhYUHUqhVN06a1aNWqPo0a1aBhw+o0bFj9T+25FxaWcOBAItu3J5CQcIZt2xI4ceI8OTkFuN0eDCYDNerX5LZeHYi5pwuVqkT6hYv9ciUlnOaFcTbOJ57zAOs0oGeX4XxrAt4H+vvpPHsMtc77Fgn08gW5AtQDngPuBsz4t9KA+vE2a8OaefEAACAASURBVEE5A70+ape6NuFR4cqk+VO5ubNv15bwuD188cZKVr21koKcfG6//UYWLxpPgwbV8YY5//jxs7zzzg+88873pKVlExwRQtdB3ek14i7Co9Qc+uLCYo7uSWDLtz+xb/MeCrLziKoUgKO4hOSz2Xg84pcVthDiF3f7r4FxV7pQ9bgrrdSFEBiMBsKjwomuUYUGrRrSvE1LGrRsSFT1KPT6KyeTeDwestOz2PfTXg5s3UfC7gTOJ57F7XJrvxv0eh0Wi5ngYAsREcFUrx5J7dqVqV49EovFRJUqEQQHWzh1KpV9+05y6FASqalZ5OcX4XK58XgEbrcHRacjKDSQWg1rc1PnW7itZweia1b26RTFP9LZk2eZO87GmWNJHtQMmHuEsKeU8dzbF1jpx3PtedTiXW/5+krdJ4AeO2dDCHAXMAO1R6+C/+uNeJt1bLnfEEpMS+ATFJpWqVWVaYtm0PTm5j4/mAW5BXzz7iq+fHMlrhIHMZ2uZ+nSCdSrV/WaFEcRQlBQUMzq1Tt4443v2Lr1EAWFDirXrELvkXfRoU8ngsOCcTldJB4+xdpP17Br/Q6y07MICzbRoW0dhg5ozk9bT/PGe3vIzin+PyBf6jpXiw3yi0teZbu6b36lfXadDkKDzTRsGE1mdgnp6fk43QJzgJlajepwU8wttO/dgajq0VdfBQvIz80nKy2T/Zv3svX7LZw/dZaC3AKcDicet+eX/PiL52s06n95mXA6VXAL4bn05kRv0GO2mAmPrkTtxrW5uXMbmt3cnOgalX06He1Pk+f0eRZMeJ6TB094gJ2oHdeSynj+jQa241/R7pcrF3UL95V4mzVVAr1sbiQzYAUeBjrif4EZV1M2MORaBGwoSkxX4B1FUWrUaVqPmcsf8eqmLH9FToeTL95YyVdvf0FORjaNGtVgypS7GTasC6Gh5Rc45XZ72LBhP++//yOrVm0lMysPg9FEq3bX0WvEXbTucIM6w2Tm8P0H37F+pZ2UpPMYjQpNG0Yy9t7WdLytNgEWAxeyiljw4lb++3UCJQ73/wFWCIFOp/slSM7j8fyyIhdC/AL2S9PbAKIiAxk+qBVj723NqaQcdu9PY+OWM+w9mELGhUL0RhP1WjTgngkDuK5d6yumt/2G7x5B+rk0Th9J1P48TVpyCtkXssnNzKUor1AFvcdz8f0DRSuEYw4wExYZRuUaVajVuDYNr2tE7cZ1qF6vxp/6br9y2yWnEjd5Pgm7DntQg2YHCGEv06JTsXM2GFBrfEz188WUQC2oZQPWlWftD78FeuycDTqgGtAWtR/vjUAYFUvrgLvjbdbscr8hlJhRwEJFp4to0aYFM196lLDIcL8ZWEeJg3Wfr+WzFR+RdjaNoEAzHTtez/jxvWnfvgXh4cFl9t05OQUcPJjI++/b+f77HSQnZ+ARUKV2Vdr1aE+P4b0IqxQOCiQeOsnK1z5jp307juJiqlYOpm/PxvTr3YTaNUJ/gTTA+dR84l76mR/XnyInr0Trw66g0ymXpKb9kd1VV3idmqGMGHI9/e9sSkCA4ZeVfUGhk1Ons/jkywTW/5REakYhkdWi6TqoOz3v7U1A8J+vPSI8AofDgcvhxO1y43Q4KSkqoaSohMK8QooKClEUBaPZhNliIjgshMDQIExmE0azEaPJ6Jf7439GGeczWDo9jv1b9grgMGqU+8FymJfbobrdK/v5EAsgB3Xb8S1gjy+B3SuAru2P61DTz2KB21Fd62YqpibE26wvX5MbQomZA8zS6XVBbbreyowXZ2Hws1WQy+li3097eOvZ1zl38iwgqFq1Ej17tuH++3tyww0NS7X3d1FRCdu2JfDhh+uw2/eQlKRGZAcGB9Ky7fX0HN6LJjc2w2Q2IYTg5IETvDv3LQ7vPITicdOscRTjRt5ITPvamM1XditfyCzio/8e4rNVRzidlIPbI9DpFEwmI0FBFjweDw6HC5dLXcUbjQZKSpw4nWptDbPZwPUtKzNh1E20vbkGRuOVr7+wyMmGzWdY/sYOjp3MJCA0mD5j+tFz+J1YAi1Ila2y0jJZPmsJu9btFEKIY8BgIey7y2GONqLW+7ijAg33GeBDYDlwpjybY/kc0LXoyYYaxNsCPYFm+Fcd9r+jI0DHeJs17RoBfQUwymgymmP6d2XC8w/67UBnp2fxzXtfsebD1WRnZCOEIDo6DKu1FUOHdqZNm6ZUq1bpb60Gi4sdHD2azIYN+/n88584cOAUWVn5oCgEhwXT/JaWdLjLyi1dbv2/6mVHdx/h5dkvceboacwmHXd1b8T4+26kds0/1xksLaOAdZuS2PTzGdZtOk1+gRNFgcBAs1boRcHhcFJc7EQID8FBJpo2imRQ3+Z06ViX0JA/9w59Kimb5xdvZvO2s+jNFu4c1Yc+Y+7GHCChXpbKzczh5cdeZMvqzQLBKSBWCPvP5TRn9wA+BQIr2LBnA++hRvvvKc804lIDurZvovyd8njailuvrbBNgEX7VAVaoFZ3awnU1Fw4wfJRBcAJPA3MvRZuHq2ozPvAPeYAs+GuMXcz9KHhfj3gLqeLkweOs27lWvZs3M2FlAsgPEREBHNdq3r869amdO92Mw0aVCc0NICAAPMVAe92e8jLKyQjI5effjqIfd1e9uw+QeLpVAoLi9Hp9IRHR9CgVUPa3tGOlm2vJywy7P8iss8cS+LfL7zFno27CAkyckeXBsyY1IZK4X+9lHZRkYs9B1L58rtjHDicxvnUfJxODwa9jshKAdSuFUaLJlHcdH1VGjeMpEp04F9+cUk4nsny13ewZkMioVERDJ46jE79Ovt1lPm1Vn5OPiseXcbmbzYJIAkYJoR9UzkBPUqbH7pVwKEXqMVodqO647cC6fE2a76vAP0uzb2SA+SjlssrQM2PLgAc2qE6IAgwoBbxDwZCgRDUNqaRGshraD9X5GN59YUPYI23WZOv0eo8HPgY6BwYEqgfNnMEPYffWSEG3u1yk3z8DD9/v4XdG3aSfOIMxYXF6HUKEeHB1KlblRta16d164bUqhVN7drRVK4cgcGgY/v2oxw+nMSGDfvZfyCR1JRMCoscKIpCQFAAVWpXpcW/WtGm67+o16IBAUG/BbSjxMHrT7zMpq82oHhc3N2rCdMntKFSxD/ri+H2CFJS8zmZmE2Jw01IsLoiDwstnd2spOQcnnhhI9t2nyOyehUeevER6jWvL5/kMlJRQREvPbKUTas2gOoSHi6EfV15fX/snA19UFsr6yu4KZJRG72sB7YBe+Nt1mJvBvps1Gg/NIhfzH8Rl/wdDdC6S+CuQ7rN/9ZiEZgdb7POu2Y3gxJTTwP6TaGRYcp420Ta9WxfoYzgdrkpzCskYfdhEnYd4dShk5xLVNOtXA4nOgRGowGz2YhOp+DxeCgoKMHhcCKEQkBIIBHREVSvV4NajevQ5IamNGjZgIDgwKtGZHs8HrZ8+xOvP/kyhbl5WNvWxvaYlaqVfcNxdTIxm/kvbsG+KYkG1zdh9BP3+1R3Pl9SSVEJLz2ylA1frAM4C4wQwv5jOQLdAKwGOktr/DJvF2oL313aZzeQAmQCGUBeeeW3/1mgS5W99gD3xNusJ68h0G8APgAaR1WLVqYvnUnzNi0rrEE8bg85mTlkpl4gOz2LsyfPkpacSkFuPo5iB26XGwEEhwVRvW4NomtUJqpaNKGVQgiPiiAoNPhPVdjLTs9ixWMvstO+nWqVg3lutpX2t9ZC50OR3EePX+D5xZv5aftZWrW9ngnPTya6ZmX5VJeynCVOVjy6DPvnP4JaEGWEEPYfyvMctFX6W0AlaZGrQj4DSEctEJYOJGqr+oufC9rHc9kiWVyyWL64mL5U4vdeDiTQvUex8TbrB9fUXaPExAD/BmrWaFBTeeSV2dRqVFtapoy18cv1vP7UKzgLCxjcrzlzZnTAF7OyLmQWMW76t+w7coEuA25nxKOjrri9IFWqQB8phL1cuzFqAc0vAWOkRf4x+LO11X0W6lZ2IeoWtwO11WveJVAXwDfxNutqCXTvlQDWonZVK7qWJ6IoMb2BNxVFqdygVUNmLH+UqrWrSguV5RPtdPHaEytY++kaatcIZuHTXbnhuio+ez1ffX+cp+dvAnMgk+ZOobX1RmnkUpSj2MFLjyxl/X/toLp1RwphX13uqw+1actqoJa0SrnJAzwZb7M+K4HuvUoBBsfbrOuvMcwV1L7HyxRFibiu3fVMjpv+m8YgUqWr1DOpLJoyn+P7ErizeyOeerhDqQWsXQslJmUz4wk7+w6n0y22B/c9PqZClGQtL5UUFbN81lI2frkeIFUDerlXlNT20qeg9tYwS8tIoEupLpXZwPxr3RRAUWIMwIPAMzqdLrhtj9sYZ5tAaKUwaaUy1NE9CSyeuoDM8+k8MvlWRsZe59PXU1ziwha3mY9WHqLhdY2YumgG1epWl4YuJRUVFPHizMVs/mYTqPuzI64F0DVGBKLmpfeQlpFAr+gSwA/AvdeqiMxlQDcBTwLTdHpdQNeB3Rj52GgCQ4KkpcpQR3YeYvG0heRfyGTekzH0ur2hz1/Tstd38NIbOwmvEsm0xTNp5gfNfbxFhXmFLJu5iK3fbQY12Orea+Fyv4QT7VBz0+tK60igV2QlAz3ibdYD3nAyihITCCwBRugNelPfsf0YNHUoJrNJWqoMlZSQSNzk+Vw4l8JiW2e6dqzn89f0+nt7iHtpOwEhgUyaN5Wbu7SRhi4lFeTks3TGIrb9sPUi0IeWd5T7ZZxQgHuBd5A1RiTQK6iygcnAf7ylPrCixAQDbwN9DEaDceiM4fQZ0w+dXpYUKEsVFxbz4szF7LJvY/yI1jw49iafbjwiBCx9dTsr3tpFUFgwE+ZOoU3Xf0lDl5LysvNYOj2OHWu3gepyHyyE3X4tz0mLen8ZGI5aYExKAr1C6TngWW+oLHQJ0MNQi8p0MZlN+tFPjqN7rNwaKw/ZP1vDW7bX6NGxFvOe8u16Hdk5xcx5YT3frjlJZLUopsQ9RIt/tZJGLiXlZuay9KE4dtq3gxoU17+8Sr/+AdRroTYyaSetJIFeUeRCLdwyJt5mdXjTiSlKTATwFXCrJdCimzh3Ch3u6igtVg4qyi/klceXU5CUwIr5dxAd5bu9L7749ijPxm0iM7uEVm2vZ9K8KUTXkAVmSks5GdksmR7H7g07Qc1Dv0sI+w5vODctlW0lasMtKQl0v5ZAzdscE2+znvW2k1OUmGjge+C6wJAg3fQlM+XeZ7mu0n/kHdvLPPeolV7dGvgmbHJLuO/Br9h3MJWAkGAGThpM7/v6yG2b0vSApGexZHocezbuAi0ORwi7V8ThxM7ZoAO6o+6ny7c4CXS/hvlPqBHtid54gooSUxf4FoUmIeGhyiOvzKaldJWWm5KOnuaZ+56gQY0glj7XkcpRvpVdkJfn4OW3d/L6u3vwoNC+VwdGzR5LRGVZHbQ0lZmWyZLpC9m7aTeo3dY6C2E/4U3nGDtnw2hgARAhLSaB7o9G2AIMAZK9JQjuCkBvAXylKEqd8Ohw5Ym3bdRv0UBar7xuEo+HZTMWsePHrXRpX4tJo2+kft1wrw6QKy5xkZlVzOkzOXzyxWG+/uE4Lreg6Y3NmbroISrXrOLTAX5eCfTUCyyetpB9m/eA1p1RCHuyN51j7JwNRmAkEIfadVNKAt2vVubj423Wg958oooS0wZYqShKtahq0coz8c9TvW4NacFy1KFtB3jtqZdJTUzmpuuq0q93E26PqYfFbECnU/5yfXchBG63wOXykJpeQPqFQrJzisnNc1BU5MRiMWA06gmwGIiqFED1aiGEh1pQFPXfutwCp9NNicNNcbGLoiInmdnFZGQWkZFZRPK5PI6dyOT4qSwuZBai6PW07nAjg6cMpUHLhtKgZaALKRksmb6QfZv3AhwHbhXCfsHbzlOrJDcbmAkESstJoPu6XMC3wKh4mzXD209WUWK6AvGKokRXrVOdFz5ZQES09JiVt3Zv2Mlbz77O+dPnMBt1NKofwfUtq9C0USSREQEYjTp0ioJAILTagopOwWBQMJv0BAaYCA4yciGriN37Utiy7SxJZ3PJyi6ixOHG5fbgcLhxuwQmkx69XsHjUaGv1yuYzAZCg02YjHo82guBw+lWb2iXCnmXy4PT5cHtVk/AZDZRo35Nusf2oMvAbuj1emnIsgL6eQ3oW/YCHAZuEcJe4I3nGjtngx41PfdJQJaclED3WRUB8cBj3lAF7k8CvS/wpqJTKtVqWJv5ny8iIFi+WJf7E+v2cHDbAVa99V+O7DpMYX4BegWMRj1Gg+7XlboQXHx0dTrQ6XUYDTrMZj06RSG/wInTDRERIYQEBxAUbCEoyALA1i0J5OYVcvPNjWjVqh4mkwEFSEnNIiM9l+ycfPLziykqKiEnt5DCghIsgRaMZiM6vR6DwYApwERIeAhR1aJpdH0Tbux4EzXq18BgNEojlqEyzqezZNpC9m/dB3AQaCeEPddbzzd2zgYzMBp4FrmnLoHug3ICjwGvxtuseb5y0ooSMxR4SafThdVr0YAFKxehN8gaEddKmakX2LdlL5u/3sTZk2fIzcrD5XDi8XgQAhRFK8ulKCg6BafDiXB7iIgIpkaNKDp0aEmHDq1o2rQ2YWFBBAdbCAw0c/58Jn36PMnRo8nMmTOMWbMGYjD8uqIuLCwmJSWLzMw8srMLWLHiS776ehu39bLSvlcH9EY9JrOJgKAAQiuFERYZjskiqwmWG9DPpbN42gIObjuAEGI/0EkIe6Y3n7NWTW4U8Dwy+l0C3Ye0B3gCtWet25dOXFFixgKLdHpdcNMbm/HCxwtABjRdUwkhcDqc5GfnkZKUQm5mDiVFxbicLhRFh96gVzuZKfDte19x7thpli55gL5922E2G/8P1BeVlJRG795zOHLkDNOm9ePpp4djuQqQHQ4XkyYt551//0D32B6MeWI8ik7eE9dS6efSWTx1Poe2H0QIsRvoLoQ93dvPW0tpaw+8BjRGlomVQPdilaA2WnkMOOCtkex/APRJQJzeoDe1uvU6nv7P89KqPiKnw8nSGYvYv3Eny5Y+wLBhXa4aXX7+fCa9es3mwIFTjBvXm7lzR//iir9cRUUOJk58kXff+5HbenVg4guTsQRa5IBfS6CfTWPR1Pkc3nEIIcQ2oI8Q9hRfOHcN6jcALwJtABlsIYHudToNLEJ1sZf46kUoSsxs4Bm9waDcFHMzj7/+pLSsDwF9xWMvsvXbTTwyayCPPz4Ene7KxVwuXMilV6/Z7Nx5jOHDb2fx4vGEhgZeBeglTJjwIu/950dusN7ElIXTZTvda6y0s2ksmjKfIzsPCSHEdqCfEPazvnQNsXM2VEX1ZI4DZNUhCXSvUC6wFjU1IyHeZnX58sUoSswSYLLBaFBu7d6OmcsflRb2EblcLt55/k1++OBbYofE8OqrU67obgcoKCimV6/ZbN58kEGDOvHiixMJDw++4rGFhSVMnKgCvfktLZka9xBR1aPlgF9LoCenEjd5Hgm7jwghxC4N6Em+dh2xczYEAWOB6UAtaVkJ9GslASSgNlj5b7zNmu8PF6UoMa8Do40mo9Lhzo5MiXtIWtpXnnK3h89e+ZhPX/qIjh1asmrVMxiNVw5o9HgEvXvPZs2a3fTv34GXXppERETI1YE+aTnvvbeGhtc1ZtqiGVSrW10O+DUG+sLJczm6O0EIIfagNmc56YvXorngOwELgdbIfXUJ9HLWQeDfqK0CC3xlr1xRYnSAEMIufueYeGCI0WykS/9uPPDcJGltX3nDFAL75z/yxtOvUL9OZbZuXUrg7+x1Dx36Ap99ton+/TuwfPmk312hT5q0nHffXUPdZvWYtngmtRrVlgN+DZV6JoWFD87l2N6jQgixDxgghP2YL19T7JwNIcAc4D4gSlpZAr0s5UJtgvAf4F3gpK9EsCtKjAI0Qm1pmAhsFsLuuArwPwXuNllM3DG0F6Pn3C8t70PasXYby2YuIiTQxIb1cdSrV/Wqx86Y8RorVnzJoEGdWLp0wlX30C8Feu3GtZm25GHqNKkrB9t7gH5AA3qCr19X7JwNFsAKzANaALKggQR66S58gGOonYM+8NamKn8A9AjgcWAYsB0Yf6UAGq0X+udAZ3OAmTtH9eXemSPl4+NDSth9hEWT51GUm8dnnz1Bly43XPXY1177hpkzX2PYsC7Mnz/2qlHuhYXFTJy4nPfe+5GajWoxffHD1G1WTw72NQb6gklzOb7vqBBCHAIGCmE/5C/XFztnQzQwAZgIyIANCfRSUSbwNPAJkBpvs3p88SIUJSYEeBR1n2ol8JoQ9pwrHFdd+/9tzIEW+j8wgIEPxsrHx+cm+hdISkhk6ZIHGDeu11WP3br1MIMGPceoUXfw+ONDrhpAl59fzIQJy4iPt1OrUS2mSaBfezsnpbDgwRc4vu+YEEIcAQYJYd/vT9eoNXdpihoJ3xUIl5aXQP8nygfWAW8AX3mbi11RYoxAfeA6oBJg0l5CdgphP3LJcQoQCVQBzglhz7rK72sEfAa0CggKYNDkWO4e118+Pj6kkqIS4ibPZee6Hcyc0Z+nnx5+1cC4xMRUhg+fz9ChnX8X/Lm5hYwfv5SPP15P7cZ1mbZkpnS5ewPQJ73A8f3HhBAiARgshH3vZc9zKPAvDYRpwD4g+/diaLwU7MHA7aj769ch89Yl0P+hBLAeWAqsjrdZi64RwAOBmqgBI1FAT6CLBmojanRoLqrb/BEh7Nl/8fe3Rt1DbxAYHMiwmSPpNeJOOXv6mN5+7nW+/vcqeva4hddem0rlylde2LjdHp544t+0a9ecXr3+ddXfd+FCLmPHLuaLL7fQoGVDpi2aSY0GNeVAew/QjwFDhLDvuuRZDkD1yj0AmFH7ShwG3gI+vFIMjQ+A3QwMBsZrLyoVNRpeAr2UlKWt2J8H9pdHARltdV0X6A60BZpoMA9F7TFsRA3Yc2qGzkZ1mz95Jbf6H3zXrajbCzWDQoMY+dgYug2+Q1rdx7T20zW8/vQr1K8TzYcfPkaLFldfTX/33XZq1oymZcurH3P2bAajRsWx5sfdNLupOVPiZlClVhU50Nca6L+63E8AsULYt1/yLFuAqaj70BGARVuYJKG2Mv1SCLvb165bS3GrCtwLzKBiRsNLoJeyMlDT1hbE26ypZQz05kAcaonEUH6tqOTRIJ6CWm72IGrp2Wxg199JYVGUGCvwMVAlKCyYMU+Mo/M9XaW1fUyJh0/xwrhncBUW8dprU7n77tuueuyRI2dYt24v99/f86pV5Y4eTWb48Pls336UGzrexOT50wiXLXW9CeingKFC2Lde9jxHaPPGjcA9QEvAgNrO+QEh7Mk+CHQFaAY8BNxNxezcJoFeBnIDJ7TV+uel0VFNUWL0QAPtAbwFqAM0BxpqIM8GTqGWmU3SPj8B+zW4CwAh7J6/+f2DgFeBsODwEMY/M4EOd3WSlvYx5VzIYfkjS9i3aRdjx/Rg2bKJVz12585jzJr1Bu+//yhVqlzZNb9r1zGGDp3L0WPn6NinEw889yDmALMc6GsJ9P+Pck8Ehglh33yV59qAWrDlddQ96HzULcR1wEbgiBB2r+4IeQnIx2ir80iky10CvQyUB3wJzALO/91IeEWJCdfeOEeh5oyHam/Teg3Up7SV+jrNQ5AjhN1ZCi8RCqrrviOqK64doA+JCGXi8w/Stkd7aWFfe9N0u/n8lU/4cMn7tL21GatWPUNYWNAVj7Xb9zJhwjJWrbLRsOGVq7+tW7eXe++dR0pqDneN7svwWfddtemLVPkBXctDRwP6vULYN/3Oc25CrcQ2CghE3aYr1BYHK4ElQO7fXQyUMcwjUPfOp16yuKnIkkAvB50AnkLNVf9Le1NaWtlj2sMWpQHcARSjutFPAq8A75fmA6cF2XUERqKmtEVqLxCERYbx4Pxp3NLlX9KyPqi9m3bz7JiniAgL4j//mUXXrjde8bivvtrKhAkv8tVXNq67rv4Vj3n11a955JE3KXa4GPnYGHoM6yUH2LuAfg4YJYR99R88761QXdUdUbNiAjU4FqL2o1iD2vr5wNUyYcoZ5CagG2p0+y3IkrAS6OWsbOBt1L31839hhXw78BJQT/sdu1Fd6Ye11fgp4KwQ9lIJwlOUmGDgZmAQarBddb1eMZmMeqXE4cbjEURERzB18Uxat79BWtUH5XQ4mdVvOkkJiUyYcCdz546+Yr/zL77YzOjRi1i1ykbbts1+O3N4PDz44Eu89fZqgiPCeGjJwzRv01IOsHcBvQTYgJpeu04Ie9pVnnsdagpbU9RtvU5AjPYzN2ok/AVgG/AesOaP5hxFiTGjBtwVlobHUGPORff6VGAAMv9cAv0aSgCrgIfjbdY/LMWo7ZuPB57VVuMvAu8KYT9T2iemfdcNGsjvAmopChaTUa/UrR1ORLiFXftScDjcVKoSyUNLH6blrddJi/qo1n62hteefJngACPvvjuLO+64+TfHvPLKV0yY8CJPPnkvU6fe/RvXfEJCMj17Pk7SmXRu7HQzk+dPIyQiVA6ulwD96J5fphgXaq75FuBNYL0Q9sI/mA+iUbfZ+qKmvppRt/ncqCWipwPfXSkaXkuLuwm1TGtd1Bz3r4Wwn/qHMDcD/YBnUOOJ5KpcAt0roH4OGAGs/6OWqooS00x7Ez0GfCKEvVRbsGolXVugNj3ohJrLbjYYdErlqEC6dqzH0AEteTt+L59/lYDD4SaqWjQPLX2YFm1aSWv6qBwlDv6z8N98/e8vaVC/KpMn96VPn3ZERASTnJzB22+v5s03vyPjQi7BwRZuaN2QsWN7cv319TGZDJw/n8mbb37Hhx+uo1LVSB5a9ghNbmiKIudY7wD6ZBXoer2CwaDDoXrXXKheva2oPSfWC2HP/IMVdn3UdNh62vxwG2o6bBwQJ4S94LJ/UxU1x70/quveBlw6JgAAIABJREFUCOQA3wPThLCn/A2Q6zTPwfOo9TVkDXcJdK/TGdQ+6R/E26zO33moFM1t5Sit3FDNvRaKmrbSD+igvUlbdDpFFxxkommjSIYNaEn7W2sREW5hymM/8O2a4zidHirXrMKMpbNoelNzaUUfVsa5dFY8/iIHt+0jKNDMjTc0pHLlcE6ePM+BA4k43YJbu7cjYfcRMs6lER4WRNVqlTCbjWSk55CWlo0Hha4DuzHq8fvRG/RyUL0M6BFhZtq2qcnxk1kknc2luNgphMABpKLui3+GGtVe+AedFhXUHO8RqBk2HwGbLl9gaKm0y7QVuluDr1Fb1Q8Wwr7vL8LcAtyJWma7CTLoTQLdi5WH6k5fEm+zlnl1pkseyq6obvW2qIF2JkVRlACLgdo1Q+nbqwm9ujagZo1f3adjp37Dup9O43J5qFanOg8tnUXj1k2kBX1cKafP8+6Ct9m7aQ9F+QVcfNKDw0PoeFcn7n34Pnas3cbnr3xC0rHTuJwuhBDodDrMARZu6HAjQ6YNo1ZD2TLVm4AeN3kuCXsSqBwdyMJnuhAeamHV6mN8u+YEaekFOBxuIdR01nTUWhXvo3Za/CNXvB4IAAqu9AKgrerbobrE01Czcm5A9TCuEMKe/hdgHgHMRW0cFSgtK4HuCyoCXgAWx9us+X9xlR2IWjwhBKiurbKroEakB2krewOqm9+trcqrag9bGGDU6RTFYjFQr3YYnW6rQ+9ujahfLxyT8f9XW/c+8CVbtifj8UDNhrV4aMks6rdoIK3nB8pOz2L3xl3s27yHvJw8gkKCad3+Bm6OuYWQiFDcbjfnTp5l+9qfOXfqHCVFxYRGhlGncV1u6dyG8KgIFJ10tXsN0JNTVaDvPkLlKBXo7W+tRVGxi/2H0vjvN0f56eczpKQW4HS5hRCUAGeBTaiBu/v+SSS7NjchhN2jpcSFo2bl5P2ZWvFa4Ftb4DlU76F0/Uig+5TyUaPfn/kTD4tFe+Ntjbr33UyDdIQGeKP2AOj4NWhEueQDoOh0CiaTnhrVQritTU0G9GlGowaVMJt+++wIAYPHrGTn3vN4PFCveX0eWjpLrsr8TCVFJZQUlWA0G7EEWn6TTy6EwFnixO12Y7KY0OvlPOuNSktOZeElQF/wdBc6tK31y//PzSthx94U3v94P3sPppGdU4zbLQRq4G0SYEd1qf9U3nXdY+ds0AO9UfPiG0prSqD7qtyo0ZsLrtTgRXN1DUDNC79eW2GbNHCjKCgI3IqiuIwmvUEBvcvtweMRCCEQAhRFwWBQCAu10LBeBJ071KFrp3rUrR3+u6FMJSUuBo1eyf7D6QgBTW9qzkNLHqZyTVmzW0rKK4E+ZR4Juw4THRnIgqc7Y23325fvoiIXW7Yn8/EXh9m9P5XMrCLcbg9C4ETtzLgD+AK1YFViaaWe/Q7MQ4FJqPvlBmlJCXRfVy5qEZnXLg2U0/alYoCXgRrazf4Lg/V6BYvZgMViEEaD3h0cZNSFhph1gQFGAgIMmEx6jEY9ZqOesFAzLZtHc32LylSrEoLR+McxJnn5DgaNWUnCsQtCgNK6/Y1MX/wwYZFh0mJSUl4I9Lip8ziy8zDRkQHMf7oLHdtd2ZsmBGRcKGTDliS++/Ekew+kkpNbctEV79TmpARgM2rVy/0aNCyo3sCLXsGLueolqHvzxUDxn23Hqu2XLwCGIPfLJdD9SJmoueefxtusQlFiqgCxqHWKm10EuUGvo0rlIJo1jqJ2zVAa1I2gVs1QIsIthAabMJsNGI16DHoder2ifnQ6DAblL5fmzMgsYsjYlZw4lS0UnaK07X4bU+NmyJrdUlLeCPSzaSyaOo/DOw4RFRnAgqe60PG2P94ey8ouZtPPZ/h+7Ul27k0hK7sYh9ONxyM8gENRyFAUZbeiUOjxiGpCEIEaIKfTQFKCmqKWjhoEtwfYBRz9vQyd2DkbagGLUctbyyh2CXS/U7qzpOTuTxc8b0DN6bwFCNPpFH1wkIl2bWrSu1tDmjaOpHJkIGazAb1eh6LjN3nApVFW+1xKHrH3f0FScq7Q6XVK1wHdmPD8ZFmzW0rKGyePs2nETZvP4e0HiaoUwPynO9Pptjp/jgZCUFTo4vCxDLbuOMuBQ+kknc3hQmYxF7IK8XgQigI6nTrTCG2VjxAX/y6ECoyL9eDPAF+hFsRKuIwfCmp++cuowW8S5hLo/qmC7Ow9P7zzRmZRfl57RcFoMuqVWjVD6de7KQP6NKNSuAVdOUUWn0zMZsSELzmXmo/eYODO+/oy8tHR0khSUt4I9HNpLJq6gEPbDxAZYWH+012IaV/nL/8et1uQlV3EhawiUtMLWL32JKlpah0Zk0n1/gmgpMRNUbGT3LwSsnNKyC9wUFjowOH0XFzd56DWg58hhD3xEpjXBj5BzVmXMJdA919lp6Wy+fNPnDkZ6QazSa/UqR1Oh1trUr9OBNFRgdSoGkLdOmEEBpR90aQDR9IZO+Vr0jKKMAeYGTZjBHfe11caSUrKK4GezuJpCzi4bT+VIizMf6oznTvULfPvLSx0kpJWQPL5PA4lpPPTz8nsO5hGXr4DIUQRahOpp4Ww58TO2XAdahnam6XFJND9XvlZWfy86r+kJSWKi7niOs3FbTLpiYyw0LRxFEP6Nefm1tUwGssuhWjHnvM8MOM7srKLCQoNZkrcDG7p3EYaSUrKC5VxPp3F0xdy4Od9VAq3MP/JznS21i3Xc3C5PKRlFPCfjw/wwWeHyM4tFkCCoij3D378qRTUQjZyZS6BXjHkcjrZ/cN3HN+1E0URVAoPoFbNUAqLXOTll1BU5MTtFkRGBDDm3tYMHVB2Xa5++jmZyY+sJifPSUTlStjen0uN+jWkkaSkvFAXUjJY8lAc+7bsuWZAv6is7GImPryabTvP4vaIvLDoym/0HDexNWpdeBmEI4FecXTu+DG2fvE5zpIiatUIFa8u6qHUrB7KhcxCzqcWUFzsJCTYTPWqwVStElxm57F2YyLTZ68hv8BJjQa1ePrd54isGiUNJCXlhcpMvcDSmYvYs2kXERrQu5Qz0PPyHZw6nc3ajYmsWn2c02eycbuFs37rG/P/1btPuIS5BHqFk6OoiK2rVnL+xHH0Cq6JY24yjB3eulz2zS/V6rUnefipHykoctPkxmY8smI24VGyDbGUlFcCPS2TFx9ezK71O4gINzPvyc507Viv7Ocrp5us7GJ27DnP+k2n2XswjXMp+RSXuHG7PQA0uOEmbul5pzSSBHrFkxCCc8eOsnP1NxTk5FCrRoj7qVkd9OUR4HKpvlp9nEdsdopL3NzarR0PzptKYEiQNJCUlBcqKz2Llx5Zwva12wgPU4F+e6eyA3pBoZO9B1JZuzGRrTvOkXwul/wCBwoKwUFGdHqdJyu7WFEUndLk1ra07ny7NJKXAr0Rah7hpTKiliXVozYDCdD+Owy1aUgUaiWgi58gIFg7TrphLpPb6WTP2h84tXc3wuMSbW6srjw1qwMN61WivNLAV36dwOzn1lPi9GC9qxPjbZMICAqQxpGS8kJlZ2Sz4rFl/LxmC+GhZuY+2ZluZQT0M2dzmbd0C7sPpJKVVYRHCMwmA5WjAmncoBK33Fid+M8OXzh+6kIlo8mi3NyjF3VatJJG8kag/x1p+YcBqM1EwjXAR6J2CWsONEZtPBItAa89oKmp7Fz9NelnkrBY9HTrVJ+HJ99K9aoh5fL9n355hDnPr8fpEcTc3ZX7nxqPJVACXUrKG5WTmcMrs5ez+btNKtCfiKFbTP0y+a7tu88xb+kWcvMcRIRbaFAvnOtaVKFFkyhq1QglKTmXSY/84Ek+l6MLiYjktn4DCK9SVRrJX4D+J2CPBvI6qDmKVqAV0BKoVFEhn5F8hu3frCI3Ix2jQeGG66syKvZ6OrSthcVc+n0MhIDMrCKOnczkzf/sZe3GRBSdjq4DujFmzjjMgRb56EhJeaHysvN49ckVbFy1jrAQFejdO9cvs+9zuz243ULrC6H84jksLnGxcPnPxH96gGKHh9rNWnBT956YA2Wp9goB9KtAXqet4OsAHYF+qG1DQysS3IXwcObwIQ5v+YnstBSPXqcoVSsHKZ2tdYm5rQ4tm0cTHGj8JR9dNZm4whCpndeEUMs8etweXG6B2+3B4XSTll7IsZOZJCblcCghg2MnMklJz6ekxI3eoKf7kB7c99hYWcddSspLVZCbzxvPvMraz9cQFmLmhTkx3NGlfrmegxCCLdvO8thz6zhzNheD2cJN3XtSp0UrWTL66iAuARyozW0u/lkAXECttpel/VmE2jTnYhW+y7vg7Yi3WXd5JdCvAHgDauexQUB/1L35CgJ1wYWzyRzYuC4v5eRJN3hCDAadLjTErFSvGkLzxpFUqRyM0aADBQwGHTqdgl6vu0h4PB5wuT04HG4Ki5zk5TnIyS0mM6uI7NwScvJKyM93UOJw43J5EEK4AbcQGA0mg9JjaG9GzLoPk0UCXUrKG1WYX8jbz7/BDx99R0iQkReeiKFHlwbleg5nknN5esFG1m9OQqCjar0GtO17D0aznDc0FQOJwAngFHAOte59GmpzmzQg80qttP+pvArol4Ddgtp97AngdtTguopAdRzFxc4d33394umD+6sAbdACDRUFo6IoigKKolPQKaDodFxe8v1iQwUhBMIjLq7WhdY33cOvrRDTUdslBgBdjCajsdfwOxk2YyQmi0k+klJS3kiKwmLenf8237y3iuBAI3OfiKFH1/IDenZOMU/M3cDaDYkUFrupVK06N97enaiatSuqSbKBsxq4t6F2oNuvrb5LtI8r3mYtF9B6JdAvAXsY0EcDez0qSilBIV5euWTBnOKCgvrAxWyDmkBV7ROKmj0QyK/903WXc12Dt0t7Y8zXIH4C2KndfEnAaOBRo9lounNkX4ZOH47R/P+58AoKar+la/uzi93mfO1n3jB2/vyzinRfOIodvL/oXb5483OCAgzMe7JzuQE9M6uIFW/t4qP/HqKw0EVgaBitOnWmdrMW6PR6KogEqhv8APAtsB44DpyJt1ld1/rkvBrol4A9EngYuB81et7fdRLoE2+zHviNwZQYBaimveDU0OAeClg0uIO6R1OIuheTq4H8HHBOCHvRJb/LAswBZprMJmOf0f0YMnUYRpMRKSkp75PT4eTDZe/z6YqPCAgwMP+pGHp2bVjm35t8Lo8XlmwuWLvxdIDD6dYFR1SiRfuOFQnmHtQe8KuBeOBwvM3q9raT9Amga1APALoBcUB9/DtozgXMjLdZl/wpIyoxem08Ln48gEcIu+cP/l0A8DQw1WQ2Ge++vz+DHoyVQJeS8taJweni0xUf8sGy97GY9Mx9MoY7uzcqm6WoEOTmOTh0NIMXX9vOzr0pbpcbfaVq1Wnyr7bUaNwEvd7g70NehOpCf02D+XlvBLnPAf0SsN8EvAi09fMbaWe8zVqm7QcVJSYIeBaYaDKbjPc8MJCBEwdjMEqgS0l55TLR7WHla5/y7wVvYTLqsD3aiQF9mpbud3gEScm57N6fyuq1J9i64yy5uSXojUaq1GvAdZ06ExZd2d8j2oUG8qXAF/E26wVfOGlfBPpFl/M7QGfUqnX+KCdw6++lKJQC0IOBucA4k8VsGDhxMPeMH4jB6Pdv3VJSvkkZIVj1zhe88cwrKAq0a1OTwXc3p17dcKpEBREWasZg+GuhRiUlbrKyi0jLKORQQgabtyVz5NgFzqfmU1DoRIAnNDJSNG3TVl+reUtMFr+uU+EBjgKLgE+B7PIKaKuQQL8E7PVQ9zL+hX+63wVqLf2nLr2hNPe6EXALYXdeBdQKv+6tZwphL7jKcaHAfGC02WI2DHowlrvH9cdgkECXkvJWffOfr3jlieUIj8Bo0IngYJMSGRFA/boR1KsTRo1qodSsHkJUZCARYWYsFiN6nYLHI3A43eTnO8jMLiY9o5CUtHzOpeRzMjGLM2dzycwuprDQidPlEUIIJ5AWUbXaybZ9+rUPjYrSKYpfxyUXaRB/Hjgab7N6fO0CfBboGtRbAB+hFqPxR60HBsbbrGkagC2aV6IDalrER8Bp4BYgWQj7ae24aGA2aurfz0CcEPbsKwA9THsTHWG2mPVDpt5L3zH90BsqTMSqlJTP6dv3v+aVOcvxeDxCUTgBmIQgWqdTLDpFUQxGHWaTHpNJj8VswGjQae5xgcutQt1R4sbh9OBwunC7BG6PQKgw8GhgOw/8FBAS8lHvByaPNphM/f18WM8B04D/xtusDl+9CF8Hug61EM0X+GeuejZwe7zNukMDcH3t7bEbapraPtSUiXYatF/XjmsMfIAaPHgG6C+E/egVgB4OLAGGmQMs+qHTh3PXqL7o9RLoUlLeqtUffMuKx5fh8Xg8wNvAu0AnoD3QAKikKAQg0KP8ks56qRfz4rTv0T4Xs2IuprVuBezA4cGPP9VcUZRPUDNq/FVbgFnAJl9yr/sd0C8B+2JgMv6Zp/5gvM26XANwA2CZtkq3oLrls4DPgAVC2I9pxwUCQ1DL6R4Hlgthz7wC0CNQAwwHWwIs+qEzRnDnyD4S6FJSXqwfPvqO5Y8uxePxCFQv3WhtVV1NA3oT4EagLmphqiDApM2PHn4tO5qDWhTlBHAQtbpZkhD29Evm1vnATD8dSqHBfHS8zXrEHy7IX4BeDfgEuM0Pb7pv423WnhqADcBAYKT24OZpD/R8Iezuy2CtoBaecQphv6ILSVFiIoHlwABLoEV/74yR9B7RB52+YtTvkZLyRf342Q8sm7noItDXoHrgci979i8Wm9Jr88DFOhUXK0UWan9Xi0teIcU1ds6GShro/bWF2npgcLzNmuIvF+QXQNduvsGorid/y7k6AbS7bB+9LmrluEzgiBD2wr9lfCUmClgB9LMEWvTDH76PXvfeJYEuJeXF2rBqHXFT5+FxewTwE3DnlWJk/uF8qgD3Am/44ZwKsBsYU5ZZRBLo/+wGDAM+Rt1f9idloQbGrSl146tAfxXoYwm06EfMGkXPYXdKoEtJebG2r93Gc2Ofwu12C9Qyzt2EsGeV8nwajJoafI8fDmEucEe8zbrF3y7Mn4CuoHZpexPVxeQvcqOWvV1c2gEbWjT8a8BdAUEBuhGzRtFjaG90Ogl0KSlv1aHtB3g8dhYul+ti8ZMuQtgz/uFcoAcigGIh7PlaBtFaoLKfDV8ham+Qxb6YllZhgH7JKn07akMTf9JbwAOlnU6hKDGVNaDfGRAUoBv5yGjuiO0lgS4l5cU6cfA4M/tNxelwCiABuF0Ie/I/mAd0wE2ovTIOCGFfGjtnwxjgdT8cvh9QPZ7Z/nhv+BXQNajPAZ7xMzvtAjrF26x5ZQD0N4BeAUEBuvseGUP32J4S6FJSXqyTh07w8D3TKCkuEaiNnHpczHD5E898CGrEe/bFQFpFiTGiBtvOAr7rO3XGYwHBIauAO/xs6DKBnvE268/+em/4I9Dbo+alV/Kjy8oDGsTbrOmlDPQqqFsUPQKCAnSjHhtLt8E9JNClpLxYiUdOMWvAdArzCwVqYaneQtgPXvZshwN1tLlDB9QCbkVtxawHvgRWCWEv0qLio4HGwIkhs58OAr5H7ejoL/KgxgtNj7dZiyXQfQfoVVDL97X3M1vdHG+z7iwzoAcH6kY/dj/dBt2BovPrpgtSUj6tM8eSeHTwDHIycwSQDPQRwr77smd7CvAAv7ZUDgJCALMGt/XAdCHsB64wh/ZHDYjzp2JduUD7eJt1vz/fG/4IdAW1xeo0P7PViHib9d0yAPpbwB0BwYG6MbPv5/aBd/h7FyUpKZ/W2VNnmT30YTLOZwjUkqX9hLBvu+zZnqHNgZX5teCWG7WoTC7wHfCcEPbjl82fOmAeMMPPhu1j1Jxz4c/3ht8B/ZI3zE/87LKejrdZnypboI/j9oHdJdClpLxYKUkpPBY7k/SzaaDWXO8vhH3zZc92DWAY0AMI10CeBBwAjml/Hrq86FTsnA0m1GI1HfxoyIqBYfE262f+fm/4K9Crobqi/GkzOD7eZh1aykCvqgG9e0BwoG7snPF0HdBNAl1KyouVfi6dxwbPJDU5BSFEKjBICPv6qzzjIahdFx3AhStVhLts7gzTVv3+lPq7C+gbb7OekUD3TaCbUHva1vGjy/oB6BNvsxZJoEtJVVxlpWfxyMCHOH/6HEKINGCwEHZ7Kc2dbYHNfjZkL6P2xHBLoPsm0A3A1/hX1bifNaCnlhXQ739iPF36S6BLSXmz8rPzmNl/GmdPJiOESAeGCGH/sZTmzvEaAP1JfeNt1i8qwr3hr0DXoXYlm+hHl3VQA/qJsgP6A3Tt3w0UUFAQqPfGxb/78s8UrXvk3/2ZHAs5Ft4yFo6iEqbfPZmko6cRQmRqK/QfSmHeVDSYj/OjebMAqH+xF4YEum8CXUEtkvCCH11WInB3vM26p6yBLlfoUlLeK5fTxfS+D3Lq8EmEEHnAQCHs35XCvBmIGkzc04+GaxvQOd5mLZBA922o34da1tTgJ5eUqgG91BoKXB7lLoEuJeX98ng8zOg3hWP7jiKEKEKNcv+mFObMGsDnQBs/Gq43UctmOyXQfRvo/YF/4z/RmjlAv3ibdW0pA/2XwjJj54zn9gEybU1Kyts1a+B0Du04iBCiBLhHCPvXpTBntkCtstnAT4ZJAI8C8/09/7wiAL0n8D5qDqY/qFAD+upSBvobQE8JdCkp39HsYbPYu3kPQginBvRVpTBn3gqsAqL8ZJiKgbHxNut/Ksp94c9Aj0GtDuQvN6cA7om3WVeWItB/bc4igS4l5TN69v6n+PnHLQiPcAPDhLB/WApzZlfgG8DoJ8OUCQyKt1nXSKBLoHuj7om3WT8vZaCr7VMl0KWkfEYLp85lw6p1eDweNzBRCPurpTBnDgQ+8qNhSgHujLdZd0igS6B7o4bG26zxpQj0aNQORH0CggN1Y2ePl6VfpaR8QCtmL+O7D77B4/F4gIeFsMeVwpw5DnjFj4bpDHB7vM2aIIEuge6Nuj/eZn29FIEeiZp3eo8EupSU7+i9uHf49OWPcLvdAnhSCLutFObMmcB8PxqmU0DHilDyVQJdAv0i0JcDAwKCA/VjZ4+T3dakpHxAX/37C15/9hXcLrcAXhDC/ngpzJk2YLafAd0ab7MmS6BLoFcEoEegVtQbEhAcqB8zexzdJNClpLxeG79az6KH5uN0OAWwRAj79FKYM+eiFuSSQJdAl0D3QaCHA0uAYQFBAfrRj4+j+6AeKDoJdCkpb9bWHzazcOpciguLBfCSEPYHS2HOfAmYIIEugS6B7ptADwPigJEBQQH6UY/ezx1DeqDodEhJSXmvdq7fwYIpz5Ofky9QA1sn/lFr1D8xZ74MjJdAl0CXQPdNoIegBsGMCQgKMNz3yBjuiO2FTgJdSsqrdWDbfuZNeo6s9EyBWu1xohB2hwS6BLoEesUFejBqA5vxlkCL4b5ZY+gxrLcEupSUl+vwzoPMf/B50s+nC+BdDej/qAGJBLoEugS6bwM9ELABD1oCLcbhM0fR+9670Okl0KWkvBvoh4ibNpeUMyke4FNgvBD2LAl0CXQJ9IoLdAvwJPCQJcBivPehkdw5sg86vV7OmFJSXqwjuw6zcNpcUpLOe4CvgTFC2P9Rz28JdAl0CXTfBroJeAx41BxgNg2bPoK77rsbvQS6lJRXK2H3YRZOm8f50+c8wBpgtBD2fwQuCXQJdAl03wa6AZgBPGW2mM2x04bTd1Q/9AYJdCkprwb6niPETZvHucSzAtgIjBTCfkoCXQJdAr3iAl0HTAZeMFvMliFThnH3mP4S6FJSXq6jexOImz6PsyeTBbBVA/pRCXQJdAn0Cgp0DerjgCUms9kyZPJQ+t0/QAJdSsrLdXz/MeKmzeXMiTMC2AUMF8J+SAJdAl0CvWIDfTIQZzKbDYMfjOWecQPQGwxyxpSS8mKdOHicuGnzSDp2WgD7gHuFsO+XQJdAl0Cv2ECfDTxlMpv0AyfFMmD8ILlCl5Lycp08dIK4afM4fTRRAIeAYULY90igS6BLoFdsoD8JzDGaTPqBEwYzcMIQDEa5QpeS8mpSHT7JwulzSTxySgBHgaFC2HdKoEugS6BLoD9hNBl1/ccPYvCkoRLoUlJersQjp4ibPo+TR04IBCc0oG+TQJdAl0Cv2ECfAzxlNBl194wdwODJwzCajHLGlJLyYp0+mkjc9HmcOHRcIDilAX2rBLoEugR6xQb6o8CzBpNR13dUP4ZNGyGBLiXl5Tpz/DQLp8/j+IFjIEgEYoX4X3vnHSVFlT3gr6o6TWZmGIack4IIKgaUxhFFFDFHxBUT5oQ5YGoDKrqG1XXR1XVX2ywmMNsSVFQUJAgoeWAyTJ7O9X5/VI2y/NRVGYae7vud0wdmHI5nXr26X91X990X+EKELkIXoae20K8GpjmcDuPoScdxxlWTcLldEjEFIYHZtKaYB666lx+WrALFRlvon4nQRegi9NQW+iXAQ4bTMI6aeDSTrj0Xl0eELgiJzOZ1m3hwyn2s/G4FKIqxltznidBF6CL01Bb6ZOAxw2E4xp42jnNumIw7zS0RUxASmJL1m3ngqvtYuej7ZqFPVCowV4QuQhehp7bQJwEzDIfhPPyUIzj3pgtE6IKQ4JRuKOGBKfeywhL6Jlvoc0ToInQRemoLfQLwjGEYrsNOHsvkqRfgTvNIxBSERBb6xhLuu+xuflzyA0opEboIXYQuQgdNKzoR+I+u655DTzqcC269SIQuCAlO2cZS7rnYx5rlq1FKyTt0EboIXYQOmlY0HnhR1/X0Q08YwwW3XyxCF4REF3pxKXdfeAdrvl8tVe4idBG6CP0noR8GvKrpWvYhxx3Kxb7LROiCkOCUbyrjrgtubxb6Blvon4vQRegi9NQW+khgpqZp+UXHHcold4rQBSHxhV7Oneffytrv1yj4qbGMdIoToYvQU1zNi0iyAAAgAElEQVToewGzNE3rOOroIi6750oRuiC0gQzdd96trFu5VgFrbaFLL3cRugg9xYXeH/hI07RuBx3p5Yr7rsaTLkIXhESmZP1mfJNvbT4P/UesoriFInQRugg9tYXeEZgL9B1etK927cM3kp6VIRFTEBKYDavWcecFt1OyfrOchy5CF6GL0H8SejrwOTBk0PDB2tQZd5DVLksipiAkMKsWr+Tui+6gqrRSAd8BZygVWCZCF6GL0FNb6DowD9i/58De+t3P3UtOfjuJmIKQwCz9cgnTLvFRU1WjgK+BvygVWCVCF6GL0FNY6LbUZwNjCrt2NKa/9hB5HfIlYgpCArNo3jfce9ld1NfUK/uBfJJSgXUidBG6CF2E7gdOzG2f63xg5qMUdi2UiCkICcxXnyzg/sun0dTQqIAPgLOVCpSI0EXoInQR+qPAeRnZme67/jONfkMGSMQUhARmzlsBHrnhQUJNIQW8AZynVGCLCF2ELkIXod8I3OhOc2dc9cB1HHjESImYgpDAvPrESzz30LNEw1EF+IELlAo0iNBF6CJ0Efok4EGH05F79g3nccxZx0vEFIQEZsYdjzPrubeJRWMKmAFcqlQgKkIXoYvQReiHAv/WDb3T8eeeyKTrzkXTNImagpCg3HfZ3cyfPZd4PK6AB5QKXNMCMVOELkIXoSeB0PcBntc0rf/BxxzCJXdd8VO3OI2fxa5Q/+97v/b91vheIvy/ZSxkLHbFWNw48VqWfLEY0zRNYKpSgbtF6CJ0EboIHU0rGgj8B42999x/qDZl+rUUdO4gaZAgJCBmPM6Vx13KmuWrMU0zjvX+/CkRughdhC5CR9OKOgFPAWO79+2uX/3XG+g7uJ9ETkFIQGqqarjqxMso21iKUioKHKNU4F0RughdhC5CR9OK0oBHgEl5hfmOKfddw17efSRyCkIiWmrlWqaeeT3VldUopRqBA5QKLBWhi9BF6CJ0NK1IA24BbkjPzHCfMeVMqXQXhARl0fxvuPtiH411DQqoAvZQKlAuQhehi9BF6M1SnwQ84nQ7s0YfdxiX3TNFIqcgJCAfvfoBj93yMOFg2ARWAKN2tKmMCF2ELkJPLqEXAS8YhlG4+/DBTHt+OpouW9cEIZGIx+O8+o+Xef6hZ4lFYzHgJawucUERughdhC5CbxZ6V+ADTdMGFnbrqN374oMUdCqQCCoICURjfSNP3fUEH77yPqZpNgA3Ao8pFTBF6CJ0EboIvVnoOcCraBRl5WQZNzx2C0NHDJMIKggJxJbyLTx07XS+nbcQpVQFcK5SgbdbKGaK0EXoIvQkEXoa8CBwlsvjck+++UKOmHCUdIwThASiZP1m7r7oDtauWKNsYZ2hVOBzEboIXYQuQt9W6AZwHnCvbujZY089krOvn0x6ZrpEUUFIEJYsWMz0K++lqqxSAd8AJykVWC9CF6GL0EXo20t9DPCMpmmd99hvCFc9cJ10jBOEBOLdF2bxzLQnaahriAPvAqcqFWgUoYvQRegi9O2F3h+ranbPwq4dtesfvZkBQwdKFBWEBOHJO59g1nNvEQlHwsAzSgUubMGYKUIXoYvQk0joHqyzlcdnZGc4zphyFkefeaxEUUFIAMKhMPddfjdffbyAeDxeD9yuVOABEboIXYQuQv81qU8DLnM4HWmjTxjDZXdfKYVxgpAAlG4oYdqld7J62Y8opUqxKtxni9BF6CJ0EfqvCf1Y4AlN1woH7DmQ6x69mcIuhRJNBWEXs/izb3nw6vuoKqsCWAKcrFRglQhdhC5CF6H/mtB3A15AY0hBxw7aFfdfzbAD95JoKgi7ENM0ef+ld3n6nhk01jeaWAVxk5UKlIjQRegidBH6rwm9AHgUOCktI00/7dKJHHfOiRgOQ6KqIOwiIqEwT9zxOB+/9gHRSDQGTAfuaImWryJ0EboIPXmF7gAuBe4xHIZ771HDue7hG0nLkP3ogrCrqK+p5/Zzb2blohXNLV8vBJ5XKtBiAVyELkIXoSeZ0G2pHwa8oGlaXucenbVbnvTRrW93iaqCsItYs/xHfOffRmVJhVJKlQFHKxVY2MIxU4QuQhehJ6HQ2wGfAEPSM9ON826+kMNPOUKiqiDsIt59YRZP3fUEwcZgHFgIFLXkcrsIXYQuQk9eoWvAM8AphsPwjDlpLOfedAFpGWkSWQWhlYmEwvxz2pO8+/w7xGKxEPA81pGpLRq8RegidBF6EgrdlvpfgAc0TWvfb0h/pky/lu59e0h0FYRWpmxjKX+9bjrLvlyCUqoKuFqpwLM7IWaK0EXoIvQkFfoQ4F/A0Jz8dtq5N0xm9AljJLoKQiuzaP63PHTddCpLKhSwDJikVOBbEboIXYQuQv+9Qs8B/gac6nK7HKPGF3HFfVdL1zhBaGX8j/yH1558hWBDUxx4A7hAqUCVCF2ELkIXof8RqV8ATNN0Ladbnx7c9k8fHbt1kggrCK1ENBLltnNvZskXi4nH4o2AT6nAvTspZorQRegi9CQW+h72GA7IzMnULrr9MkYdXSRZuiC0EmuWr+bOC2+jYlO5UkptAiYoFZgvQhehi9BF6H9U6DnAP4DjHQ6H89ATxnDOTeeTkZUhkVYQdjKmafLhK+8zw/c4wcagCcwBTlEqUClCF6GL0EXof1ToOnAG8FdN03K79unGdQ/fRJ/d+6L4ed5oWBn7rvpeqv6/t/1eql+HZByL+pp6Hr/lUebPnkM8Hg8CdwAPKhWIiNBF6CJ0Efqfkfog4AVgUHpWhn76ZWdw3DknyrK7IOxsG61cy7TL7qR49UaUUsXAX5QKfLoTY6YIXYQuQk9yoRvADGCCYRievUbuw5T7r6Fd+1yJuIKwE5n59Ks899dnaWpoMoGPgROVCtSJ0EXoInQR+o5I/QTgYaBLQecOXOK7nOFF+0mWLgg7ifraeh669n6+/HgB8Xi8Aau6/b6dHDNF6CJ0EXoKCL0n8BRQ5Pa49UNPPJwLbrkYh9MhkVcQdgLLFy7jwWvuo3RDCUqpH4CJSgW+FqGL0EXoIvQdFbqBdaTqXZqupXfq3pmpT9xOzwG9JPIKQgsTj8X59wNP8+a/ZhIOhRXwBHD9zlxuF6GL0EXoKSJ0W+pDgNeA3p40jz7xykkce9bxGA5DIrAgtCDVVdXcds5NrF72I6Zp1mMVw73RCjFThC5CF6GniNCdWMVxp2i6ljZkvz25YtrVdOwuneMEoSWZ+06Ah294kKaGJgV8BRyhVKBahC5CF6GL0FtK6BowFngc6JGTl6NNvOJMjjrjGInAgtBC1FXX8vgtjzB31hyUUg3ALcDDSgVMEboIXYQuQm9JqRdgdY47ynA4nMMO3IvrHrmJzOxMicSC0AIsWbCY+6+cRlVZJcByrM5wy1spZorQRegi9FQRui3104EHNU3rkJOXwwW3XsLIcaPQdV2isSDsAEop7p9yD3PeCmCaZgy4D5jaGtm5CF2ELkJPTaF3BZ4EDnM4Hcb+h47gYt/ltMtvJxFZEHaAVYtXctt5N1NTVd0so5OUCnzTijFThC5CF6GnmNAdwNnAvZqmtcvrkM9Ft1/KiMMPkogsCH+ScCjMU3c9wWz/O5imGQf+DlynVKBJhC5CF6GL0Hem1DsCLwEjHA6HY79DD+Bi3+XkSjtYQfhTLP96KbefN5X62nqAUmCsUoElrRwzRegidBF6qgndlvoVwE2aprVv37E959xwPt6jDpZ2sILwJ7Lzh6+bzqdvB1BKxYD/AOcpFYiL0EXoInQRemsIvQfWsuAYh9NhDB6+Bzc+fitZOVkSoQXhDzBv1qc8evND1NfUA6wFJigV+HIXxEwRughdhJ6iQteBicADmqblZ2RnapNvvpBDjjsUw5DucYLwe2ioa+CWSTewcvEKlFJx4H7g1p115rkIXYQuQheh/5rUOwDPAQfruu4ceuBeXH7PFDp0KZRILQj/AzMe572X3uXvtz1KLBoDKAYOUSqwehfFTBG6CF2EnsJC14HxWEerdk/PytCOnXQcp19+Jroh+9IF4bdYtXgFD1xzH8WrNwIEgRuBR1v73bkIXYQuQhehN0s9xxb6ybqup/Ua2JvL7plCvz36S4GcIPwK4WCYv9/2KB/P/JBYNKaAz4ETlAqU78KYKUIXoYvQU1nottS9WEc8DnSnubXRx4/hvBvPx5OeJpFbELbDjJvMm/0pT9z+GDVbagDqgLOVCry2i2OmCF2ELkIXoRelA1cAN2ialplXmM/kmy9k5BGj0HTJ0gVhW0o2lDB9yj2sWrwS0zRN4J/AVUoF6kXoInQRugg9EaTeDeu89L0Nw9D39u7DhbdfSsducryqIDQTDoZ48TE/M//5KuFQGKwmMiOVCqxJgJgpQhehi9BF6D9JfSLwIFCQnpnOmJOO4NybzpdtbIJgM2/WHJ66+wkqSioA6oHrlQo8niAxU4QuQhehi9B/Eno74CHgDE3T9PzCfC6/5yr28u4jp7EJKU9VaSXTLr+TlYtWEI/FTTs+XaxUYKsIXYQuQhehJ6LU9wDeBnpomsbQEcO42Hc5XXp1lYgupCzBxiAvP/ECM596lXAorLA6wp2gVOC7BIqZInQRughdhP5fQteBv9iZeo7T6aTo2EOYPPViMrIyJLILKYdSik9mfsS/H3i6eal9K9ae838qFYiJ0EXoInQReiJLPQN4CjgRcGTmZDLh0jMY/5djcTgdEuGFlGLDD+v4280Ps2LR98Rj8TAwE7hQqUBNgsVMEboIXYTeipzv93lntImJZR3e8hxwIKC1y89lyv3XMLxoP4nwQsrQUNfAP+54jHmz5xAOhk1gIXCpUoGvEjBmitBF6CL0VuR6v897bxsRugaMxDo3vVDTNK33bn246PZL2X2fwRLphaQnGony3kuzef6hZ6mrrlNKqSrgGsCvVCAqQhehi9BTW+jT/D7vDW1mcllSvxy4DcjRdZ3d9x7EjY/dQm5BnkR8IalZ9Nm3PHXXE6xftQ7TNJuAN4Hzd3UDGRG6CF2Enhg85/d5z2hTE0wrcgA3YBUBeXRd54AxB3LJnVfQLr+dRH0hKaksqeD+KdNYseh7YpFoFJiDtUXthwSOmf8AJovQRegi9NYh4Pd5D2lzk0wrag9MB04DXE6XkyNPH89Z156L2+OW6C8kFfU1dbzwt+d578VZBBuDJrABuBZ4XamAmcAx80XgFBG6CF2E3jpsBrr7fV6zzU00ragjVs/qMYDD7XEzbuLRnH3deRgO6SQnJAfxWJzZ/rd54W/PU1NVjVKq2n6Y/atSgWCCx8x3gbEidBG6CL11aACG+H3edW1ysmlFA7Faw44BDLfHzWmXTOTYs4/HneYRGwhtGqUUXwe+5OlpMyheU4xpmo3AW8BlSgWq2kDMXALsIUIXoSfi5BwFvAIUJNGvFQZO8fu8b7ZRoWvAMOAZYBBg5OTmMPHKSYybOP4Xz0/X0FCohP1eq46fjEVCj8XmdZt46PrprFq8kmgkGge+xDpFbUEbiJceYA3QWYQuQk/ECboP8AbQJZmSAOA+4Ma2uOy+jdQPAh4A9gKMzJxMzrluMoeeeDhOp1NSPaHNUVlawTP3PcW82XOaZb4euECpwEdtJF4OAL4AckXoInQReuvxIXCq3+fd2mYnnVX5fhTWdrZBmqY58jrkc+ZVZ1N0zGicLpG60HaIhML856Fnef/ld6mrrlVAGVbr44eVCoTbSLwcD7wIpCfRpVkDHOT3ectE6G1f6IOBd4AeSfarVQMj/T7v8jY98bQiF3AMcA/QEzAKOhUw4dIzGHvquF9cfheERCMaifLRa+/z3MPPsrViK0qpeuBZ4BalAtVtJFZqwPWAD0imCtVVwL5+n7dOhN72hd4HeA/om4S/XpvpGPc/pG4Ap2Nt6RmoaZqRnZvNmVedzaHHj8ElW9qEBCYej/PFB5/x9H1PUraxFNM0Q8BrwHVKBTa3oViZgVXXclKSXSIRehIJvSPwCbBbEv56C4DDk2GialpRGjABuAnormmaUdC5AyeffypjTx0nh7kICcuKb5fz1D0zWLn4e+KxeARYhNWYZalSgTYTWCdMndsZ+BToJ0IXoSfqJE0DPsOqqk42GoDz/D7vi0kxCa136mdgdZTrreu6kVeYzzFnHsf4M47Fky5b2oTEonRjCdOvmsYPS1Y1F8EtBm5SKvB+G4yVh2OtZiYb3wN7+X3ecKrMy2QWugYEgFFJeu0CwDi/zxtMiomoFXlsqV8J9Nd13cgtyOOoiUdz5GlHkSNtYoVEkfmGEp57+FnmzZ5DJBxprmi/CasTXLQt/S4Tps7VgRnAOUl4qb7z+7xDU2luJq3Q7cnqx2o3moyYwHi/zzs7aSajJfVTgNuBrpqmGe3a51J0zGhOu2QiWTlZYhNhl1JfU8ezDzxD4M2PaKxvbK5ovxd4vK3J3I6RfYFZQP8kvFzz/D6vV4SePEK/C+tQkGRlIXCi3+fdkERS1+2HsKuxtrQ50zLSOOgILyedfyrd+nQXqwi7hIa6Bl587Hnee2k2DXX1oCjH2p7217ayPe0XYuR1wF0kV3V7MzP9Pu/xIvTkEfp5WMtJyUoMq5XqjX6fN55kmfp4rGXM3dFwZmRmsPeo4Zx28UR6Dugl29qEViUUDPHuC+/w8hMvNvdobwAeAx5UKlDRRuNjBrAU6JWkl+1Jv887OZXmabILfRRW9WZSJw7ARODttto97lek7gBGYy2/DwXcbo+b/kMGcPZ1kxkwdCC6rotphJ2OUoo3/zWT1596mcrSymaZvwxc3Vb2mv9CbNSBS+0VhmTlDr/Pe6sIPXmE3g+rn3Jukl/HtcBpfp/3q6SanNY+9YOwml4cDLgdTofWZ/e+HHvWCRw4diQut0uMI+w0otEo82fP5en7nmRLWRWmaZrAcuBtrNMPw0A9sBWoAursT41SgVgCx8Y97YeS/kl8+c73+7wzUmm+JrvQOwGz7Qwv2fkMONPv865JMqnrWAe5PATsB2QYDoOO3Tpy/LknM/q4w/DISW3CTmL+u3P51/R/snndJpRSaBqmUoSAONbZCibWq68I0GRLfS3WUva39mdLIu1LnzB1rgN4GmtXSTIzLpmKhkXoU+emA0+RvJXu2/M9cIzf513dRmTtBLKx+kd7AN0OkBE782kCmpQKxDStqCswFTgRyNU0TcvOzebg8aM5cfLJFHTuIPYRWgwzbjJnVoCn732SypIKdE3D7TFwGDpKgWkqTNPENMFUCtNUWKFUKWUdxxazM/diYB7WMarfKRWoTACZX4ZVCJfMT8KNwIF+n/c7EXryCF0DbrVFkCovXD/HaqX6RaK9U9e0IjfQDtgbGIxVjNPRlnoaVqWtacs8iLV0uQWrf30poAFFWMvvOZqm6RnZmQwdMYwJl5xBjwE9MQwDQdgRopEon70/j6enzaCytBJD1/CO6MbY0X3QNI1gKEowFKO+PkJ9Y4S6ujDVtSGqa0Js2dJEXUOEUChGLG4q01TKnstldrb+ki34ytbO2u335gcDLwDJ/gS8Fqub5upUmrtJLXR7Eo/HeleUSuuyG7C2fb3h93kT4j2enWFPAI4ABtoSd/Lzdpnty9bVNp84EN1G9GlAlv3vNafLSf8hAznu7BMYcfhBUiwn/GmUUrz+1Cu8OuMlqquqcTh0DtqvG3dPPZhOhZm/8m8gGIqytTpESVk964tr+fa7MhYtLae8ooHGxihx01RKEQcqgfnAP4C5rbl3fcLUucOxDo7ZLQUu5XysLb3lIvTkEnonYBmQl2KxqRH4O/C3Xb1PXdOK9sKqVj8IyNI0zXAYGk6ngdtl4HIZOJ0Gmm7pOx4zicZNIhGTWCxOPK6Ix03i1rKmspc12XbVxTAMCjoXMPaUcYw5aSx5HfLFTsIfomJzOW888xrvvjiLYGMQt8tg3Ji+TLloP7p0+v1NjUxTEYnG2bo1yFeLSvh0/kYWLyunvKKRcCSmlCKKtRT/b2CGUoGderynnZkPAV4B+vzCw3My8hxwbiq1fU0VoWtYBWMHpGCMimEt892E1TWp1Se3phW1B+4HTtY0Ld3jMehcmEnf3nkM6JtP31655OelkeZxoutWOh6NmjQ0RthaHaSyqonKLU2UVzZStaWJrTUh6urCBEMxIpE40ZiJaZooBZqukd0umwMOO5DjzjmR7n17yH514XcI2GT9qnX4H/0PXwW+JBIK43IZHDWmH1dfst+vZua/L+OHmtoQy1dW8tZ7PzJ/QTFVW5uIRk3Tztb9WKez7ZRM3Zb5COBxYI9UWWjB2rJ2W6rN5aQXuj2pbwLuTOGYFcUqynnMFnurLcNrWtGJwEMadClon85Jx+7OCeMH0KNrDrr+x2QbjZls2RqktKye8somKrc0Ul7RxPKVlXy7tIyGhgimqXC5XXTr053TLpnI8KL9cMsxrMKvEGoK8sWHn/P8I/+mZMNmzLhJZoaLCScM4vILhpOe5mw5yyjFF19v5q33fuTdj9ZQVx8Gq/DzUuBZpQIt2hxqwtS5TuAsO/YVpFgic6zf550lQk9OoY/GOqc4J4Vjl8IqMPsAa8vKYqB6ZxbO2VvO/q5pnJGT7UmbdNoQzj59T7IyW2bvuFKKWMykoTHKa2+v5PV3VrF63VZiMRNNNyjsUsjIcaM48tSjKOzWUbJ14b+y8orN5bz17EzmvzePypIKQJHXLo2Lztmbk4/djcyMlu9xoBTU1Yd5Y9YqHp7xNTW1IaUUy7B6LbzfUlKfMHVuL6xq9nOw6k1SiSDQz+/zbk61eZ0qQu8KzAT2kVD204T/wv7MAz73+7z1O0HoTuAjTdP2Gdgv/8Ppd4xu1z4/fZSmQXqak/Q0R4tJNhKN8813ZTw642sWLysnFIyBppGWmc6gvQdz4uRTGDx8DwyHVMGnOvFYnCULFvPqky/z/TfLCDWFQCm6dslmykX7Mf7wfhhGy8xLpRSbSuuprGoizeOgW5dsMtJdBENR7n7wc96YvYrGpmgUWABcqlRgh7ZZ2Vn54cBtWEdHp2KF6Eq/z7tbKs7tVBG6BjyAdTSnsE2igrUc34jV/epzYBFWB6zNQKXf523YAaFnYB3zOkjXtMXt26f3zsxwdtQAj8dJbo6Hvr1zGTq4kCGDO9C9SzaG8efjj1JQWlbPsy8tZfaHaygtryceVxgOg8IuHTnoCC/j/3Is7Qvbo+mSracayjSpKqti5jOv8fn786ksrSAej+MwdEbu341rLzuAAX3zWnQlp6yikQf+toDFy8oJhmJkZbro2T0H7wHd6dA+I/jIk19vWfp9RUe7UO4t4AKlAjV/Isa5gJHAJcCRQCq3UHzC7/NeKEJPbqmPxOrrLnuafpsY1r7vMqwl+mLgR6x9nWuATUDI/rkY1payOBDf/oAYux/728Bol9PQPR7D0NCIm8qqWDcVmgYej4Oe3XIYN6Yf48b0pbAggx2JqXX1YT6Zt4En/72ItRtqCIdjaJpOemY6Q/YfyhGnHcXQA4bilLaxKUM0EuGbed/w/kuzWbJgEcHGEEqZZGe5GTemL5dPHk6HgoyWf4hQivKKRtYX17Jg4Wa++HozGzfXEQ7Hycly1VdtDX7f0Bjph9WfoRw4T6nArN8Z0zQgA6sT5jnAUUD7VL/UwNl+n/c5EXpyCz0Da3l5mIS3Hc7qt9jBpwqrUncrUGv/2WB/gkqppnkvv3Bs+bo1J3XrnJk9+cxhtMtxE47EqW+IUFHZSFlFI9U1IeobwpimonevXP5y8h7075OHw7Fjz17LV1by3CvL+OjT9WytCWKaCofDQX7H9ow8wssRE46ic48u8m49ydm0tph3X5zFvNlz2FJehTJNHA6dvr1yuXTycA4b1avFltj/F8FgjEVLy5j/ZTEfz13P5pJ6FQrH4qapDKWIYW01vVGpQONvxDKHHccOAI62M3N5OrVYCxzn93mXiNCTW+g6cB1wB+CQeb9TM/yfMvctmzfrC956Pc0M1RmTzxzG6ScNJq+d56eCtkjUJBYziZsmyrQq99wug4x05x+ugv8lqmtDfBBYxwuvLefHNVsJhqKgaXjS0ui3R38OOXY0Bx4+ksycLBF7EqGUoqG2nvnvzuWTNz9m9bIfCQeDGIZOv965jD+8H8cc2Z+OHTJ2yXUPR+KUljXw8dx1zJz9Az+s3kI0airgfTtL37RNBp6P1Uejny3vA4DudlbvlKv9X7wHHO/3eYMi9OSX+lBgFtBZ5n3rEI9FWRL4mHXfLaRdlosjD+vL1Zfs16LbgX5PcP9uWQXPv7aMj+esp64uTNxUGIZBTn4O+xbtz5iTj2C3YbuL1JNE5t9/s4wPX3mfLwMLqNtai2maZGY4GbpHIZeeN5w9B3XA5UqMAsl5C4q5+a5P2bipTjndnm/3PXL837oPGpwN9AV62PLuTuo1x/ozXOP3eaen6i+fUkK3pf4v4EyZ961HJBTiu08+oPj7ZcRjUQb0zeeCs/Zi1IjuLbaF7XctHcRMZn24mlffWsl3y8ppaIyilMLhdNC+YwH7HrI/404fT5eeXXE4ZRGnrRGLxti0tpjZ/rf58pMFbCmvIh6L43YZ9O7ZjlOO252jx/ajXU7idIFWCl58fTn3P7aA2toIPffYk2GHjVUujwdSo6NbS9IADE22EydF6L8t9CKsatJMmf+tR7ChnqVzPmHzqpWEg0Gys1zsvWcnzj59CIMGdiAn201rJMfxuMmG4jpmzlrJrA/XUFrWQDgSQ9M03Gkeeg3szYgxB+EddzD5he1lm1sbIB6Ls6ViC5++9TFffPQ561euJRwMo2vQvn06BwzvwuknDGKP3RMnKwdr2f3zLzdx118/Y0NxLU5PBsMOO5zuuw+WlaI/xwfACTuyM0eE3vaEng08Axwv87+1M/Uga79bzI8Lv6Kpthal4rhcBvsM7cRJR+/GId6erZaxx+OKr77dzOvvrGLOZxvZWhMiHjfRdI30jHR679aH0ccdxvCi/UABkQAAABDKSURBVMkvlL7wicqW8iq+/PgLAm9+zNoVawg2BlGmSXq6k90HtOfMU4cw6sDuO6VJzJ/LyBWxmKJiSyOvvLGC199ZRUlZA05POr2H7sXgg7wYTnkt/mfCCzAFeNzv86pUHYSUE7ot9cOBNwHpCdrKmPE4W0o2s2bRN5StW0O4qRGUwuN20K93Hkcf0Y+ikT3o1jl7h6vc/3dwhcamCHM/L+aN2atYtLSM6poQpqnQdYPMnEx69O/Foccfxp4HDKOgcwc5yS0RMvJ4nIpN5Sz67FsCb37Ehh/W01jfSDweNwGlaRjZWW4O2q8bJx+7G7175tI+Pw2Pu2Vfo8RiJtGYVdRpnSsQJxo1rU8sTl19mMqqICVl9ZRXNlJdG6K+PkxtbZjikjq2VAeJxRSerCz67b0ffffeB6dLQtKfZANwsN/nXZ/Kg5CqQndiVUMeIvfBriHc1ETZujWs+XYhNZXlRENWty7d0OnTMxfviO4cPbYf/fvkWSex7eQVyM2l9Xz62QZefmMF6zbU0NgURSnQdZ3s3Gz6Du7PgWNHst/o/cnJaydi3xUPg6bJ1vItLPj4Cz57bx7rVq6hvqaeeDyu7AxtE1AD9NJ1rZ3Toet5uWl075rN4N0K6Ns7jz49c+nbK5fMDBe6rqFpoGnaT/PLCocKpay/K/vvoVCMrdVBysobKK9soqYuxNbqIHX1YRoaozQ0RGgKRWlstM5KD4ViNAWjhMJxItE4sVgc0zot0PoTDcMwcKdn0GfY3vTecxhpWVlykf88/8Laf65SeRBSUui21MdgnXQk66m7kGg4RNm6tWxYtpSqTcUq2NigUErXNHC7HOy9Z0cOK+rFiH270rNbO5zOnSvSkrJ6/K8t59U3V1K5pQnTtM9p1XXSMtLo1rc7+xbtz4gxB9G1dzcpnmsFIqEIxWs2MHfWHBbO/ZqS9ZsIB8OY1sUJAhvtB/T/AD8AxwCnAnsB+ZqGU9c13ek0SPM4yMtNo0P7dLp1yaFHt2w6tM8gM8PaJhkKxaipC1NTG6JqS5AtW4NsqQlSUxuypB2MEo7Eiceaj/O1JI0CNGtJfZvwCppmPTjoBoZh4HB78GSkk53fnoJuPSjo3oPs/PZykXeMauBov887P9UHIpWFnoZ1pOAkuR92MUoRDjZRWbyxdtFHH3zRUL11MNARcDSLvXOnLIYO6sDBI3uw15COtM9Lx+1uuQKnYChGRWUj7360hk8/28DSFZUEg1HTbvYRw9rv6zAchuZJ99C5Rxf22HdPhh+8L30G9SMzJ1Oy9hYkHotTV1PHqsUr+PrTL/n+m+WUFZc2i9zEaldcjLVv+3XgO6UC9QCaVmQAHYA9gXFYx4b2BNppGmmgOXQNzTB0zeHQMQwdq4chmEoRjyvicROzuaOhUkqZoDQ0zZa0pmloum5dc01HN6y/G4YD3WFgOJy4PB5caemkZWaSnp1NenYOWXn5uNLScbrdON1uKX5rGWYCZ/l93loRukrdFYoJU+cOxmoHK1l6YlAcbKg/6Y2HpmvAscBf7MBsWIFaw+0y6NE9hxHDuzDa25Mhgwr/dBOaeFxRWt7A8pWVLFxUyoJvNrNuQw2hUEyZSkWUYhMwB1gBjLEFkWs9aGiay+0iJy+HgcN2Z++R+zDkgGEUdi0Use+gyDetK2bR/G/5Zt5C1iz/kfqaOmLRGEqpONZxo+uxdqq8A3zzW2eJ23LviNWUZTf7Gg4CCu1rmYbVaGrbi2banzhWK9GI0+UmI7ddgSc9U/dkZuJJzyAtKwt3ejoOlwvD4cSwRe5wOjGcLpxuNy6PB92QnRI7mSP9Pu+7MgwidAdwDdbJRNI6MQGEjnWO8bd2H/g8rJ4BR2Itn2Y2B15d13C7DXr3yGXkAd0YvFsBvXu0o1NhJhkZLpzbFdTFTUVDQ4SqrU2Uljfw3bIKFi8tZ+OmWiqqGmlqihGNmXFQjUqxGqsB0WvASjtDzwJGYbXa3B+r0Ueapmm6buiaJ81DQecO9N9jAHuOGEaP/j0p6FRAVk42uiGC/y3CwRCVJRWsWPQ9C+d8zZrlP1JVvoVIOIwZN02s9+NbgIVYW5NmA5t/S+S/InfdlrfTfojv25y5Y3Vkc9oSb8La01xrf7Z6Tz5tzw7de/5VNwyPpjdn6bq1UVyy7F3JXOCQ7c+REKGnrtQL7Cf9fWU6JI7QtwvChVgtL4/BantZiLVDQW8Op2npTgry0+lUmEl+XhoF+en07plLdpaL+voIpRUNFG+uY8PGWiqqmqhvCBMOx5VpmkpBRCmqsfpAv4P1PnaFUoHwL0ghDxhgryAcaGd+uYADDU3XdVwuFzn57ejYvROde3ShS88udOjakc49OlPQqQB3mgfDsN6pppLszbhJLBYjHo8TagpRsn4TS79awprlqylevZHK0gpCTSFM01RKqRg/L6t/aT9gfQWUt9SZ4dtdVw2rkYtSKqB+IU4cA7wIeOQ2TRjqgcl+n/dFGQoR+rY362jgBaBApkRiCX27oGvYWdWBttj3xWrjm8N2Pa2bq5edTgMNiNnvRJVSplLEsYqpqrBOkpsLfA0sVCpQ/Qck0AnYBzjCztp726sIxs8/Y71vdbicZGZlkNUum7zCfDp370ynHl3o0qsL2bk5tMtvR25BLmnp6UlxtKtSimBjkNqttWyt2ELt1ho2rS1m/ap1lKzfTOnGEpoampqX0pv/WczOjstteX8CzAfW7AyJ/8EYIUJPPGYCE/0+b5MMhQh925vVjXVwy21Iu8WEFfp2WXsG1pL8AKzl+L2xlk872lJ12tey+cz3INby6UasY2CXAl8AJUCtUoHIDmR3mfbD4IHACKyTsPpgLdO72Ob9rFVMZW1ZMhwO3B43aRlpZOVkkdchj9yCPPIL29OhayGFXQrJL2yP2+PG6Xbh9rhwulw4nI5dXkxlxk2i0SiRUIRIKEwkHKGupo7SjSWUbSylsqSCLeVbqK7aSnVVNcGGJsLhMLFIzK4Mt/eHWdemDigFvrOz8XlY+4rrlAqYCRIjROiJRS1wlFS2i9B/7YbNtDOC4TIaiS3038jeC2yp52O9F+1gS6MG2Ix1vOtmoEqpQGyn3FBakQvohlWAtT9wENayfA7WawLj/z00aqBhiV7XdQyHgdPlxO3xkJGVQUZ2Btm5OeR3yCe3wJJ+Zk4mGVkZZGZnkpmdSXpWJmkZabg9LgxHy2yli8ViREJhmhqaaKxvpKG2gfqaOhrrG3/KvJs/9TX1NNQ10NTQRDQSIRaNYcZNzOYj9LZJ3rHeU1fb0l5k33crgdVKBRoSND6I0BMHE/gHMMXv84ZkOETov3bT7mXftP1kNNqW0H9Frj+J85fei+70m8taSdDtB4u9gcF25j7Q/l6avdLgsVcU9G1kr22b1aOBrumW9O337w6HgcPlxOly4nK7cHncuN0u3GkeXB4ro3e53ThdTpxul/3eXkfTdXvtwtqeFYvFiIYjRCNRwqEwkVCYcChMOGhl3s2f5p+JxSxZx+NxK9u29+pvF0sUP1eK1wMVtsCXAMvsFZIf7ZUTtSuujwi9zbIKGO33eTfLUIjQf+um1YHTgBlAuoxI2xZ6wt1s1gNGJtAeq5Cum72i4MR6n9/V/l5n+2fygGxbIi5+3l71s/ib90Zvk+mj/fzuftuv/3tdQOOn1FnZMv6pM5r6r69//rHmb/w/YTe/0mi0V0O2Yi2hrwKW26siNXZWXv1Hq9NF6MI2NAFX+n3eGTIUIvTfc+O6gZuA69mu0EoQoe8k0acBsWbR2Vv22mPVA3S0s/nutvwL7a9ztsvunVjL+c2y134p2/8fbCtrtZ20Y9uIu8EWdJkt6x/sa1eOVaNQsSM1CSJ04Tf4N3CJ3+etl6EQof/emzcDeBI4yc6KBBH6rs7sm6XdvI8625Z+IVbNQK4t+UysYrwMrCV9t53d/5Lwt8+yo0DYlnYTVrFa837saqy94KX2akLtNpIP7+oqdBF6SrAGKPL7vMUyFCL0P3oD98Bq+H+wjIYIvQ3JX7cF3vxx2B+Dnwvy9O0y8fg2nyhWI5cIEEl2UYvQ2ww1wCWAP9UPYBGh//mbuAtWo5GhMhoidEGELkLfJcSA24G7ROYi9B25iTWsxiEzROoidEGELkJvdUzgZeBSv89bJcMhQm+Jm/kA4DmsTmCCCF0QoQutw2JgnN/nLZGhEKG31M2s25n6s1h7iAURuiBCF3YuS4Cz/T7vNzIUIvSdcVOPBP4GDJHREKELInRhp1GJ1RPkE3lvLkLfmTf2QDtTH470fRehCyJ0oaUpA84DZonMReg7+8bWsNp3PgIchuxTF6ELInShpSgBLgdmyhnnIvTWvME7A/cAZ0imLkIXROjCDtMAnA7M9vu8MRkOEXpr3+QOrDaxl2N16hJE6IIIXfjjrLHj6GxZZheh78obPQ04DrgX6CLZughdEKELvxsFrAbOB+b4fV5ThkSEvqtvdg2r8cxDwEiRughdEKELv4sFwDl+n/d7GQoReqLd9F2Ay4CLsA7JEETogghd+OXM/A3ger/P+4MMhwg9UW98BzAJuBXrfGtBhC6I0IWfidkyv8jv81bKcIjQ20IA6A7cAZwiQUCELojQBcA6hvde4CG/zxuW4RCht6UgkAWcCEwBdsM6vlIQoQsi9FTDBNYB1wNvi8xF6G05GHSzpX4WkCMjIkIXROgpxhvArX6fd4kMhQg9GQKCC6sH/JXAOBG7CF0QoacAG7HOv3jC7/PWy3CI0JMtMKQBhwMXAEWAS0ZFhC6I0JOMKDAH8AGfSRtXEXqyBwgDGI3VUOEwIEtGRYQuiNCTgKXA34EnpYWrCD3VAkUOMAi4GDgI6EzqHvgiQhdE6G0TE9hsj9HfgY2SlYvQUzlg6MDuwFHABFvyughdEEToCU4T8E+sY6W/lV7sInThv8WeDuwJnAnsD/QH3CJ0QRChJwgKq+DtTeAJ4EdZXhehC78dRBxAd6zq+HHAIUAHII3k3NMuQhdE6IlNxL5PXwJeBr73+7xRmSEidOGPB5U0O2MfAQy3Px1JnqV5EbogQk9M6oBPgHeAV/0+b63MChG60DLBRcM6/CUP6Il1wts+QC+gPdAOa9lehC4IIvQ/gwK2AquAD4BXgWK/z1sns0GELuz8gKMD+UAfrENh+mAV1vXDegefS+If6ypCF0TouxYT+BqYBXwGLBSJi9CFxMnkmz+5WO/jewFdgE5Yy/WZQDbWe/k0rOK7NPvfpNG6y/klwCS/z7tUrp4gQm8VtgKrgRVYS+oBrO1nSqrVRehC2xO+yxa3y5a5w/57839rTaFHgHV+nzcoV0cQobcoUaARa4tZqZ2FLwS+s7+ukOI2EbogCIIIPbFQQAWwCeuEs7XAemClnY1v9vu8plxVEbogCEIqCv1I4KlWFrqJtWql7D+j9p8RIAQEgVqsJfIKrBqUYqz94XX2z4WBsHRtE6ELgiAIltALgMG07iso05a2sgUetb8OYS2dN0ozF0GELgiCIAgidEEQBEEQROiCIAiCIIjQBUEQBEEQoQuCIAiCCF0QBEEQBBG6IAiCIAgidEEQBEEQROiCIAiCIEIXBEEQBEGELgiCIAiCCF0QBEEQBBG6IAiCIIjQBUEQBEEQoQuCIAiCIEIXBEEQBEGELgiCIAgidEEQBEEQROiCIAiCIIjQBUEQBEEQoQuCIAiCCF0QBEEQBBG6IAiCIAgidEEQBEEQROiCIAiCIEIXBEEQBKEt8n9V7PR2x0p1ywAAAABJRU5ErkJggg==;" parent="1" vertex="1">
          <mxGeometry x="270" y="320" width="130" height="138.59" as="geometry" />
        </mxCell>
        <mxCell id="Dhj0pCLLYURKOVo62HSA-27" value="" style="group" parent="1" vertex="1" connectable="0">
          <mxGeometry x="720" y="160" width="280" height="160" as="geometry" />
        </mxCell>
        <mxCell id="AcxdMaKK0mU5kZiv2lnr-4" value="&lt;font style=&quot;font-size: 22px;&quot;&gt;Wails&lt;/font&gt;" style="rounded=0;whiteSpace=wrap;html=1;fillColor=#f5f5f5;strokeColor=none;fontColor=#333333;verticalAlign=top;movable=1;resizable=1;rotatable=1;deletable=1;editable=1;locked=0;connectable=1;container=0;" parent="Dhj0pCLLYURKOVo62HSA-27" vertex="1">
          <mxGeometry width="280" height="160.00000000000003" as="geometry" />
        </mxCell>
        <mxCell id="AcxdMaKK0mU5kZiv2lnr-5" value="画像の&lt;br&gt;プレビュー" style="aspect=fixed;html=1;perimeter=none;align=center;shadow=0;dashed=0;image;fontSize=12;image=img/lib/mscae/TaskVM.svg;labelBackgroundColor=none;movable=1;resizable=1;rotatable=1;deletable=1;editable=1;locked=0;connectable=1;" parent="Dhj0pCLLYURKOVo62HSA-27" vertex="1">
          <mxGeometry x="24.347826086956523" y="48.211920529801326" width="61.356521739130436" height="58.43478260869564" as="geometry" />
        </mxCell>
        <mxCell id="AcxdMaKK0mU5kZiv2lnr-6" value="画像の管理" style="aspect=fixed;html=1;perimeter=none;align=center;shadow=0;dashed=0;image;fontSize=12;image=img/lib/mscae/WebApp_WebJobs.svg;labelBackgroundColor=none;movable=1;resizable=1;rotatable=1;deletable=1;editable=1;locked=0;connectable=1;" parent="Dhj0pCLLYURKOVo62HSA-27" vertex="1">
          <mxGeometry x="182.60869565217394" y="46.09271523178814" width="62.33043478260869" height="62.33043478260869" as="geometry" />
        </mxCell>
        <mxCell id="Dhj0pCLLYURKOVo62HSA-33" style="edgeStyle=orthogonalEdgeStyle;rounded=0;orthogonalLoop=1;jettySize=auto;html=1;exitX=0.75;exitY=1;exitDx=0;exitDy=0;entryX=1;entryY=0.75;entryDx=0;entryDy=0;" parent="1" source="AcxdMaKK0mU5kZiv2lnr-4" target="Dhj0pCLLYURKOVo62HSA-22" edge="1">
          <mxGeometry relative="1" as="geometry">
            <mxPoint x="560.4285714285716" y="420" as="targetPoint" />
          </mxGeometry>
        </mxCell>
        <mxCell id="Dhj0pCLLYURKOVo62HSA-35" value="POST" style="text;html=1;align=center;verticalAlign=middle;resizable=0;points=[];autosize=1;strokeColor=none;fillColor=none;fontSize=20;" parent="1" vertex="1">
          <mxGeometry x="170" y="315" width="80" height="40" as="geometry" />
        </mxCell>
        <mxCell id="Dhj0pCLLYURKOVo62HSA-36" value="POST" style="text;html=1;align=center;verticalAlign=middle;resizable=0;points=[];autosize=1;strokeColor=none;fillColor=none;fontSize=20;" parent="1" vertex="1">
          <mxGeometry x="170" y="385" width="80" height="40" as="geometry" />
        </mxCell>
        <mxCell id="Dhj0pCLLYURKOVo62HSA-39" value="POST" style="text;html=1;align=center;verticalAlign=middle;resizable=0;points=[];autosize=1;strokeColor=none;fillColor=none;fontSize=20;" parent="1" vertex="1">
          <mxGeometry x="430" y="315" width="80" height="40" as="geometry" />
        </mxCell>
        <mxCell id="Dhj0pCLLYURKOVo62HSA-40" value="POST" style="text;html=1;align=center;verticalAlign=middle;resizable=0;points=[];autosize=1;strokeColor=none;fillColor=none;fontSize=20;" parent="1" vertex="1">
          <mxGeometry x="530" y="379" width="80" height="40" as="geometry" />
        </mxCell>
        <mxCell id="Dhj0pCLLYURKOVo62HSA-41" value="&lt;div style=&quot;font-size: 16px;&quot;&gt;Go Runtime&lt;/div&gt;&lt;div style=&quot;font-size: 16px;&quot;&gt;Frontend Assets&lt;/div&gt;&lt;div style=&quot;font-size: 16px;&quot;&gt;Go Application Code&lt;/div&gt;" style="text;html=1;align=left;verticalAlign=middle;resizable=0;points=[];autosize=1;strokeColor=none;fillColor=none;fontSize=16;" parent="1" vertex="1">
          <mxGeometry x="196.5" y="170" width="170" height="70" as="geometry" />
        </mxCell>
        <mxCell id="Dhj0pCLLYURKOVo62HSA-42" value="&lt;div style=&quot;font-size: 16px;&quot;&gt;&lt;div&gt;Webkit&lt;/div&gt;&lt;div&gt;JS Bindings&lt;/div&gt;&lt;div&gt;JS Runtime&lt;/div&gt;&lt;/div&gt;" style="text;html=1;align=left;verticalAlign=middle;resizable=0;points=[];autosize=1;strokeColor=none;fillColor=none;fontSize=16;" parent="1" vertex="1">
          <mxGeometry x="610" y="177.45" width="110" height="70" as="geometry" />
        </mxCell>
        <mxCell id="pYAyUIE3479MOdKgYuvP-1" value="" style="shape=image;verticalLabelPosition=bottom;labelBackgroundColor=default;verticalAlign=top;aspect=fixed;imageAspect=0;image=data:image/png,iVBORw0KGgoAAAANSUhEUgAAALAAAACACAYAAACrzePzAAAABHNCSVQICAgIfAhkiAAAAAlwSFlzAAAFOwAABTsB7JnjvgAAABl0RVh0U29mdHdhcmUAd3d3Lmlua3NjYXBlLm9yZ5vuPBoAACAASURBVHic7Z13eFVFGoffOben955QQgu992aFxY6KigW7IBZUVBZdF3vBxYK4YkVXEQsiKCDSpPfeQ0lCQnpPbm4/s39EkJgEcpNAwiXv8/A83HOnfOfkd+fMfPPNDDTRRBNNNNFEE0000UQTTTTRRBNNnA80DW1AI0EHdAPaAIWArWHNaaKJmtNPb/JKMfkGWvzDoksVjdahM5jeA/QNbVgTTZyNeK3eUHLDP9+T/9ntlNP2qnLSL/tldNuuZTov799pekM1epSGNqAhMXj7fNZ/1FjjoNsfRSjljyKsRTvGf/mHyTcwdKCiKI82sIlNnAXR0AY0IN20euOmKSvTdF7+QZW+TNywjE/HX1vstFsjAMv5N6+JmnDRtsB6k8/k/reMFaeLNzf1CNPvHETihmW06Xc5wTEttcCdDWdlE2fjYhWw1uW0j+h5zR3a0y9umvsZSTvWsW7OfwG47P5nvAzevhP/ljcAiANa/vkvGjCeB5ubqIKLVcDxAqGPbte1wsXUvdsASNm9EafdRqfLR+K02+KBTYpGlySEYgMKgBTg6J//0gCLUBSzotElA78ArwG3Ui70Js4h2rMn8Uha+IfHWIWi+Jx+MT89GYDinAxSdm8kvucQ2g0Yppw4sKNX8279RUBEDAERsegMplN5pOrCXJiHuTDPqzgno1n6oV0xucePXKW6XAJAKNpEqToXAQuAPwBZA/t8gat9AkMGSyFMlsLCzarq+A7Iq4+b9yQuVgF7G7y9KwjJ5bBjLsg99dlSXAiqyuDbH+Xwlj/EiMdermnZGpfDTsbhvRzZ/AcH1y1pfXTr6sdcDvsERdEkq6rrY2AWkFGVXSbfgJeE4P5Ol9+otOo91EdnMJKya9OozT9/8YqttOhWp9P5ey3v2SO5WL0Qw4JjWsx97rej3icv5Ken8OqwlkgpUTRaxs9aQYtuA+qlMofNwu6l89jww8fy2Pa1QiAcUqr/pbyrkfVnsg4mv4DFfW98IGTYwy+Y9CbvCmXkpR1j2s09sy0lhRHUrBW/KLgYW2AF6FOUne4tVfWU/1ej06HVG4jvOYRe14+pN/EC6Awmelw9mh5XjxY5yYms+HyqbsvPXz4qkQ9IVZ2mMxqPGEy+745553v/+J5DqiwjOKYlOoPBYCnBGyitN+MucC62FjhSCM33UroGavUGnvhuM5GtOwEgpcRuKcXg9Ve3WFVdJG1fy7FtaynJSack+wQ6gxGv4EiCopvTdsCVhLdMqJUhOcmJLP7g3+xc8gMajTbnnvfmatsPuTqwuvQOm4UpQ6PyLSVFwbWq0EO5mKZKBymKZoVWr2s7aspMgQC7uZSWPQYBEiFAqysPfyjJy2Lxe88x57m72bf0R9qG+dAxNpTBPbvQJjoUH1cpaXs28d3Uyez49WtUCTEJXVE0NX+c3gHBdLnyJpp16UvihqXGjT9+ZkSqjvheQzRClLcrpfnZ/Dbj32yeNwun3eY6vGnFIrul7Idz8XAuVC6WFnikEOK7oOgW4t7pP2kiW3ciPXE3TpuVuE69TyWSUrLys7dY/slrDBk6lElPT2TgwIFoqhFmSUkJv/zyC1NefoVii53rJn9AuwFXum2cpaSQuS8/wvZF39L9qtHqba98rhze/Ac/vfoIucePMPiOx9mx+NuikrzsrkByLZ+BR3IxCPgaIZSf4jr3Uh6auVgx+vhXmchuMTNn8hjyDu/k6y9nMXjw4BpX4HQ6+fjjj5n49DNcOX4KQ8Y8WStDl338Goumv0BIbCuKs9OwWy3EdeyFwcunOGXf1lft5pK3alWwB+PpXYjBQigLoxO6asZ9+nu14nXabXz60HAChJU/li8jIcG9fq2iKPTq1YvLL7+MqZMnUFZSTHzvoW4b27LHIIJjW7JlwZe4HE6CouKIaN3Rkrxz41JrSeFjbhd4EeDJAg5QNJrlwdEtfB/5apXG5Fft+Ih5r4zHlZvCqhXLCQgIqHWFMTExXH3VCP71+IP4RzYjsnVHt8uIatuZkNhW7F72E0YfX1dOUuLasqK86wG11oZ5MJ4s4I+Eohn4wEcLlZC4VtUm2rXkR9Z//S5rVv1BSEhInSsNDQ2lQ/sEXn78Pnpff3cFr0ZNiWzTCZ3ByO6lPykOm+UHYEmdDfNQPFXA7RFi5tAxT4re14+pNpHL6eDrJ2/mpRee49JLL623ytu1a8eGjRvZv2s7CUOuqlUZLboPoDgng7T92/sDO4FD9WagB+Gpg7g5OqPXzS8sTVK8A6tvVbf+8jUbPn2FxIP70Wrrd05n//79dO3ajeeWHMUvLKpWZTjtNt4d3U/NTNxbqqqudlQ9/XxR44nRaLEgRg0aPf6M4gXYt/RH7hlzZ72LF6B9+/Z06d6DvX/8UusytHoDY96eo6AIH2BKvRnnQXjiVPJdCES/mx84YyKHzcLBDcu57p1XzpkhN91wHd8sWkD/UQ+dNa1UVfavWsjeZT+Svn87+VknMBi9CIyIIa59dyVlz5b7pJRTgSPnzOALEE8TsBCK5p7mXfqqwbHxZ3y75KUeAynp3LnzOTOmd+/e/Of9D8+aLnnXBha8+ig61cbdd97BkKfHEhsbi9lsJikpiZ/nL+Drw3s0Usp5Vqt1MOUxyU3geQLuLFVXfK/r7jprwuKcTMIiImtdkZSS7du3c+jQIdq0aUP37t1RlIq/mejoaApyMjg9aOjvbF80h/mvjmfqm29w//33V5r1S0hIYMSIEbz80os8/PDDHZYsWbLDbDYPpWlGDvA8AQ9HCBIG/+OsCS3FBQQGVu8bPhNZWVmMGDGC5ORkbDYbRqOR2NhYFi1aRGTkXz+KoKAgnA4HtrJSjD5+lco5vHEFC157hN9/W0zfvn3PWGd4eDg//vijmDx5csz06dP/MJvNnYCSWt2AB+FRgzghxPDwlu1c/mHRZ03rHRhCXm7uWdNVxU033cSuXbvIz8/HbDaTl5fHrl27uP766yuky8nJQW8wYvD2rVSGtbSIbyfdzlezvjireE8ihOC1117TXHbZZeHe3t4zamW8h+FJAjYBA9oNHF4j37ZfaAQ52ZlI6V5seEZGBgcOHMDlclW4LqXk6NGjpKSknLqWnp5OYFgkJ6PLTmf1V+8yoH9/rrvuOrfqF0Iwc+ZMo8vlugVo61ZmD8STBNxNSqmraSB6UHQLNDo9W7dudauS0wX6d6SUJCcnn/q8fv16Itt0qjLd1nmf8/w/n3Wr7pNERERw9913C71ef3+tCvAgPEnA3QFi23evUWKt3kD7QcOZP3++W5W0b9++Uut7EiklnTr9JdgffvqZhEuur5QuI3E3QnXRp08ft+o+nZEjR+pMJtNNtS7AQ/AkAffy8g9yBUY1q3GGjpffxOdffoXVaq1xHj8/P+688068vSuuWfPy8mLUqFEEBZVvlLJ161YOHdhPwpARlcrITkqkY+fOVXYtakrXrl0pLS2NxXNnU2uExwhYKEqX2I493Yrt6HzFSPS+wUz/4AO36po2bRqPPPIIgYGBhISEEBQUxMMPP8z06dNPpZn47CQG3f4IPoGhlfKXFuQQ6kbgUGlpKUlJSRX668HBwUgpFco3Wrlo8RgBg2gVeoaosypzKApXPvYqL738ComJiTXOp9VqeeONN055H3Jycpg6dSo6nQ6AWbNmsX37Di65r+o+rtHbl+KSmnnAHnroIRISEujfvz/t2rVjx44dAJjN5pOCvqgXeHqKgEOk6vIOjmnpdsaEQcPpdf09jLjmWgoLC93KK4QgKiqqwgTGhg0bGPfweG557Uuq2jQQwD8smuSkpLOWP3v2bL777jvS0tLIzMwkMTGR0aNHA5CUlITJZCoEHG4Z7WF4ioDjAYJqIWCAqya+hVdUPIOGXHJGL8PZ+O233xj2jxEMf+wV2g8eQV7qUdbOnsHSma+yf9VCzIXlG+s079aP5KRjpKWlnbG8H3/8kaKiogrXioqKOHHiBIsXL5YajWZ5rY31EDxlJi4OICi65gO401EUDXe9M5d5rz1Kj169mfnfDxk5cmSNB1llZWW8+eZbvPX229zw3Af0uu4ufp02ic3zv8Scn4OUEr3JG6OPP3Ede3LzlI/oOPgffPLJp7z44pRqy23dujWKoqCqfy3G0Ol0BAYGMmPGDEtJScn/anXDHoSnjGAfBmZMWZFa69jbk2ya9wVL3nuO+BbNmfTMRIYPH46PT9WrKtLS0pg7dy6vv/kWXiFRXDd5OkExLdi5aA6/vvNP7NbK2woLIQiIiGXk5Pf4/vl72L93DzExMVWWX1hYSJ8+fThy5AiqqhIUFMS4ceOIiIiQkydPTiwpKUngIt+lx1ME/C/gpbe2mdEa6r7Tqa2slNX/e5cdC/5HfmYaffr1p0WzOOJiY7BYLKRlZLJv3372791NfNe+9L11PF2Hj2Lr/C9ZPO1pLu/XkY3b9pKWmV9tHVFtu9B+0DDyd61izR8r8PLyqjJdcXEx7733HkePHuWOO+7Az8+PIUOGWK1W60BgW51v9gLHUwT8rs5gevTNbaX13qfPOrqfo9vWUJydTnFWGlqjCZ/gCIJjWtK2/+X4BIUBsGfpTyyd9jifvnQP0RFBHE7OYOzzn5CdV1RluXqjFy+uTue7yWPQFGXyy/x5FQKBqmLhwoWMGjXKZrPZ7ne5XF/X971eiHiKgL/0C40cPWVlWoP16add25Z3n7qOti3/6sKcyMznmTe/5kRmPvlFpaf8uF4mA0aDnrZDruPGlz9n0bRn2TLvC56ZOJExY+4iNjb2VBmqqrJp0yZeffVVuXz58hKr1XoL8Nv5vr/GiqcI+Lvg2PiRzy1ObDABf/7QFbT0sXLjFd3p1DYOnfavOZVjqVms3nyAPYeOYzTouLRfRwb2bMfNEz5kxL+/JL7nYE4c3MmqT19n7+rFhEdEEhkVhc1mI/nYUexWK3a7bZ/D4RgAVN2kX6R4ioDnhjVvc92kXw802Cpru8XMutnTSVw1n9RD+4gND6Bbh5YkxEfSp0troiMq+4RnL1jLxpJorpn03l/lWMvIOrqf4uwMtAYj9rJSvphwE8DdwEqgOeU7w584H/fV2PEUP7BW0TbsuYR6kzeX3DeJh77awG1vfUtARAuGjBjN8WIv7n/+c+56+r/8vmZXBZeYj7cRh7XiRJre6EVsh550uOQa2va/gty0YwD4hUVOaTvgyk1Dxzz5c0TrjluA2m2L6WF4ih9Yq2g1jedtoqpEREYxduxYGDsWVVVZsmQJk56dyBszF3Dn9YPo2r4Z3y/ZTpcxL56xqMMbV+AbHC4nLzzUXG/yRqoqqfu25nCRu89O4iktcKNC0WgpKSk+FXapKAo9e/YkK6+Y4c/OYIetGW9+t5OYobfRZVj1EZFSSlJ2baTDJdcIvcmb4ux0Zj44PC835fC7wMHzdDuNGk9pgS0OS1mjaZGCYpqzKreY0PBIrhw2jBuuvZoZH31M71Hj6DbiVrqNuLVG5eSkJGIpKUTv5SM/G399TtqhnXnmwpxxTqt11Tm+hQsGTxFwmd3aeAQc3jKBsV+tobQghwOrF/OfWT+gDYhmaDXRadVxfM8WALYu+N/PZYV5zwP7z4G5FzQeI2CHtazx9IH/xCcwlF7X3UVNlvlXRereLQhFsZYV5o0CnPVrnWfgKX3gMofV2ugEXFfSE/dIpNhDk3irxVMEnO+wWRSHzbPO5M5LPeaS0nW0oe1ozHiKgDMASnIzG9qOeqU0P1uhacLijHiUgJN3beSHl8ZRlO0Zf3OX0yEAz3qt1DOeMIjzBXoJIfjm2bsw+QUw+PZHqcnuPI2FtP3byTi8F6RESolEgiqRqiqEopkgVZcTeJemOIhKXMgDHy0wViiaV6Tq8g+MakafG+6h/y0PnQpxvFCQUla5+mPX7z+ydOarMv3QbiEUTbFUXeOBpjDK07hQBewjhJgrpbyydZ9L5PBHXhTNu/av0z4LjZnUfVuZ9/oTavLO9QqKMgdVHUtTawxcoAIWQiwQQrn6phc+FH1v+mt3JamqJO9cz7Ht64hs3ZH2tTyfojEiVZU1sz9gwdSnpZQckarzEpoGeBekgPsB669/dhqD73wcKPc+bP31G9bOnkFBegpCURg0+hGun/ROw1p6Dji8aSWfjr9WddltyarqGgqkNrRNDcmFKOBBwOpWvYcSFN2crKMH5PG9W/4c8Cjc8uIndLz02mr3ZPAEju/dwkf3D3PZykqOSVXtCRQ3tE0NxYUoYIBJiqK9DUGYqroOIeU6IBt4d8KcjcR17NXQ9p1zDm9cwcwHh0tVqvOQ8iYaLrzSl/IBtQkwc5775heqgKuiOZA0cvL7DBw9vqFtOS+s/OJtfvnPswDjgbMfxlE3YjQ6zaW6AMNQIekmNAQoWkWv89Gj0WuEUITisjlVu9khXHaXDZVsl8O52F5o/x7Yd66M8iQBo2g0WV2Hjwq7482Lw9MkpeTDey9Tj21ba5aqqzWQVY/FK8AAr1Cv+6WQQ30ifPWhPcMDA9sGGnxj/NB6nXkKwVHqIHdPjjyxKjWn8EhRrqPE9pzL7vq5Hu0DPEzAwNzAyLjr/rU0yVNPIK1E1rEDTB3ZVVWdzlnAffVQZLQhyPCkoig3h/UI944eGhsU2DaoTi5KW5GNg1/tK8jZmb3Vmm+9iXrss3uagCcCU6esTMMvtPYnEF1o/PzGE6z5ZrpLStmK2p9e1NoUbHpLH2Do1+rmNqERPSMUoanfSIOc7VnOnR/sPGArsAyknkTsaS2VAO5t1qUvEfHtG9qW80ZEqw6smf0BUlV1wGI3swcbg00f+8T6vdrlkW492o5O8PGN8RVCqf+2zTvSR/GN9gnO35/XxWlxflsfZXqagDOFonlCb/LSd7zUvcNTLmSMPv7kpR4TGYf3dEDKd6nhlqs6b92dxiDTT50e7NI3YUwHX1OI6RxbCt5RPkrBwfyQ0sySTajUfivQP/GUaLSTOKTqWrRv5S8uedry9YuBXteNQaqqN1CTX66PMcj4W2S/qPeHvHdpZFjP8PPakLW/p2OQKcA0rT7K8oRotL+z0FyYNyp131biOvVuaFvOG/E9B+MfFuUqyskYjZRnej23MQYbF3V6sEtceO9IXX3Vb82zkn8gT1rTXThLEC6nC72/Bn0I0reZrwhoFXhqxGUK9SKgVWCcJdfSB9hUl3o9UcCLEELdv3qRcjEJWCgKHYZeo9nw4yeXSSkNgO3vaTRemqtMgabPej3XL9w70ruKUtzDnGEmc022WrjPrATFtCBh0CgRe0lPAqNiEIpCUWYGOclHxZHNK9n2v3X4tDSqsf+IVLzCvWh7R/uQwsMF0yx5lpqdi1YNjccLoWWA3s94P6rsLBRhBpnlLHEucTlcy3BzZC00mg3hzdv2fmb+Hk/rIp2RPcvn88XjIwEupXwbqlPo/HQP+0T5vtjnhf4hWlPd2q3CwwWkLsyWJn2EuPSBp0gYegVa/Zl3RpJScmTDan55azIOXa6tzR2tDDvf3ZaTvSPrcmB3bW1pFAI2+BtmesX53Bh9aUywMcyEdEqcZgclScWOvL25+dZMi1U65Tf2Evt0oCbrhsYDHzz5/WZi2vc4x9Y3HswFufxrUDjAM8DUk9cNgYY3g9qFPND9qR6BdXGN5R/Kk8k/pqtR8d00Vz35EhFta7e71cE/lvHNM/eYA7t4G1JXHF9lzbNcXlubGoOAb/CK8v5f54ndqn2nSZckf3eeM2NVWq6jxHHEVmJ7GSdLqX7+P0gIJXPAbeN0Iye/f26sbqT8a2C4y1yY+zXlmwFiDDR+FNEn8taOD3bxr+1f21Zk48jXxxx+3q11t7z+XwKjqt5R3h3sljJmjB6WdnjVuiipygSg5sdEnUaDu9GMQcavvWP94oI6B1f7eIUi8Ir0UsL6RvgEdgyOk06ucZTYxwqNMKoOdQ+V+3sWkJ2ykxPbDblrgqJoPLGrXzUH1y4RBRnHVaT8xBho/Cp6cOxNHe7vVDvxSkj5LcWe8mOOGDlphnb4hOcw+frVi50anY5+t97rV5CZkpiTdLiZ0+Zw78jUP2noFlir89YVe0d769uN7ejWj0l1qORuz3FkrjqR77Q619gL7S8Be05LMgJYOGba93S58sZ6NboxM+/1Caz9doZVH6Bb1OyKFle0ubWdb23KsRVa2fvBQVvXy28zXDXxRTS6enNYVMJhtR7H29jzMV+R427ehh7k9IjoF2W1FdrdDgZUdAphfcJ1nZ/pHt5mTMJNgR2Cl+sDDQe03tpngHBgiaJoMtbO/uCicgiHNmuN1ktjbHl1q2G1FW/21izX7qmHnXe+Mdtw7T9fO6fiBdAZjXFalZ++l9LtPXIbtAXWaDT3dRzX+ZOCxALpFeetBLQPrFN5LquL/N15zqyNGfmOYnuGvch+VLrkyMe+XkPzrv3ryerGi8thZ/q9A/Dp6qDltfFu55cuyYEvDlj9dG0NY6Z/LYz11F2oKULw7lh/8YQ7eRq0BdZ4a6L1fgbR6sY2SvqKtDoHZGuMGkJ7h2k7PtYlrOOErl1ihzcboWg0csXnb9eHuY0ap93GZ09cTfBAba3Eay+2s/Xl7dYeQ8YaH5q14LyLF0BKJnxYJO9wJ0+DCljRa6N0vjq8wrzwjvSRRYfdO+r1TOh8dERdFmOMvCRK7F25gMwj5yymusFx2Cx88ugwfHpYiL7U/XPyio4Vyu2v7rbe8eY3xksfdKsBrHeE5MNP8mSN3RwNOjxXBLqT5wx3vK+Tsuml9fjF+1OfkVARg6PIXJ3Byi/e5rZXv6i3chsLtrJSPnl0GMGXaAjv4/5+GBnr053Zy8yuiQs2Gf0j6nZI5JmQqkrKxtVk7tmJvbQEo38AAXEtie3VD1NghfWLvk4N7wA316TcBhWwRFpVZ/kYyxBoJHpInMxYcUJEXV53P+NJdD46wvqGsfWXrxl85+NEt+tab2U3NNbSImaOv5LwYQbCeoW6nf/Y/GNW0kM1ExetNOhNVR+0eCakqlKccYLClGMUpBwjP/kYrS4ZRlzfgRXSuew2fp04lvSdWyuVodHr6XTj7fR98HGE5pQj6qYPi+RVD/uLhWezoWEdpC5OCRig5XXxYsO/1mI+YcY7uu5z9SeJHhZH7vY8fn5jAuNn/VFv5dY3UkryTySReWQ/2cmHKMnNxFyQi91aVimty2Hn+MENJDzQmtCu7olXulT2fLjXEp/wD8PNc95XhFK7nqStpJg5d16L6vxr91dLQW4lAe/56dsqxQvgstvZ+e0XmAKD6Hrr3acZyfT3pVz2mBCVYjpOp2FbYJe0nC5gIQTdJvRky+sbaXNfAnWdsz+J1qQlZngMR39cw64lP57xXIrzTWl+NofWL+XAmsUcXPsbZUUFp75TtBo0Rh2KUVvBXyRViYJKtwk9CO4Y4lZ9jlIHu6btsV4yZpJp8N3j6mS70T+A6O59SN287tS11M3rKcvLxiv4r+5M5u7tFfIFNm9JXJ9BlGZncGz1ckLi29DxhtsqpBHQQlvEGODjM9nQoAJ22BwHCxMLSsO6h586TdsUYqLD3Z04NOcArce0q7f+cFjfCLLXZzP/7Ym0H3oVOsO5D96uDktJITsWf8eW+V9xfPdmpFTRehnQR3oT2CEWXYARbYARRV95bsdZZKNk6wl6PNEbvxb+btVblmlmz/RDjtGvf2ZsN6TW4QcViB96RQUBS1UlcemiCq2p8jc/8mXPvU5o2/IVM5l7duAdFoHWYKiq+KeklJ8IIar1UDXoVLJ0yv3mTPMDcZc3D1B0f73GvMK9cJa5yFhzgoCEoHrxVgshMIWZSF15GIDWfS6te6FuIFWVg2uXsHj6v/j+3w+wd8UCLI58vNsF498zCv+eUZia+aMP9kLjraeqoBtHThnm3Zn0mdwHnxj35ijy9+eph79Ik+NmLdY2715/Yaa+4ZHs+u5LkH9pzGW10e6qG059LsvL5fimtac+6318ie3VDwCf8EgMPlXfi4DgLRaWL3zzxePV1d/QsRCqRGbaCm2XhfeMqNAkBrYJpDS1lNyd2fi3CaiXygxBRmy5VvYvXkr7ISPwCz13o+6T2MwlbJn/FV9PuoM130wnJzURY3M/AnrH4N8jEkOEDxov3Vl/pNbjhThSCuj7Qj+Mwe69PdJXpbvyVrs0j32/UgTGxJ49gxtojSZSNqzBnJt96po5N4uON9yK1lhuZ2Czluyd9x2qww5A5t6dJK9ZgaUgH63RhHdI9d4TASUL33yx2rOh63Um7rMc6evU0EUVtBKCSCkIRxIqQAcgBXoAoVIiBSUCilVJ5gu94x5u92DLVgGtAivZs++LPdjNNmJHNK8Xa51mJ7un7iQ4ojVPfr8FjfbcTJPmpBxm7ewP2DTvC+xlZozhvni1C8bUzH03oXlfNgYtdH+iB4qu5m2OdKkcnp0s/XRtxZjpX581Zre2bPl8BltnfVTh2mXPvUabYdec+rzjm8/ZOLPqverC2nWg593jaNZ/SFVfHxwXIKqN26yTJD7Lkb42HcMRXC0k/YH42pRZlJnBuzcPpsszbdD5VH7Iid8fpPBYIS1uikfUw4GcWZuzSZqTyOUP/JMRj79S5/JO58TBnSz7+HV2L50LisDUzB+f9qHoQ9x3U6kOFyVb0gnvHEK70QluPVlLThn7PzrKkDufYMg953anosw9O5g3vuJJTB2uv4XBTz5/6rOUkp2zP2frrI9w2qyVyhBC0HX0PfR9qNJEitQ78L8vVJRUVXet1PDfItkbyTPA1UCVvW93ObRmBXNfH0fniQlVbqJxfGkyaatTaXlr67PuClMddouLogw7tlIXBeuOU3akgPtmLCA0rhXbF33LleNeqPUGHsk717P049c5sGYxGr0WrzaB+LQPRWOqXQvvyLdQuiODDne1J6xnhFt5s7dkyxMLC8Q9H84hukPnWtXvDk6blU+H9eH0hbSRnbpz/YwvK6U152ZzgYkoUAAADEZJREFU4Je5HFuzgrwjlQ8bvfLF/xB/yZUVL0q6jwsUO6qq262/1of5srNQmAZc5k6+mrJw6hSSji+gxchmVX6fuzuH/V/uJe7a5vjEuTeIKcmxU5xpPzXWkE6VnMVHoUxy5bgX+HXaJGoTepm0fS2LP3iBI5tXoTHq8U4IwichtEoPQk0pO5KPK6uUnk/3whRa8/6uy+biyOxkfHWtuOv9rzB4+5w9Uz0x+/arKUr9a5W83tuHexetP2ODUJqTxeHff2Xb/z7FUVZ+6HlMjz5c886nf0962bgAsaKqMmrkwZ4ipfLfAvmUUNjMORIvwIiJ/8Zka0Xqb+lVfh/SOZQ+z/cjY0U6mWsyahSCqToluccsFGXYTx8oI7QKwZc1R2pVfv/oZQIj41j+6RvVluNyOvj2+XtJ2bURgPTE3Xw6/lqm3zWE5H0b8e8VTcSN7fDrElFr8brMDgpXpxAQYmDAawPdEm/BwQK2v7KXQTdM4oHPfjqv4gUIiW9b4bPdXIq1sKCa1OX4hIbT7fb7GPLkc6eu5ScnVU4oqTYk9qwCfl9KQ3gxPyF4m3rqLlSHEIJ7P5qDrqBZtSI2BBrp++/+GEx6Dn68j7J0c7XlqS5JTpIFa6mryu81XjpC/hEPRklhZipp+7dTkF71Xhtrvp7Olp+/JO3ADmY9cTNv39idQxt/x797JOE3tMW3QyhCV/vYqLJj+ZRuTaPruC60H9MBRVuzslSHi8Ozk8hfqeHJuevpdcPoWttQF/yiK0//282lNcrrHRZ+6v+KtnL3UEC1v4QzPiUppdAWMRtZo80y6gWhKH+KOI7ji6veQV8ogtY3t6X7hJ5kLD9B6q8puKyVRVqcacdhOXM8u8ZLR+g/WmFqXj4pkLRjfeVystNZ8uGLmPwCmfvqo+xb9Qt+ncMJv7Edvp3DETUUW1XYc80UrEwiINjAoDeHENCq5i7D3F15bH95H72HPsJj3y/HL9y9vnJ9YvCtPKnisFRsXNJ3bmXZS89W6CtLVWXvT3NOfQ5q3vLvxajCwuHq6j3jaGhmIY8JwcgzpTkXlIv4O7556n4Ofb6F1ne1rLJF8orwps8L/Ulfm0bi5wfwbxtA+MBINAYNUoK5oEY7LCF0CoED4ihLKiQv7Vil7+e//TR2SxlaPwP+3SPwbhtSpz4ugMtsp3RPFl7+evo+1wdTaM29FNZ8K0e+SSEktANP/fwTPsHuTSefC4x+VQn4ryPuktasYNlLz+C02bAWF9FuxPU4rVYOLppHxmlTzZUGcLDtoShRORjkT6oV8LRUaZKCF9y4h3pFKAp3vPM56775hBVvvEn7h1tjDDJWmTZqYAyR/aM5sTqVxM/KhRzaK7zKtNXWp1XQehvIT6vYB0vcsIwdi+bg2yEM/151n/hwFFqxJOahSJXOYzoQ2K7mRyGoDhfHF5+gcJeNW16dSat+g+psT32h9648qD45kXFoyQJWvv6vUy1v6uZ1FaafTxLSqi2tr7i6wjUJZ9xTuFoBe/vRWZU0+EETA25/gNiO3Zn16O20GBVOUIeqTRKKIGZoHNGDY0lfd4KUecdwuSSaCD+M0b5QA/eYxktHQcZfs5ZOm5UfXnoYnb8Jv+51eD1LiS2jFMvRfIwBejrf056AVjVfPiWlJGNNFum/ZzPk3gkMnjquyr5iQ2IpyKvwWSgKfpHlh01q9UbOtledT3gUw1559+/r76xSy+dnylftU5CSqkc+DUBclx489fM6vnr8TrLXHyH+trgqJzygXMjRg2KIHhRDWZaZlN+TyVyRhDbAiC7EG32UT7WzWYqXhrwTf7XAP7/1FHlpRwm5Ir7K2ISzYc8xY08rxlFgIbRzKB2f6olbWzpJyN6WTerCLDpdNpK7fn/hvHsXKpjjcrH1q5mEtGpLi0F/OaOkqnJ4WcXQ3aiuvTD8uSwp/pIr6XrwHnbNmYWUFV1HQlFofcVVDHjkaYz+FX/UQvDReB9xxo1sqm2WpqVKk8mXFMD9SOlzyJ7fF/LzK08SeWkQkYMjaubJllCcUkTW1kyytmXjtLnQhXih+BrQBRrR+pY7V0r2ZFG8PZPHvlnHvj9+ZdnHr7nVdXAWWXHll+HIt+AqsRHQJojYS2IJahvslsddSknWpixO/JZDuwHDGD7hBfzC3OsS1TfFGSdY/sokMvfsRKPT0WPMWKK69aQ0M5N9P39Hxp6KIZPX/GcmMb0qLqTN2rebI8sXY87LRmc0EdI6gRaDLsEnvMrne0TvoHt1M3AnOeNj/ahAPikF/6nZLZ4/HFYLC16fzIENC2l+Q6Rb/UgAp9VJwaF8io8VUXi0EHOmGdUl0XjpsGaYcVocuGxOjFG+BHSPgJOxCy6JogAKSIsDl9mJq9SO01w+WPSN8yWkQwhB7UPwCnd/6thldZG+OpOsdfl0vvx6rnzkn3gHBbtdTn2TvP4Plr/8zxq7xRKuGsnQZ1+sS5V2VTBwvL/YcraEZxTwFCmV8GLmIbm2LtacK3KSjvLr1Oc5cXg7MSNCCO1a+zOSpUtiyS3DVmTDXmTHXmzHWmjFUVIeQYUo755oTVqERmAKMmEK88IrzBtDkKFOZ0iYM0pJX5ZDyVEbA+8YS//R9zVoV+HvpG1Zz5J/T8ReesbGEIC2w65lyDNT6rKXhBTw8NgA8dHZk9bgxfa+lAZ9Ef+TNVxk1xAUZpxg8TsvcmTLSqKuCCGsV1iNJwIaCkepncz12eRuLiYwvDmXPfQ0bQdf1mjPey7JTGflGy9wYnvV2/kGNm9Fr3vHET+0khvMHSSCx8b5iw9qmqFGT+t7KTV5hfwbwWQaPoa4Wsz5eaz45B12LPwBv1YmQvsFEhAf0PAbaP2JrdBG9rYcCnaY0agm+t5yH71uGI3Jv37inc81UkrSd2wmbetGrEWFKFotftGxRHXtRWib2u1UeRoOKXno4UDh1tJxt/60M/PlQFUwE0GjPkGlfC/aNaz/9mOSd27CL96bgI5eBHUIRms8f+4nl9VV3tdOtFB4sATfgHC6X3MbXf5xA/4RF88pSjXguFC4dayf2OBuRrfbpplS6mQhj0rB80Dd9oI6D0hVJXnbZvYsnc/BtUux24rxaeaNVzMt/vH+eEd418pF9necVielaSWUJJVSlurCfMKMXu9Dm/6XkjB4OC379Kc2S9c9HsF8Hdx7v7/Ir132WjIzX/pLDY9LyQQuACGfxGmzkbZ3F0nbN5C0bR05yUdw2MoQOonWR0Hnq0EXoEFrUhA6Ba2xvMckVXCWOXDZXVjzbNgKbbjMEpdFoNd7YfINIKJNe1p2H0hs5+5EtEk455viXeAkC8lTYwPFT3UppM69w89ypK9dzz1IHqN8RcYFid1SRnFWJsVZmZTk5eCwWrEWF+FSHYCKRin3FZv8A/AJDjn1zy88stEOvBopZULwZlkxU5+MFZazJz8z9fbkp0ipRBQzXErupPyop4Zbt95EY6QImOHQ8G5t9gGujnPSdMzMl/4uhZuF4C4kA89VPU1cEJwQMEOofPhQkCiq78LPubA+KZQtnII7/owp7n4+6myiwXEIWKgKPg3x47dRQpyzuJrzKqbpOTJKq+MqBFdJyeUC6m8DtCYaGhXJBmCuquPbswXh1BcN1hp+IaXRVsxQKbkGuAJo3VC2NFFrHMBqIfhJaJn3kLfION8GNJrX+SelMtxlpzcKAyRcDnSj4c/waKIyxwQsU2GZRuX3c9GvdYdGI+C/836JDNU7GSQVBiMZAHThzx1+mjhv2IHtQrBRSjY4Hax9NFRUvdq2gWi0Av4730upzymmi0bSQ4WeAroCCUDT9Fb9YAX2AbsQ7EKwzejLtnuEqLyNTiPighFwVUyRUoksooWUdETQXhW0E9ACSXMgmqYuSFWUUH4qZqIQHERyyOlib24Qh6YI4Txb5sbGBS3gM/G9lPqCImIlNAea/ynq5qpCcyFpAUTimQIvBVKB4wJSJByXghSNi2S7i2ONrQtQVzxWwGfjeyk1eaUEqxCsdRAsBcESghGESAhVKL+GSjCCYCCA8o1dTEDVy6PrDwkUUj57VYKkGEGxhGIFimT5d8VSUIjKCakhW6hkasrIPNMSdE/kohVwXflCSqOlCJPUYhBOvFDQoeKjEWhdkkprzJXyeKBK54hJiUsIigGEE5teUny2dWBNNNFEE0000UQTTTTRRBNNNNFEE02cb/4PUnt61P6IWE8AAAAASUVORK5CYII=;" vertex="1" parent="1">
          <mxGeometry x="424" y="160" width="109.99" height="80" as="geometry" />
        </mxCell>
        <mxCell id="pYAyUIE3479MOdKgYuvP-2" value="" style="shape=image;verticalLabelPosition=bottom;labelBackgroundColor=default;verticalAlign=top;aspect=fixed;imageAspect=0;image=data:image/png,iVBORw0KGgoAAAANSUhEUgAAARMAAAC3CAMAAAAGjUrGAAABZVBMVEX///9q1+UCmsUAircjt+oAAAA4TFO+2t8Aqdk1UFkiue320qI4S1MjtuoAirZr2ug6RUnT7PAAs9ylrK9u4O8cy/skrNIPm7wleI85R0wsQkonosU5SE4Ard8vX20WkrE6QEIzZXUdw/EqbH4hf5g9OzsbiqckPUUsjak1VmAvf5chuuXKztBAkJr/2qgHo8hjcXYibYi2tLPs7OxgxdLc3+BuhIqloqGZlZQnFBBYucb08/NJoKsbWF8Go9DO0tNQYWeAio6zztN8d3ZtZmUALzQ6h5AbAAAIREolZm5TrroxdX4JExSLh4YdAAAAICZnX15LS0sgICAnKjGQmZwYeZuBmZ65v8EAJywvIR5LQT81KCU+fYYFCw0aNjlDNzRUSDhCKx6OdFkwKSB3Zk+xlXKfiGnevZJTPCrJq4QAGiYECxk9JBZputWc0uPg9fdctdO80tas2+d3lJyRrrVYeoSWu8XX1APDAAAUX0lEQVR4nO1ci1/ayBYW6qRCI0RNLUkDQlEjLShPtSIPi1rBurV7pbRqt/fuo4+9t+3utrd//z2TZEJCJhAUJOzl+ymScBJnvjnnzDlnJkxNTTDBBBNMMMEEE0wwwQQTTDDBBDeIXKW1tV07Bezv1062t7eyyUJx1I0aFXLJrdo5QuigdHyY2m00dgGpw8t66eg5Qk9PT7KVUbfwRlFsnQAbR8epRj7I83zQBDjBe/KNVP0VelzL/n+oTKv2FB0dNjwqFx46VHJ2UiX0ersw6hYPF8Wtc3SUymM6bMjoYAZ4OUavt0bd7uGh9QKVGkGHfBh42SmhWm7UjR8GitvoYBcI6YcPQgvvuUT7fztWiieonr8SIURbLtHJqDsxWGyjuucajCiseEpIm51zW/vnF+e1rXHWnCQq5fl+9QJPyPk8np3IOb6hqEr2AtV3GzuN3To6H6MQppDdPtnOkjm0hhq8obP2E3BbiG8cHyD0+PVThEop3eaCnqPzyuuDhh7Q7KL9kfbTMcB1oPolBKQInYB2557WCQkw+B4Y38ZOnu9mSLznGJ1vaYwWWzV0tEM45S9RynBpMFh/Og5B3Qk6zqsDyecvUS2Ldnlt7D0QgaHz/dr+6WMI2uw8btBTR9vmjmafljyaML+L8sbr+EPkelKKr488hnHkfyJd4PMQZLT09le2DaNvUpIGbX7ZRjtB/XMzKZcXN9m/KyAHqm1q8DOVIZg0nmY7ZFs/lKyeBcadGspX2qR0asrR9g107BropOSNSgkMLi083zb3Dgsev7W5c0GX5VMI7NBgee62nhfHJkpSSKMkheihRLKDFP7QjhIsS0T5+vM3CB3qfvfYzcFc65nWTmW6De5oPeZTj+2uqCAjJXBFl7vXdMLBSwHIYTDf7apR4wfN5vmd3R1Qb80FBBtd2px9ZdCsIOoWgxV1/oAFDN2Ynrm3mpB8rvXvSBlGmWg33WtqOE3p1hM87B6BnRwTUQjWAJck7Km7t5ZQU7vHl5RRRD/xTsw9p7sJD2/jddqiuk7xMmadcHLoXofyWFFmcAoq8lr7e1j76S7pWuOFeiZnR83Fjq4o2Hr0C1O1gfZjkFBHPHioUqJZTjDVYxCTRzyZTpQIZgtf3BnLqDg5bOtUHck6Qe7Vk6Kq2honb4gDPFC8SWV/5YWN1RPjUU2npjJKjcOyJYNDRnq8zJfoFLoARU1P1EmBKLZqOtsqT1SjeEssAku2NMOj+uXC8zYnfEl3zr380CiBiHlDl/RIJY+jsKzW0R9pl9V2NS5fw8ELwgnNRRSRoebQIAQFGy7OeIi3hIwEpXTHiefXZ6SnNCXfVmWDO+dwQATRCkXSyAkEMyS7/L013H5dB9mjdmSpt3y3hnMVAloAsnVo4SSbe0NTqZyJk2M1PuEvz4fcr2uB5K7BVJ03cpLUzOGEOvqEkzzOAN4okmBQLyiShQMjJzuKfUIu5eoUsKVNIfyzdiDROCV6AiO/ckq56kSzMx537kQR3SpQ8+hs3VQkAOMJ8sfupgR69EpJ/vJtHQ/msQNE2uhTe3ra0DjBU2qxmzfe3zVxUk/xDURj2V04QXkeIpTjdtuDeIZVp+Iff6SGtMT3BHexvWg6RZ1dTUk0yL969Tg5zN4MCFl0DKl8o80Jf4SbrU2xtLS3oGfGWpyxVavRY7CtUkexEo0DI4BiDdVR0Diaylyz9SOyWd2s6bFXMNXdEPQMinD4fGyWd4q1I+N4Brs7waLBIPiuA3963KEmwWOXV2INMKRquOWHXbNWQ/0EO2f7KH37eQclmgMaD5w3gqamd6spZZWeqpuT+CBEwHZKtYU8Fri66GhGR+uDO/bWo9Rj8UroT5AilVI4AqMTuP+7lRJXJ39mFFCHkvOpH2xEWzhnCe4812N/HHFQnEQS1TsNR7mxe4sEHch2Tpm2axknCiW7yIAU7yl1ZorZi+fUJUNP8HJcnOy2ycWqpNBGP6mtAyITPMpWrVNtU0KxkN1HRw27peVd90exKswRuNZ6GP0to1cpZl+/UgaflCoJwD8Hec9uHe+RfYrQ8/qu/WYed6/sGKHXzcyqkq+j8+1WIZfLFVrb56i0o3Q1GCyZOdnVTsMfdUdOt80qwXHhhDJpqh0I7hyWDt6gZwelwx11s1/Qc4xemyj557+O+tjSxHddOnIRkO3IamGIPvig+z/fWf/FQMmv6+u/tVeCe3NyNB4ZT65zKu4C9HH9zp077zRWfvn5PRyu3/mQcLob0M0rgEYULDG47Sj73mFK7qyv33n/8eN7/FfB+q8+h7dw8cqOCZUDpx3K/6CR0In1D9bpnH6L3fHY45c8cspJ6mcbTu68t/PTnbdouLo+rSNbcugNgse/2VACikKdz623yNvubHEVzIXkbh26fGenJ+v/bDi8yXgEKM45aXwgnGAv+/79epsih7YzLkGbY048/O/KVLy+/v7dB4T+8W/068d1beI5dngP3u0rGSq2nPYHh2zv3t/5+O5fqFaZQpWp3NY/fvkN68yvsmNax6OC4lxPgJT6v1H0BMeiRTVKryD0nw/IMase/vlYBPd9cIJLbJryF7QBR578jsf5DfiDsQju++JEd5IVjZvH+b6ejBuThKc/TshkmtT+njudhDVKx6P62HIas6kDrXHR0v6eUgpS3TipjwUnjmN7lZM3qpMknNCKdF05GYvE2HEOaOpU8oqcHI8FJ4VnfXHSUJ86aGk+9kWf/mQ8lkf7qSl5sEPBu9EqqKSW4C1Pr/TgZDxWM4r9cRLcQdnCCdrhD17kprJPO9fJe119OBacdKnH0ruVP/q9DmEaf4hQqdEfJWNTaHOa0+r90h4iNT+89ffi5LH62Ch+sIlXftQjHp/xtM8rb3lNwiSsneQ1ee1I+0y/o3qy125+l6AqRhPzscR8NLRxsbS0shEX532Z+URUvLsq3o3E766szl9sLK08CEXuZqIr8G4jBBKxxZXVexf3VqOLy3Dy0cXivYsHIfauL/Rg5d7GxaP7K9HlRW4ZJJZX8M3F0MbK0sYKJ+51bYosJ/yzJszYoSzLsjg0Tlg2Mh+PzEvLiyv3lqKLId98IjQfkXx313x3Y/G73Nr8yuK96IOHsbshiVvUJOKL0dV7KxurzPyywC0+Wlm8H30Q8t1NPHwQvb+x8ug+JyzPMyBxb5XDN2dCG9GlDY7tzsmCyEbL/unp2dlpDHi1pSSckRh5aBuy06w0EE5Wrs9JUWakuF8hQ6UkbEuJl2PZ6rAoAU4GoycD4GRqT2Q5rCgabCmZmfExrDy8LYOD4sSJ7TA9OCnILBPxq0rS1XIiUq9bjZATyU5PJBMnrDNOFEVZJYpiT0lcYFjf8CgZFidX0pOposgwUa+/q38Nz8QElpGHWdm9no+VnNmOUz2ZSgIpnNffjZJyQmBZeaiF3X44Ea7JSS8fO9WqMsBJwt5wwuFlQWIYcbhbsgdlO870pOuG5FZVBkqiIb/dlBMOLyU4YIQZcvk/Da7+WvOO5MCfONCTwhkLsw7LJbw2lITDM6uYEUZOD3vljOgJt7zxFmL7xTijcyIpsf3a/MWiGtsrnKwshhjMCcT2b3GPFT2B2P7tgxCjxvb336qcCMsgsRydjyfmBSW2t9eTwllVFhmW5Zg1v396tpOSMKC8Gpc4FpREHP7zhIo/2diAn8WNRfhR3iqcPJp/8OjRg3n4eaC8VTghErow5kSTmFeEsbzCiSK00Zanc5JLLqRFIIRhJM63Ou1vx2peb7kMiU3Z611txn0cB36EEeWzgSvJggU437lnQYL1LVoQl4QliyQQtWSRXBOkkEVyCaKKqvFfn+2lqyKkciwMvyRwMa/fbwhfy1GO4wSBwxAkEGFFmVkYgtmIFjDY01vA0k7CQAm0k1ZJCCAk2kmWMf9zFp9S7hpbC6uMEMMJNwXtU+VVBF3aG8qKWREbLYt/VeD/hg+Vv+ov+Vh5ZZQm6b8sea+9Wg5ZIoSPjF1qn9Ve1E8kUA9Oijz0Tvv9auY3TcoDYcVSgDcZVwWqe61hzTU5WesDwDdyJCKxUNNbBj78llQ4vATe56wFSFYKQ92NUJAhStT+7azfJdBqA0bD0dK8G9mtUjFwEm43ZbSYbZPSnoS9WE1ugpKpJHBSJiPhtMXOz5IPZskfItcpPtv5ThE1xCVKHe1mNqu0RFbok5O+MGt5pR2bD2f1F0OoVuYYNn0jlAyFk+uYoOlaAyXhEKjJDT16uyAykpWTQTuWWaMJzc6aPqAczFoomZkRGKY6NBbMYQ7mZOa6euI3Hc129lU/55+mgS47a6IkHBJYmRagDSbVqZpu0xIZmu3QW2/DyEycIm51Gf7pmN/EV3dtNGlJWWKoVfmzwcxEjLxg5sQ67/j9S85J8Yd9XEwhUZ9CjZ3VHaZ/RpNru1DdjNqTr37pzMxq2KgmDE1N0vJA6tIQpMnV9pyWlFmdkxnCSDkSfeh3xorfvwaWLvnKPeRBjoM0xufteV9VlcIzsWi8TFgpCzQ1STKQmAyCkyrONOQ9EhwrMZuBE4giy3FoPRcL92w9yIZXfZySyHDxmba8adIFXYAA2RvhlOyHiyzN6pmMQXjWbElhb0KA3CdUDodJbNKpJpU0TksGsIBRrIpKriXKafU7g3Fsv0SGAxOymuAkJVXnQjD2/lm61Ssh+MxajBNIsiRxca+fSiOcBEYkIshJ8aWwn4hS7g5MB2KckoUJXGQVaPFaYpPcQlVW87RrW8+CqKeojCymF5I5yAGFVVy1Cs+UvatxH+TvJBUWuETTO91OQqbb7/1h7xqW1TuqsuILecNE2k+kZ5biEseYBblEaK1suvW04dYZX5tBSJMTmQhjCGGLhRauwbEkvxar1ygYFM5YkW23jMXagslmI/F4LOKTcKGGMdUEgBbOF3+45vWWlWofGLbXu9aENqpFHcPdGG1coQcPl1RxEF56GNPKYSZZhZco54tl1HvPaPdeWgvFGI6TzKKsclxNb+7t7aWrDK45mT+Xq1crLFVUbpUKBtuuZKgHEoAUNFhD+UMpa0iCuWwkCFg92oSYO8syJvFO5sgF6iibbx3F95Ysoto71lRzMn3OYlew0F8ulDxLK/U8Ui7SFIHww1wJNpfZcWUqHVku6tUKzVBY1tBocxEMa89mn7zY4kxkfbcIvKNG4JYFAZtwbYjAgSxpSSAwYkqsjNy6lWBvLPkjgMlYaBJORqwoBuXQ32WEnuungwckgRlXcEKxG2gSBEDsjT8fl2aZRLsJo6OkgwtiOQw10RkyFrBDCZCGjIqRgNFe2sgIQ91+ZIeK4lBIg0ZECc1sAE0cAN88JVNTEDvF2s0YBSO6lnY6E4m5qbp0B/YgVG43aASU2CgJOBPJXOy5OSQNs/EISAlQHQlGTGLEGyrVW8AyUkRXV+ecfPr8+dPGtSkh/7ZtMORNZlTOBAPCe8HQKGd9uT/35fafc3OfBsEI1ZuAf2WHupexKyCU1cO2W05jlLnbVVm+Pfflj2swYudb8bmmMJLIREcVckvDeDnpzuc5RmSrX+bm5q5Oib2OwCmwmxH5VxUtmRUyassCDl3K7e8yw4jfnmx+uX9dRmgIDKbUeh0QRXEeuc19w8UuUa5e0Xi6MnIr4GNHN+VoaMF0bPAoDjj56wneucqIV9OTtrHQEz8XUAKxLMDY0J69+vSlKuJS6O2/rsqIhY1AmxIITKqjpgQrihrgB7Tfnh27PbcpitU/+1cTuwjNoCWuoETxKMZg1gEpf8Gk82VusX9GepCiUuKGrxSCGMVYRrnVJUxpxhKr+O/9T5/69a9We7HYURN7KVdQgoNZ4mb16iylU6uZhCBIUqxPLlR0EEEFDtVcYTgKwHo4k/XopODN3N5mMxPB61cwawvR5hUYCdCSGtOpgJrjyCOfcXRg62F8vkgsloEfDXH4ifl8DFmOYkVRjlyBkZ6OVUWMG8AC8CCxoEQcjGSBsiqF1+FkMf3y+1z/s68zQm4FEtKIA3or9vDiqXX/Pd7LLTLpzZdPIOWDBKfP6ddgI921pQns0zdojRLgUsSX316+/Pp1U8XXry9ffnvy5E8g4wumQ0UfiuLQZjAyN/G8Vv/I4Rzmye1OzHXgi8OgxERIz6hEcJV3bQP8LCtaSemkxYGidFBAsx3jUQYvbbnMlRAkcQXgO4UUEy1felTX+rAYlZ2E4Eq70dCSYYb5RiXFyIs9HQ746BTJCBLeYjfqrtsDskFG/mpHCiGGZj1O6KCgyeDHgxm3zTcmtLBP+W83UjD+wCE6Bhl1S3JHCVUp6tJMKJ7ExUqioCLDlJygeVojnAZiFB7abwMxvHnNuF/XrSiwItPFqWigFZa7HlrFMSOs6NLppgPFNES0ci/7ceQ+ApY3RkZAIeU9d9QFeuMMph+J7a4qT5xwYoemsouYlTfH4ruXVSRFEdeJu3qVJ7QVTbqWdDKSwIyIctr9jsSI4qaMk+FNB+Zjbx9UhgIZRlD3tI4XIxgtxdWKL7uRct+xsZDwPpPQvmZgb/wYwTjDu7hF8WsXC/pEUxHL9gmiIc2IgB9aYIfzNQM3g9ymrHwzwCY9BcL47FhPMhG1VgdG4+qgtScKaeVrSMTqS1tluU/VFDMfzYyPEMIsjNFUY4PCHrYgcIm2tHwOGEJ7smjWju2b4EL0r+Y4G08vYkHujMHKAjbEbH6j8vLpFhUB5bEWvbhdHdQzAu5AclNUH3WBsCX99dt3CzN/dJDRzMQSkqCoh6Ig7GZr/E2mE8XWpvqFPuqTNL7qfze/fvv2/fsTDd/XmoBMJhZL+CS88iGpj8WIssz0+3DNOAE/GCWrX6QDob+hrI/P4oedBG3pQ32kBj9Tkz4b2le3uAbFysImo3BgfQxJPaHRxKb3FpJ/P3OxRbHQWthLM6qGGAFMVdN7Z61kYWxDsuuimMsVKkkFlUKhkCv+3zIxwQQTTDDBBBNMMMEEE0wwwQQTTDDBBH93/A8Xnp7RnOzZpAAAAABJRU5ErkJggg==;" vertex="1" parent="1">
          <mxGeometry x="430" y="470.00000000000006" width="199" height="132.43" as="geometry" />
        </mxCell>
        <mxCell id="pYAyUIE3479MOdKgYuvP-6" value="" style="endArrow=none;dashed=1;html=1;dashPattern=1 3;strokeWidth=2;rounded=0;exitX=0.5;exitY=1;exitDx=0;exitDy=0;entryX=-0.002;entryY=0.604;entryDx=0;entryDy=0;entryPerimeter=0;" edge="1" parent="1" source="Dhj0pCLLYURKOVo62HSA-22" target="pYAyUIE3479MOdKgYuvP-2">
          <mxGeometry width="50" height="50" relative="1" as="geometry">
            <mxPoint x="400" y="280" as="sourcePoint" />
            <mxPoint x="450" y="230" as="targetPoint" />
            <Array as="points">
              <mxPoint x="360" y="520" />
            </Array>
          </mxGeometry>
        </mxCell>
      </root>
    </mxGraphModel>
  </diagram>
</mxfile>
